<svg width="30" height="28" viewBox="0 0 30 28" fill="none" xmlns="http://www.w3.org/2000/svg">
<path d="M1.7373 1.37195H6.54799L9.77115 17.4757C9.88113 18.0294 10.1824 18.5268 10.6221 18.8808C11.0618 19.2348 11.6121 19.4228 12.1765 19.412H23.8665C24.4309 19.4228 24.9811 19.2348 25.4209 18.8808C25.8606 18.5268 26.1618 18.0294 26.2718 17.4757L28.1961 7.38531H7.75066M12.5613 25.4254C12.5613 26.0896 12.0229 26.628 11.3587 26.628C10.6945 26.628 10.156 26.0896 10.156 25.4254C10.156 24.7612 10.6945 24.2227 11.3587 24.2227C12.0229 24.2227 12.5613 24.7612 12.5613 25.4254ZM25.7907 25.4254C25.7907 26.0896 25.2523 26.628 24.5881 26.628C23.9238 26.628 23.3854 26.0896 23.3854 25.4254C23.3854 24.7612 23.9238 24.2227 24.5881 24.2227C25.2523 24.2227 25.7907 24.7612 25.7907 25.4254Z" stroke="white" stroke-width="2" stroke-linecap="round" stroke-linejoin="round"/>
</svg>
