<svg width="32" height="32" viewBox="0 0 32 32" fill="none" xmlns="http://www.w3.org/2000/svg">
<path d="M2.7373 3.37195H7.54799L10.7711 19.4757C10.8811 20.0294 11.1824 20.5268 11.6221 20.8808C12.0618 21.2348 12.6121 21.4228 13.1765 21.412H24.8665C25.4309 21.4228 25.9811 21.2348 26.4209 20.8808C26.8606 20.5268 27.1618 20.0294 27.2718 19.4757L29.1961 9.38531H8.75066M13.5613 27.4254C13.5613 28.0896 13.0229 28.628 12.3587 28.628C11.6945 28.628 11.156 28.0896 11.156 27.4254C11.156 26.7612 11.6945 26.2227 12.3587 26.2227C13.0229 26.2227 13.5613 26.7612 13.5613 27.4254ZM26.7907 27.4254C26.7907 28.0896 26.2523 28.628 25.5881 28.628C24.9238 28.628 24.3854 28.0896 24.3854 27.4254C24.3854 26.7612 24.9238 26.2227 25.5881 26.2227C26.2523 26.2227 26.7907 26.7612 26.7907 27.4254Z" stroke="url(#paint0_linear_1_11105)" stroke-width="2" stroke-linecap="round" stroke-linejoin="round"/>
<defs>
<linearGradient id="paint0_linear_1_11105" x1="1.76064" y1="-26.3942" x2="49.108" y2="-14.9017" gradientUnits="userSpaceOnUse">
<stop stop-color="#FFE986" stop-opacity="0.88"/>
<stop offset="0.670219" stop-color="#BC7E20"/>
<stop offset="1" stop-color="#A74D01"/>
</linearGradient>
</defs>
</svg>
