<svg width="70" height="16" viewBox="0 0 70 16" fill="none" xmlns="http://www.w3.org/2000/svg">
<path fill-rule="evenodd" clip-rule="evenodd" d="M24.2655 5.77607H19.0472C18.957 5.77663 18.8705 5.81624 18.8069 5.88624C18.7431 5.95609 18.707 6.05086 18.7066 6.14983V10.7466C18.7071 10.8454 18.7432 10.9402 18.807 11.0101C18.8707 11.08 18.957 11.1197 19.0472 11.1204H24.2655V11.8989H19.0472C18.9094 11.8996 18.773 11.8704 18.6457 11.8129C18.5184 11.7553 18.4027 11.6708 18.3054 11.564C18.2079 11.457 18.1309 11.3301 18.0785 11.1904C18.026 11.0506 17.9994 10.9009 18 10.7498V6.15318C17.9994 6.002 18.026 5.85222 18.0785 5.71252C18.1309 5.57281 18.2079 5.44585 18.3054 5.33904C18.4027 5.23209 18.5184 5.14754 18.6457 5.09001C18.773 5.03248 18.9094 5.00322 19.0472 5.00392H24.2655V5.77607ZM34.0641 5V5.77873H29.0385V8.0543H33.0778V8.83947H29.038V11.119H34.0635V11.8977H28.3284V5H34.0641Z" fill="white"/>
<path d="M44.4133 6.15892V8.17958C44.4142 8.33062 44.3874 8.48027 44.3348 8.62011C44.2821 8.75967 44.2054 8.88664 44.1078 8.99345C44.0107 9.10039 43.8949 9.18494 43.7676 9.24248C43.6403 9.30001 43.5037 9.32941 43.3663 9.32871H42.4068L44.3784 11.895H43.4448L41.4816 9.32871H39.1756C39.0616 9.32241 38.9478 9.30967 38.835 9.29049V11.895H38.1255V5.00979H43.3609C43.4986 5.00909 43.6348 5.03849 43.7621 5.09602C43.8898 5.15356 44.0052 5.23811 44.1028 5.34505C44.1999 5.45186 44.277 5.57883 44.3293 5.71839C44.3819 5.85823 44.4087 6.00788 44.4082 6.15892H44.4133ZM39.1779 8.54354H43.3663C43.41 8.54424 43.4533 8.53528 43.494 8.51708C43.5343 8.49902 43.5712 8.47229 43.6022 8.43827C43.6332 8.40439 43.6573 8.36408 43.6739 8.31956C43.6904 8.27519 43.6985 8.22746 43.6981 8.17958V6.15892C43.6985 6.11034 43.6904 6.06191 43.6742 6.01669C43.6578 5.97148 43.6332 5.93033 43.6022 5.89547C43.5721 5.85991 43.5356 5.83164 43.4948 5.8126C43.4541 5.79356 43.41 5.78432 43.3658 5.78516H39.1774C39.0872 5.78572 39.0009 5.8252 38.9371 5.89519C38.8733 5.96518 38.8372 6.05995 38.8368 6.15892V8.17958C38.8358 8.22816 38.8444 8.27645 38.8617 8.3211C38.879 8.3659 38.9048 8.40607 38.9373 8.43911C38.9691 8.47327 39.0067 8.5 39.048 8.51792C39.0894 8.53598 39.1335 8.54466 39.1779 8.54354Z" fill="white"/>
<path fill-rule="evenodd" clip-rule="evenodd" d="M48.1648 5H54.4449V5.77873H51.6663V11.8983H50.9566V5.77873H48.1648V5ZM58.2514 11.895V5H58.961V11.895H58.2514ZM68.3906 5H69.2984L66.672 8.44752L69.3069 11.895H68.3906L66.0522 8.84017H64.0279V11.895H63.3135V5H64.0292V8.0543H66.0535L68.3906 5Z" fill="white"/>
<path fill-rule="evenodd" clip-rule="evenodd" d="M13.2154 2.44271L13.296 2.94983C13.3595 3.42159 13.389 3.89766 13.3841 4.374C13.3836 5.42669 13.2615 6.47539 13.0204 7.49785C12.6942 8.88673 12.1263 10.2019 11.3446 11.3781C10.4413 12.7289 9.13514 14.0576 7.23132 15.1251L6.99838 15.2556L6.76549 15.1251C4.86166 14.0576 3.55607 12.7289 2.65223 11.3781C1.87052 10.2019 1.30257 8.88673 0.976471 7.49785C0.735404 6.47563 0.613267 5.42704 0.612688 4.37456C0.607766 3.89821 0.63723 3.42214 0.700831 2.95038L0.781492 2.44328C0.788376 2.40191 0.787323 2.35954 0.778391 2.31861C0.769461 2.27769 0.752825 2.239 0.729444 2.20478C0.706066 2.17057 0.676408 2.1415 0.642175 2.11926C0.607942 2.09701 0.569816 2.08203 0.529991 2.07518C0.490167 2.06832 0.449434 2.06974 0.410134 2.07932C0.370834 2.08892 0.333752 2.1065 0.301019 2.13106C0.268285 2.15563 0.240551 2.18667 0.219413 2.22243C0.198275 2.2582 0.184151 2.29794 0.177857 2.3394L0.0971939 2.84652C0.0278125 3.35259 -0.00450976 3.8634 0.000505292 4.37456C0.000889739 5.47893 0.128946 6.57916 0.381917 7.6517C0.72627 9.11631 1.32573 10.503 2.15062 11.7431C3.10416 13.17 4.48718 14.573 6.47756 15.6866L6.85575 15.8982C6.90033 15.9234 6.95016 15.9365 7.0008 15.9365C7.05143 15.9365 7.1013 15.9234 7.14584 15.8982L7.5235 15.6866C9.51178 14.5725 10.8953 13.17 11.8505 11.7431C12.675 10.503 13.274 9.11655 13.618 7.65218C13.8711 6.57963 13.9991 5.47941 13.9995 4.37512C14.0046 3.86395 13.9722 3.35314 13.9028 2.84708L13.8221 2.33996C13.8159 2.29849 13.8017 2.25875 13.7806 2.22299C13.7594 2.18724 13.7318 2.15618 13.699 2.13161C13.6663 2.10705 13.6292 2.08947 13.5899 2.07988C13.5506 2.07029 13.5098 2.06889 13.47 2.07573C13.4302 2.08258 13.392 2.09756 13.3578 2.11981C13.3236 2.14205 13.294 2.17112 13.2706 2.20534C13.2472 2.23955 13.2306 2.27824 13.2216 2.31917C13.2127 2.36011 13.2117 2.40246 13.2186 2.44383L13.2154 2.44271Z" fill="white"/>
<path fill-rule="evenodd" clip-rule="evenodd" d="M2.45349 2.09734L6.99959 0.653196L11.6472 2.12845C11.725 2.15263 11.8089 2.14379 11.8805 2.10384C11.9519 2.0639 12.0054 1.99611 12.0289 1.91532C12.0525 1.83452 12.0443 1.7473 12.0063 1.67273C11.9682 1.59817 11.9032 1.54234 11.8256 1.51746L7.08878 0.0138846C7.03067 -0.00462821 6.9685 -0.00462821 6.91036 0.0138846L2.27453 1.48524C2.23578 1.49729 2.19972 1.51716 2.16838 1.54374C2.13705 1.57032 2.11108 1.60307 2.09195 1.6401C2.07282 1.67714 2.06092 1.71775 2.05692 1.75958C2.05293 1.80142 2.05692 1.84366 2.06866 1.88389C2.08042 1.92412 2.09969 1.96154 2.12537 1.994C2.15107 2.02647 2.18267 2.05333 2.21839 2.07307C2.25409 2.09279 2.2932 2.105 2.33345 2.10896C2.37369 2.11294 2.41432 2.10862 2.45295 2.09623L2.45349 2.09734Z" fill="white"/>
<path fill-rule="evenodd" clip-rule="evenodd" d="M0.208142 2.53611L6.7257 15.7623C6.75111 15.814 6.78967 15.8574 6.83717 15.888C6.88466 15.9185 6.93928 15.935 6.99512 15.9354C7.05093 15.9359 7.10582 15.9206 7.15384 15.891C7.20183 15.8613 7.24113 15.8185 7.26742 15.7673L11.2421 8.03829L11.2479 8.02607L13.7919 2.52722C13.8264 2.45133 13.8306 2.36436 13.8038 2.28521C13.7769 2.20606 13.7212 2.14113 13.6486 2.10454C13.5758 2.06794 13.4923 2.06265 13.4159 2.08979C13.3395 2.11693 13.2765 2.17432 13.2406 2.24949L10.7009 7.74389L7.00724 14.9313L0.752517 2.24504C0.734492 2.20738 0.709458 2.17381 0.678859 2.14627C0.648265 2.11874 0.612718 2.09779 0.574277 2.08465C0.53584 2.07149 0.495276 2.06641 0.45493 2.06967C0.414588 2.07295 0.375269 2.0845 0.339255 2.10369C0.303238 2.12287 0.271243 2.14929 0.24512 2.18143C0.218996 2.21355 0.199266 2.25076 0.187071 2.29088C0.174876 2.33099 0.170459 2.37322 0.174075 2.41512C0.177693 2.45704 0.189272 2.49778 0.208142 2.53499V2.53611Z" fill="white"/>
<path fill-rule="evenodd" clip-rule="evenodd" d="M3.66155 8.18455H10.9092C10.9903 8.18455 11.0681 8.15112 11.1255 8.09145C11.1828 8.03178 11.215 7.95102 11.215 7.86654C11.215 7.7823 11.1828 7.70142 11.1255 7.64175C11.0681 7.58208 10.9903 7.54865 10.9092 7.54865H3.66155C3.58043 7.54865 3.50264 7.58208 3.44529 7.64175C3.38794 7.70142 3.35571 7.7823 3.35571 7.86654C3.35571 7.95102 3.38794 8.03178 3.44529 8.09145C3.50264 8.15112 3.58043 8.18455 3.66155 8.18455Z" fill="white"/>
</svg>
