<svg width="36" height="35" viewBox="0 0 36 35" fill="none" xmlns="http://www.w3.org/2000/svg">
<mask id="path-1-inside-1_1_10916" fill="white">
<path d="M30.7422 20.9254C30.1224 21.2985 29.3992 21.3663 28.8482 21.061C28.1595 20.6541 27.7462 19.7384 27.7462 18.4835V14.6512C27.7462 12.8198 27.023 11.4971 25.7833 11.1579C23.6826 10.5475 22.0985 13.0911 21.5131 14.0407L17.7939 19.9079V12.6841C17.7594 11.0223 17.2084 10.0388 16.1753 9.73353C15.4866 9.53004 14.4535 9.63179 13.4548 11.124L5.15544 24.2151C4.05345 22.1463 3.46802 19.8401 3.46802 17.5C3.46802 9.59787 9.90777 3.18798 17.7939 3.18798C25.68 3.18798 32.1197 9.59787 32.1197 17.5V17.5339V17.5678C32.1886 19.094 31.7065 20.3149 30.7422 20.9254ZM35.2879 17.5V17.4661V17.4322C35.2535 7.8343 27.4018 0 17.7939 0C8.15147 0 0.299805 7.8343 0.299805 17.5C0.299805 27.1318 8.15147 35 17.7939 35C22.2363 35 26.4376 33.3382 29.6747 30.3198C30.329 29.7093 30.3634 28.7258 29.7436 28.0814C29.1581 27.437 28.1595 27.4031 27.5051 27.9796C27.5051 27.9796 27.5051 27.9796 27.4707 28.0136C24.8535 30.4554 21.3409 31.8459 17.725 31.8459C13.4892 31.8459 9.70115 30.0145 7.08392 27.0979L14.5568 15.2955V20.7558C14.5568 23.3672 15.5899 24.2151 16.4508 24.4525C17.3118 24.6899 18.6204 24.5204 20.0323 22.3159L24.1303 15.7703C24.2681 15.5669 24.3714 15.3634 24.5091 15.2277V18.5514C24.5091 20.9932 25.5078 22.9603 27.2297 23.9099C28.7793 24.7917 30.7422 24.6899 32.3608 23.7064C34.3581 22.4176 35.4257 20.1793 35.2879 17.5Z"/>
</mask>
<path d="M30.7422 20.9254C30.1224 21.2985 29.3992 21.3663 28.8482 21.061C28.1595 20.6541 27.7462 19.7384 27.7462 18.4835V14.6512C27.7462 12.8198 27.023 11.4971 25.7833 11.1579C23.6826 10.5475 22.0985 13.0911 21.5131 14.0407L17.7939 19.9079V12.6841C17.7594 11.0223 17.2084 10.0388 16.1753 9.73353C15.4866 9.53004 14.4535 9.63179 13.4548 11.124L5.15544 24.2151C4.05345 22.1463 3.46802 19.8401 3.46802 17.5C3.46802 9.59787 9.90777 3.18798 17.7939 3.18798C25.68 3.18798 32.1197 9.59787 32.1197 17.5V17.5339V17.5678C32.1886 19.094 31.7065 20.3149 30.7422 20.9254ZM35.2879 17.5V17.4661V17.4322C35.2535 7.8343 27.4018 0 17.7939 0C8.15147 0 0.299805 7.8343 0.299805 17.5C0.299805 27.1318 8.15147 35 17.7939 35C22.2363 35 26.4376 33.3382 29.6747 30.3198C30.329 29.7093 30.3634 28.7258 29.7436 28.0814C29.1581 27.437 28.1595 27.4031 27.5051 27.9796C27.5051 27.9796 27.5051 27.9796 27.4707 28.0136C24.8535 30.4554 21.3409 31.8459 17.725 31.8459C13.4892 31.8459 9.70115 30.0145 7.08392 27.0979L14.5568 15.2955V20.7558C14.5568 23.3672 15.5899 24.2151 16.4508 24.4525C17.3118 24.6899 18.6204 24.5204 20.0323 22.3159L24.1303 15.7703C24.2681 15.5669 24.3714 15.3634 24.5091 15.2277V18.5514C24.5091 20.9932 25.5078 22.9603 27.2297 23.9099C28.7793 24.7917 30.7422 24.6899 32.3608 23.7064C34.3581 22.4176 35.4257 20.1793 35.2879 17.5Z" fill="url(#paint0_linear_1_10916)"/>
<path d="M30.7422 20.9254C30.1224 21.2985 29.3992 21.3663 28.8482 21.061C28.1595 20.6541 27.7462 19.7384 27.7462 18.4835V14.6512C27.7462 12.8198 27.023 11.4971 25.7833 11.1579C23.6826 10.5475 22.0985 13.0911 21.5131 14.0407L17.7939 19.9079V12.6841C17.7594 11.0223 17.2084 10.0388 16.1753 9.73353C15.4866 9.53004 14.4535 9.63179 13.4548 11.124L5.15544 24.2151C4.05345 22.1463 3.46802 19.8401 3.46802 17.5C3.46802 9.59787 9.90777 3.18798 17.7939 3.18798C25.68 3.18798 32.1197 9.59787 32.1197 17.5V17.5339V17.5678C32.1886 19.094 31.7065 20.3149 30.7422 20.9254ZM35.2879 17.5V17.4661V17.4322C35.2535 7.8343 27.4018 0 17.7939 0C8.15147 0 0.299805 7.8343 0.299805 17.5C0.299805 27.1318 8.15147 35 17.7939 35C22.2363 35 26.4376 33.3382 29.6747 30.3198C30.329 29.7093 30.3634 28.7258 29.7436 28.0814C29.1581 27.437 28.1595 27.4031 27.5051 27.9796C27.5051 27.9796 27.5051 27.9796 27.4707 28.0136C24.8535 30.4554 21.3409 31.8459 17.725 31.8459C13.4892 31.8459 9.70115 30.0145 7.08392 27.0979L14.5568 15.2955V20.7558C14.5568 23.3672 15.5899 24.2151 16.4508 24.4525C17.3118 24.6899 18.6204 24.5204 20.0323 22.3159L24.1303 15.7703C24.2681 15.5669 24.3714 15.3634 24.5091 15.2277V18.5514C24.5091 20.9932 25.5078 22.9603 27.2297 23.9099C28.7793 24.7917 30.7422 24.6899 32.3608 23.7064C34.3581 22.4176 35.4257 20.1793 35.2879 17.5Z" fill="#D1D2D7" fill-opacity="0.3"/>
<path d="M30.7422 20.9254L41.0553 38.0613L41.2493 37.9446L41.4405 37.8235L30.7422 20.9254ZM28.8482 21.061L18.6738 38.2797L18.9132 38.4212L19.1566 38.556L28.8482 21.061ZM25.7833 11.1579L20.2021 30.3634L20.3537 30.4075L20.5059 30.4491L25.7833 11.1579ZM21.5131 14.0407L38.4052 24.7485L38.4722 24.6428L38.5378 24.5364L21.5131 14.0407ZM17.7939 19.9079H-2.20613V88.815L34.686 30.6157L17.7939 19.9079ZM17.7939 12.6841H37.7939V12.4769L37.7896 12.2697L17.7939 12.6841ZM16.1753 9.73353L10.5085 28.9139L16.1753 9.73353ZM13.4548 11.124L-3.16642 0.000397736L-3.30414 0.206184L-3.43672 0.415316L13.4548 11.124ZM5.15544 24.2151L-12.4965 33.6178L3.6536 63.9368L22.047 34.9238L5.15544 24.2151ZM32.1197 17.5678H12.1197V18.0189L12.1401 18.4695L32.1197 17.5678ZM35.2879 17.5H15.2879V18.0138L15.3143 18.5269L35.2879 17.5ZM35.2879 17.4322H55.2879V17.3963L55.2878 17.3604L35.2879 17.4322ZM29.6747 30.3198L43.3141 44.9473L43.3184 44.9433L29.6747 30.3198ZM29.7436 28.0814L14.9406 41.5302L15.1323 41.7413L15.3299 41.9467L29.7436 28.0814ZM27.5051 27.9796L14.2828 12.974L13.8667 13.3407L13.4715 13.7298L27.5051 27.9796ZM27.4707 28.0136L41.1144 42.6371L41.3119 42.4529L41.5043 42.2634L27.4707 28.0136ZM7.08392 27.0979L-9.81372 16.3988L-17.9117 29.1885L-7.80168 40.4552L7.08392 27.0979ZM14.5568 15.2955H34.5568V-53.6781L-2.34086 4.59649L14.5568 15.2955ZM20.0323 22.3159L36.874 33.1028L36.9295 33.0162L36.984 32.929L20.0323 22.3159ZM24.1303 15.7703L7.56822 4.55887L7.36804 4.85458L7.17855 5.15724L24.1303 15.7703ZM24.5091 15.2277H44.5091V-32.5394L10.4755 0.9779L24.5091 15.2277ZM27.2297 23.9099L37.1208 6.52696L37.0049 6.46105L36.8882 6.3967L27.2297 23.9099ZM32.3608 23.7064L42.7468 40.7982L42.9774 40.6581L43.2042 40.5118L32.3608 23.7064ZM20.4291 3.78946C24.28 1.47187 31.3146 -0.436385 38.5398 3.56611L19.1566 38.556C27.4837 43.1689 35.9648 41.125 41.0553 38.0613L20.4291 3.78946ZM39.0226 3.84243C47.0299 8.57392 47.7462 16.3346 47.7462 18.4835H7.74621C7.74621 23.1421 9.28898 32.7342 18.6738 38.2797L39.0226 3.84243ZM47.7462 18.4835V14.6512H7.74621V18.4835H47.7462ZM47.7462 14.6512C47.7462 9.03999 45.1754 -4.27195 31.0607 -8.13323L20.5059 30.4491C15.2264 29.0048 11.6564 25.4822 9.76284 22.0872C8.02557 18.9724 7.74621 16.1865 7.74621 14.6512H47.7462ZM31.3645 -8.04753C20.3807 -11.2395 12.3459 -5.30637 9.48413 -2.65381C6.51413 0.0990855 4.71692 3.1743 4.48837 3.54503L38.5378 24.5364C38.8947 23.9575 38.1822 25.2861 36.6758 26.6824C35.2776 27.9784 29.0852 32.9449 20.2021 30.3634L31.3645 -8.04753ZM4.62098 3.3329L0.901769 9.20016L34.686 30.6157L38.4052 24.7485L4.62098 3.3329ZM37.7939 19.9079V12.6841H-2.20613V19.9079H37.7939ZM37.7896 12.2697C37.734 9.5859 37.2612 5.37331 34.8725 1.04195C32.161 -3.87499 27.605 -7.74423 21.8422 -9.44685L10.5085 28.9139C5.77879 27.5165 2.01484 24.2917 -0.154327 20.3582C-2.00056 17.0104 -2.18065 14.1205 -2.20183 13.0985L37.7896 12.2697ZM21.8422 -9.44685C17.9119 -10.6081 12.8135 -10.8877 7.54279 -8.79233C2.40438 -6.74957 -1.02785 -3.19511 -3.16642 0.000397736L30.076 22.2477C28.9361 23.9509 26.5198 26.7084 22.3198 28.3781C17.9875 30.1004 13.7501 29.8716 10.5085 28.9139L21.8422 -9.44685ZM-3.43672 0.415316L-11.7361 13.5064L22.047 34.9238L30.3463 21.8328L-3.43672 0.415316ZM22.8074 14.8125C23.22 15.5872 23.468 16.5037 23.468 17.5H-16.532C-16.532 23.1765 -15.1131 28.7055 -12.4965 33.6178L22.8074 14.8125ZM23.468 17.5C23.468 20.6833 20.9137 23.188 17.7939 23.188V-16.812C-1.09819 -16.812 -16.532 -1.48752 -16.532 17.5H23.468ZM17.7939 23.188C14.674 23.188 12.1197 20.6833 12.1197 17.5H52.1197C52.1197 -1.48752 36.6859 -16.812 17.7939 -16.812V23.188ZM12.1197 17.5V17.5339H52.1197V17.5H12.1197ZM12.1197 17.5339V17.5678H52.1197V17.5339H12.1197ZM12.1401 18.4695C12.0278 15.9821 12.6802 8.6893 20.044 4.02726L41.4405 37.8235C50.7328 31.9405 52.3494 22.2059 52.0994 16.6662L12.1401 18.4695ZM55.2879 17.5V17.4661H15.2879V17.5H55.2879ZM55.2879 17.4661V17.4322H15.2879V17.4661H55.2879ZM55.2878 17.3604C55.2139 -3.2465 38.4281 -20 17.7939 -20V20C16.3756 20 15.2931 18.9151 15.2881 17.5039L55.2878 17.3604ZM17.7939 -20C-2.88571 -20 -19.7002 -3.2199 -19.7002 17.5H20.2998C20.2998 18.8885 19.1887 20 17.7939 20V-20ZM-19.7002 17.5C-19.7002 38.1608 -2.91094 55 17.7939 55V15C19.2139 15 20.2998 16.1028 20.2998 17.5H-19.7002ZM17.7939 55C27.3104 55 36.3828 51.4104 43.3141 44.9473L16.0353 15.6922C16.2419 15.4995 16.518 15.3168 16.8491 15.1863C17.1808 15.0554 17.5094 15 17.7939 15V55ZM43.3184 44.9433C51.9961 36.8471 52.6498 23.0445 44.1572 14.2161L15.3299 41.9467C8.07705 34.407 8.66189 22.5715 16.031 15.6962L43.3184 44.9433ZM44.5466 14.6326C36.2732 5.52611 22.7509 5.51226 14.2828 12.974L40.7275 42.9853C33.5681 49.2939 22.0431 49.3479 14.9406 41.5302L44.5466 14.6326ZM27.5051 27.9796C13.4708 13.7305 13.4712 13.7302 13.4715 13.7298C13.4715 13.7299 13.4715 13.7298 13.4715 13.7298C13.4715 13.7298 13.4715 13.7298 13.4715 13.7298C13.4715 13.7298 13.4715 13.7298 13.4715 13.7298C13.4715 13.7298 13.4715 13.7298 13.4715 13.7298C13.4715 13.7298 13.4715 13.7298 13.4715 13.7298C13.4715 13.7298 13.4715 13.7298 13.4715 13.7298C13.4715 13.7298 13.4715 13.7298 13.4715 13.7298C13.4714 13.7299 13.4716 13.7297 13.4715 13.7298C13.4715 13.7299 13.4715 13.7298 13.4715 13.7298C13.4715 13.7298 13.4715 13.7298 13.4715 13.7298C13.4715 13.7298 13.4715 13.7298 13.4715 13.7298C13.4715 13.7299 13.4715 13.7298 13.4715 13.7299C13.4715 13.7299 13.4715 13.7298 13.4715 13.7299C13.4715 13.7299 13.4715 13.7299 13.4715 13.7299C13.4714 13.7299 13.4715 13.7299 13.4714 13.7299C13.4713 13.7301 13.4714 13.73 13.471 13.7304C13.4706 13.7308 13.4704 13.7309 13.4697 13.7316C13.4567 13.7445 13.4807 13.7208 13.4672 13.7341C13.4528 13.7483 13.4644 13.7369 13.4371 13.7638L41.5043 42.2634C41.5278 42.2403 41.524 42.2441 41.5345 42.2337C41.5378 42.2305 41.5366 42.2316 41.5382 42.23C41.5385 42.2297 41.5381 42.2301 41.5383 42.2299C41.5384 42.2298 41.5383 42.2299 41.5384 42.2299C41.5389 42.2293 41.5378 42.2304 41.5384 42.2298C41.5385 42.2298 41.5384 42.2299 41.5384 42.2298C41.5384 42.2298 41.5384 42.2298 41.5384 42.2298C41.5384 42.2298 41.5384 42.2298 41.5384 42.2298C41.5384 42.2298 41.5384 42.2298 41.5385 42.2298C41.5385 42.2298 41.5385 42.2298 41.5385 42.2298C41.5385 42.2297 41.5385 42.2298 41.5385 42.2297C41.5385 42.2297 41.5385 42.2297 41.5386 42.2297C41.5398 42.2285 41.5376 42.2307 41.5387 42.2295C41.5388 42.2295 41.5388 42.2295 41.5388 42.2295C41.5388 42.2295 41.5388 42.2295 41.5388 42.2295C41.5388 42.2295 41.5388 42.2294 41.5388 42.2295C41.5388 42.2295 41.5388 42.2295 41.5388 42.2295C41.5388 42.2295 41.5388 42.2295 41.5388 42.2295C41.5388 42.2295 41.5388 42.2294 41.5389 42.2294C41.5391 42.2291 41.5395 42.2287 27.5051 27.9796ZM13.827 13.39C14.9152 12.3747 16.2795 11.8459 17.725 11.8459V51.8459C26.4023 51.8459 34.7918 48.5362 41.1144 42.6371L13.827 13.39ZM17.725 11.8459C19.4033 11.8459 20.9525 12.6071 21.9695 13.7405L-7.80168 40.4552C-1.55017 47.422 7.57512 51.8459 17.725 51.8459V11.8459ZM23.9816 37.7969L31.4544 25.9946L-2.34086 4.59649L-9.81372 16.3988L23.9816 37.7969ZM-5.44322 15.2955V20.7558H34.5568V15.2955H-5.44322ZM-5.44322 20.7558C-5.44322 24.5262 -4.71619 29.5377 -1.6331 34.3244C1.69144 39.4859 6.51649 42.4596 11.1342 43.7329L21.7674 5.17212C25.5242 6.20807 29.4023 8.63911 31.995 12.6645C34.3463 16.315 34.5568 19.5968 34.5568 20.7558H-5.44322ZM11.1342 43.7329C15.5507 44.9508 21.0782 44.9772 26.566 42.3892C31.6296 40.0011 34.8735 36.2261 36.874 33.1028L3.19057 11.529C3.77911 10.6101 5.66277 8.02214 9.50391 6.21063C13.7691 4.19913 18.2119 4.19168 21.7674 5.17212L11.1342 43.7329ZM36.984 32.929L41.0821 26.3835L7.17855 5.15724L3.08053 11.7028L36.984 32.929ZM40.6924 26.9818C40.9312 26.6291 41.115 26.3357 41.1766 26.2374C41.2972 26.0448 41.1889 26.2183 41.1179 26.3281C41.0159 26.486 40.7518 26.8902 40.3725 27.3926C39.9891 27.9003 39.3824 28.6506 38.5428 29.4775L10.4755 0.9779C9.56695 1.87265 8.89566 2.6993 8.44992 3.28964C8.00815 3.87473 7.68381 4.36791 7.52149 4.61911C7.39031 4.82212 7.22165 5.0932 7.27992 5.0002C7.28296 4.99534 7.31458 4.94483 7.36005 4.87414C7.40692 4.80127 7.47809 4.69201 7.56822 4.55887L40.6924 26.9818ZM4.50912 15.2277V18.5514H44.5091V15.2277H4.50912ZM4.50912 18.5514C4.50912 26.2041 7.83862 36.0556 17.5711 41.4231L36.8882 6.3967C43.177 9.86496 44.5091 15.7823 44.5091 18.5514H4.50912ZM17.3385 41.2928C25.9504 46.1931 35.6989 45.081 42.7468 40.7982L21.9748 6.61457C25.7856 4.29885 31.6083 3.39028 37.1208 6.52696L17.3385 41.2928ZM43.2042 40.5118C52.0069 34.832 55.716 25.3113 55.2616 16.4731L15.3143 18.5269C15.2321 16.9274 15.4849 14.8152 16.5458 12.5724C17.6296 10.2812 19.3583 8.29414 21.5174 6.90101L43.2042 40.5118Z" fill="url(#paint1_linear_1_10916)" mask="url(#path-1-inside-1_1_10916)"/>
<path d="M30.7422 20.9254L41.0553 38.0613L41.2493 37.9446L41.4405 37.8235L30.7422 20.9254ZM28.8482 21.061L18.6738 38.2797L18.9132 38.4212L19.1566 38.556L28.8482 21.061ZM25.7833 11.1579L20.2021 30.3634L20.3537 30.4075L20.5059 30.4491L25.7833 11.1579ZM21.5131 14.0407L38.4052 24.7485L38.4722 24.6428L38.5378 24.5364L21.5131 14.0407ZM17.7939 19.9079H-2.20613V88.815L34.686 30.6157L17.7939 19.9079ZM17.7939 12.6841H37.7939V12.4769L37.7896 12.2697L17.7939 12.6841ZM16.1753 9.73353L10.5085 28.9139L16.1753 9.73353ZM13.4548 11.124L-3.16642 0.000397736L-3.30414 0.206184L-3.43672 0.415316L13.4548 11.124ZM5.15544 24.2151L-12.4965 33.6178L3.6536 63.9368L22.047 34.9238L5.15544 24.2151ZM32.1197 17.5678H12.1197V18.0189L12.1401 18.4695L32.1197 17.5678ZM35.2879 17.5H15.2879V18.0138L15.3143 18.5269L35.2879 17.5ZM35.2879 17.4322H55.2879V17.3963L55.2878 17.3604L35.2879 17.4322ZM29.6747 30.3198L43.3141 44.9473L43.3184 44.9433L29.6747 30.3198ZM29.7436 28.0814L14.9406 41.5302L15.1323 41.7413L15.3299 41.9467L29.7436 28.0814ZM27.5051 27.9796L14.2828 12.974L13.8667 13.3407L13.4715 13.7298L27.5051 27.9796ZM27.4707 28.0136L41.1144 42.6371L41.3119 42.4529L41.5043 42.2634L27.4707 28.0136ZM7.08392 27.0979L-9.81372 16.3988L-17.9117 29.1885L-7.80168 40.4552L7.08392 27.0979ZM14.5568 15.2955H34.5568V-53.6781L-2.34086 4.59649L14.5568 15.2955ZM20.0323 22.3159L36.874 33.1028L36.9295 33.0162L36.984 32.929L20.0323 22.3159ZM24.1303 15.7703L7.56822 4.55887L7.36804 4.85458L7.17855 5.15724L24.1303 15.7703ZM24.5091 15.2277H44.5091V-32.5394L10.4755 0.9779L24.5091 15.2277ZM27.2297 23.9099L37.1208 6.52696L37.0049 6.46105L36.8882 6.3967L27.2297 23.9099ZM32.3608 23.7064L42.7468 40.7982L42.9774 40.6581L43.2042 40.5118L32.3608 23.7064ZM20.4291 3.78946C24.28 1.47187 31.3146 -0.436385 38.5398 3.56611L19.1566 38.556C27.4837 43.1689 35.9648 41.125 41.0553 38.0613L20.4291 3.78946ZM39.0226 3.84243C47.0299 8.57392 47.7462 16.3346 47.7462 18.4835H7.74621C7.74621 23.1421 9.28898 32.7342 18.6738 38.2797L39.0226 3.84243ZM47.7462 18.4835V14.6512H7.74621V18.4835H47.7462ZM47.7462 14.6512C47.7462 9.03999 45.1754 -4.27195 31.0607 -8.13323L20.5059 30.4491C15.2264 29.0048 11.6564 25.4822 9.76284 22.0872C8.02557 18.9724 7.74621 16.1865 7.74621 14.6512H47.7462ZM31.3645 -8.04753C20.3807 -11.2395 12.3459 -5.30637 9.48413 -2.65381C6.51413 0.0990855 4.71692 3.1743 4.48837 3.54503L38.5378 24.5364C38.8947 23.9575 38.1822 25.2861 36.6758 26.6824C35.2776 27.9784 29.0852 32.9449 20.2021 30.3634L31.3645 -8.04753ZM4.62098 3.3329L0.901769 9.20016L34.686 30.6157L38.4052 24.7485L4.62098 3.3329ZM37.7939 19.9079V12.6841H-2.20613V19.9079H37.7939ZM37.7896 12.2697C37.734 9.5859 37.2612 5.37331 34.8725 1.04195C32.161 -3.87499 27.605 -7.74423 21.8422 -9.44685L10.5085 28.9139C5.77879 27.5165 2.01484 24.2917 -0.154327 20.3582C-2.00056 17.0104 -2.18065 14.1205 -2.20183 13.0985L37.7896 12.2697ZM21.8422 -9.44685C17.9119 -10.6081 12.8135 -10.8877 7.54279 -8.79233C2.40438 -6.74957 -1.02785 -3.19511 -3.16642 0.000397736L30.076 22.2477C28.9361 23.9509 26.5198 26.7084 22.3198 28.3781C17.9875 30.1004 13.7501 29.8716 10.5085 28.9139L21.8422 -9.44685ZM-3.43672 0.415316L-11.7361 13.5064L22.047 34.9238L30.3463 21.8328L-3.43672 0.415316ZM22.8074 14.8125C23.22 15.5872 23.468 16.5037 23.468 17.5H-16.532C-16.532 23.1765 -15.1131 28.7055 -12.4965 33.6178L22.8074 14.8125ZM23.468 17.5C23.468 20.6833 20.9137 23.188 17.7939 23.188V-16.812C-1.09819 -16.812 -16.532 -1.48752 -16.532 17.5H23.468ZM17.7939 23.188C14.674 23.188 12.1197 20.6833 12.1197 17.5H52.1197C52.1197 -1.48752 36.6859 -16.812 17.7939 -16.812V23.188ZM12.1197 17.5V17.5339H52.1197V17.5H12.1197ZM12.1197 17.5339V17.5678H52.1197V17.5339H12.1197ZM12.1401 18.4695C12.0278 15.9821 12.6802 8.6893 20.044 4.02726L41.4405 37.8235C50.7328 31.9405 52.3494 22.2059 52.0994 16.6662L12.1401 18.4695ZM55.2879 17.5V17.4661H15.2879V17.5H55.2879ZM55.2879 17.4661V17.4322H15.2879V17.4661H55.2879ZM55.2878 17.3604C55.2139 -3.2465 38.4281 -20 17.7939 -20V20C16.3756 20 15.2931 18.9151 15.2881 17.5039L55.2878 17.3604ZM17.7939 -20C-2.88571 -20 -19.7002 -3.2199 -19.7002 17.5H20.2998C20.2998 18.8885 19.1887 20 17.7939 20V-20ZM-19.7002 17.5C-19.7002 38.1608 -2.91094 55 17.7939 55V15C19.2139 15 20.2998 16.1028 20.2998 17.5H-19.7002ZM17.7939 55C27.3104 55 36.3828 51.4104 43.3141 44.9473L16.0353 15.6922C16.2419 15.4995 16.518 15.3168 16.8491 15.1863C17.1808 15.0554 17.5094 15 17.7939 15V55ZM43.3184 44.9433C51.9961 36.8471 52.6498 23.0445 44.1572 14.2161L15.3299 41.9467C8.07705 34.407 8.66189 22.5715 16.031 15.6962L43.3184 44.9433ZM44.5466 14.6326C36.2732 5.52611 22.7509 5.51226 14.2828 12.974L40.7275 42.9853C33.5681 49.2939 22.0431 49.3479 14.9406 41.5302L44.5466 14.6326ZM27.5051 27.9796C13.4708 13.7305 13.4712 13.7302 13.4715 13.7298C13.4715 13.7299 13.4715 13.7298 13.4715 13.7298C13.4715 13.7298 13.4715 13.7298 13.4715 13.7298C13.4715 13.7298 13.4715 13.7298 13.4715 13.7298C13.4715 13.7298 13.4715 13.7298 13.4715 13.7298C13.4715 13.7298 13.4715 13.7298 13.4715 13.7298C13.4715 13.7298 13.4715 13.7298 13.4715 13.7298C13.4715 13.7298 13.4715 13.7298 13.4715 13.7298C13.4714 13.7299 13.4716 13.7297 13.4715 13.7298C13.4715 13.7299 13.4715 13.7298 13.4715 13.7298C13.4715 13.7298 13.4715 13.7298 13.4715 13.7298C13.4715 13.7298 13.4715 13.7298 13.4715 13.7298C13.4715 13.7299 13.4715 13.7298 13.4715 13.7299C13.4715 13.7299 13.4715 13.7298 13.4715 13.7299C13.4715 13.7299 13.4715 13.7299 13.4715 13.7299C13.4714 13.7299 13.4715 13.7299 13.4714 13.7299C13.4713 13.7301 13.4714 13.73 13.471 13.7304C13.4706 13.7308 13.4704 13.7309 13.4697 13.7316C13.4567 13.7445 13.4807 13.7208 13.4672 13.7341C13.4528 13.7483 13.4644 13.7369 13.4371 13.7638L41.5043 42.2634C41.5278 42.2403 41.524 42.2441 41.5345 42.2337C41.5378 42.2305 41.5366 42.2316 41.5382 42.23C41.5385 42.2297 41.5381 42.2301 41.5383 42.2299C41.5384 42.2298 41.5383 42.2299 41.5384 42.2299C41.5389 42.2293 41.5378 42.2304 41.5384 42.2298C41.5385 42.2298 41.5384 42.2299 41.5384 42.2298C41.5384 42.2298 41.5384 42.2298 41.5384 42.2298C41.5384 42.2298 41.5384 42.2298 41.5384 42.2298C41.5384 42.2298 41.5384 42.2298 41.5385 42.2298C41.5385 42.2298 41.5385 42.2298 41.5385 42.2298C41.5385 42.2297 41.5385 42.2298 41.5385 42.2297C41.5385 42.2297 41.5385 42.2297 41.5386 42.2297C41.5398 42.2285 41.5376 42.2307 41.5387 42.2295C41.5388 42.2295 41.5388 42.2295 41.5388 42.2295C41.5388 42.2295 41.5388 42.2295 41.5388 42.2295C41.5388 42.2295 41.5388 42.2294 41.5388 42.2295C41.5388 42.2295 41.5388 42.2295 41.5388 42.2295C41.5388 42.2295 41.5388 42.2295 41.5388 42.2295C41.5388 42.2295 41.5388 42.2294 41.5389 42.2294C41.5391 42.2291 41.5395 42.2287 27.5051 27.9796ZM13.827 13.39C14.9152 12.3747 16.2795 11.8459 17.725 11.8459V51.8459C26.4023 51.8459 34.7918 48.5362 41.1144 42.6371L13.827 13.39ZM17.725 11.8459C19.4033 11.8459 20.9525 12.6071 21.9695 13.7405L-7.80168 40.4552C-1.55017 47.422 7.57512 51.8459 17.725 51.8459V11.8459ZM23.9816 37.7969L31.4544 25.9946L-2.34086 4.59649L-9.81372 16.3988L23.9816 37.7969ZM-5.44322 15.2955V20.7558H34.5568V15.2955H-5.44322ZM-5.44322 20.7558C-5.44322 24.5262 -4.71619 29.5377 -1.6331 34.3244C1.69144 39.4859 6.51649 42.4596 11.1342 43.7329L21.7674 5.17212C25.5242 6.20807 29.4023 8.63911 31.995 12.6645C34.3463 16.315 34.5568 19.5968 34.5568 20.7558H-5.44322ZM11.1342 43.7329C15.5507 44.9508 21.0782 44.9772 26.566 42.3892C31.6296 40.0011 34.8735 36.2261 36.874 33.1028L3.19057 11.529C3.77911 10.6101 5.66277 8.02214 9.50391 6.21063C13.7691 4.19913 18.2119 4.19168 21.7674 5.17212L11.1342 43.7329ZM36.984 32.929L41.0821 26.3835L7.17855 5.15724L3.08053 11.7028L36.984 32.929ZM40.6924 26.9818C40.9312 26.6291 41.115 26.3357 41.1766 26.2374C41.2972 26.0448 41.1889 26.2183 41.1179 26.3281C41.0159 26.486 40.7518 26.8902 40.3725 27.3926C39.9891 27.9003 39.3824 28.6506 38.5428 29.4775L10.4755 0.9779C9.56695 1.87265 8.89566 2.6993 8.44992 3.28964C8.00815 3.87473 7.68381 4.36791 7.52149 4.61911C7.39031 4.82212 7.22165 5.0932 7.27992 5.0002C7.28296 4.99534 7.31458 4.94483 7.36005 4.87414C7.40692 4.80127 7.47809 4.69201 7.56822 4.55887L40.6924 26.9818ZM4.50912 15.2277V18.5514H44.5091V15.2277H4.50912ZM4.50912 18.5514C4.50912 26.2041 7.83862 36.0556 17.5711 41.4231L36.8882 6.3967C43.177 9.86496 44.5091 15.7823 44.5091 18.5514H4.50912ZM17.3385 41.2928C25.9504 46.1931 35.6989 45.081 42.7468 40.7982L21.9748 6.61457C25.7856 4.29885 31.6083 3.39028 37.1208 6.52696L17.3385 41.2928ZM43.2042 40.5118C52.0069 34.832 55.716 25.3113 55.2616 16.4731L15.3143 18.5269C15.2321 16.9274 15.4849 14.8152 16.5458 12.5724C17.6296 10.2812 19.3583 8.29414 21.5174 6.90101L43.2042 40.5118Z" fill="#D1D2D7" fill-opacity="0.3" mask="url(#path-1-inside-1_1_10916)"/>
<defs>
<linearGradient id="paint0_linear_1_10916" x1="35.2998" y1="35" x2="13.5191" y2="18.0316" gradientUnits="userSpaceOnUse">
<stop stop-color="#ECAF5A"/>
<stop offset="1" stop-color="#89683D"/>
</linearGradient>
<linearGradient id="paint1_linear_1_10916" x1="35.2998" y1="35" x2="13.5191" y2="18.0316" gradientUnits="userSpaceOnUse">
<stop stop-color="#ECAF5A"/>
<stop offset="1" stop-color="#89683D"/>
</linearGradient>
</defs>
</svg>
