<svg width="60" height="60" viewBox="0 0 60 60" fill="none" xmlns="http://www.w3.org/2000/svg">
<g filter="url(#filter0_d_1_8497)">
<circle cx="30.0001" cy="30" r="3.33333" fill="url(#paint0_radial_1_8497)"/>
</g>
<g filter="url(#filter1_f_1_8497)">
<mask id="mask0_1_8497" style="mask-type:alpha" maskUnits="userSpaceOnUse" x="26" y="26" width="8" height="8">
<path d="M33.31 28.2566C33.3472 28.3078 33.343 28.3652 33.2762 28.4279C33.1898 28.7959 33.0163 29.272 33.1513 29.5865C33.4438 30.2677 32.8374 31.1047 32.652 32.4478C32.4665 33.7909 31.3252 33.2362 28.5788 33.1291C25.8325 33.0221 26.8169 30.6278 26.931 28.9928C27.0223 27.6847 27.8679 27.7924 28.2792 28.0098C28.0462 28.6813 27.6672 30.0595 28.0153 30.1996C28.4504 30.3748 28.7785 31.0658 28.7072 31.4843C28.6359 31.9028 29.1423 31.2897 30.9685 31.7276C32.4294 32.078 32.438 31.1404 32.2596 30.6278C32.7518 30.2969 32.9944 29.5865 32.7162 29.5865C32.4936 29.5865 30.4787 29.3529 29.499 29.2361C29.2327 29.0901 28.8199 28.837 29.2993 28.9928C29.8985 29.1874 30.0911 29.2945 32.2596 28.7981C32.8579 28.6612 33.1606 28.5365 33.2762 28.4279C33.2904 28.3675 33.3022 28.31 33.31 28.2566Z" fill="#F91B3F"/>
<path d="M29.9925 27.1375C29.2221 27.0908 29.4575 26.8326 29.6715 26.7093C29.272 26.4465 27.5671 27.4684 28.466 27.8675C29.3648 28.2665 31.7972 27.8772 31.84 27.8675C31.8828 27.8577 32.8102 27.6728 32.589 27.1375C32.3679 26.6022 31.6546 26.7093 31.5476 26.904C31.4406 27.0986 30.9555 27.1959 29.9925 27.1375Z" fill="#FCFC78"/>
</mask>
<g mask="url(#mask0_1_8497)">
<g filter="url(#filter2_f_1_8497)">
<circle cx="30.0001" cy="30" r="3.33333" fill="url(#paint1_radial_1_8497)"/>
</g>
</g>
</g>
<defs>
<filter id="filter0_d_1_8497" x="0.666748" y="0.666672" width="58.6667" height="58.6667" filterUnits="userSpaceOnUse" color-interpolation-filters="sRGB">
<feFlood flood-opacity="0" result="BackgroundImageFix"/>
<feColorMatrix in="SourceAlpha" type="matrix" values="0 0 0 0 0 0 0 0 0 0 0 0 0 0 0 0 0 0 127 0" result="hardAlpha"/>
<feMorphology radius="2" operator="dilate" in="SourceAlpha" result="effect1_dropShadow_1_8497"/>
<feOffset/>
<feGaussianBlur stdDeviation="12"/>
<feComposite in2="hardAlpha" operator="out"/>
<feColorMatrix type="matrix" values="0 0 0 0 0.952941 0 0 0 0 0.376471 0 0 0 0 0.129412 0 0 0 1 0"/>
<feBlend mode="normal" in2="BackgroundImageFix" result="effect1_dropShadow_1_8497"/>
<feBlend mode="normal" in="SourceGraphic" in2="effect1_dropShadow_1_8497" result="shape"/>
</filter>
<filter id="filter1_f_1_8497" x="6.66675" y="6.66667" width="46.6667" height="46.6667" filterUnits="userSpaceOnUse" color-interpolation-filters="sRGB">
<feFlood flood-opacity="0" result="BackgroundImageFix"/>
<feBlend mode="normal" in="SourceGraphic" in2="BackgroundImageFix" result="shape"/>
<feGaussianBlur stdDeviation="10" result="effect1_foregroundBlur_1_8497"/>
</filter>
<filter id="filter2_f_1_8497" x="22.6667" y="22.6667" width="14.6667" height="14.6667" filterUnits="userSpaceOnUse" color-interpolation-filters="sRGB">
<feFlood flood-opacity="0" result="BackgroundImageFix"/>
<feBlend mode="normal" in="SourceGraphic" in2="BackgroundImageFix" result="shape"/>
<feGaussianBlur stdDeviation="2" result="effect1_foregroundBlur_1_8497"/>
</filter>
<radialGradient id="paint0_radial_1_8497" cx="0" cy="0" r="1" gradientUnits="userSpaceOnUse" gradientTransform="translate(29.83 27.1769) rotate(53.3659) scale(4.95923)">
<stop offset="0.177352" stop-color="white"/>
<stop offset="0.507534" stop-color="#8EFF1D"/>
<stop offset="1" stop-color="#6CEF05"/>
</radialGradient>
<radialGradient id="paint1_radial_1_8497" cx="0" cy="0" r="1" gradientUnits="userSpaceOnUse" gradientTransform="translate(29.762 26.8027) rotate(84.4725) scale(5.29674)">
<stop stop-color="white"/>
<stop offset="0.208685" stop-color="#A8FB81"/>
<stop offset="1" stop-color="#6BF516"/>
</radialGradient>
</defs>
</svg>
