<svg width="25" height="24" viewBox="0 0 25 24" fill="none" xmlns="http://www.w3.org/2000/svg">
<path d="M22.5757 12C22.5757 17.5225 18.0982 22 12.5757 22C7.05318 22 2.57568 17.5225 2.57568 12C2.57568 6.4775 7.05318 2 12.5757 2C18.0982 2 22.5757 6.4775 22.5757 12Z" fill="url(#paint0_linear_1_9174)"/>
<path d="M12.5757 2C7.05318 2 2.57568 6.4775 2.57568 12H12.5757V2Z" fill="url(#paint1_linear_1_9174)"/>
<path d="M11.0757 11C11.3518 11 11.5757 10.7761 11.5757 10.5C11.5757 10.2239 11.3518 10 11.0757 10C10.7995 10 10.5757 10.2239 10.5757 10.5C10.5757 10.7761 10.7995 11 11.0757 11Z" fill="#99F0FF"/>
<path d="M9.07568 11C9.35183 11 9.57568 10.7761 9.57568 10.5C9.57568 10.2239 9.35183 10 9.07568 10C8.79954 10 8.57568 10.2239 8.57568 10.5C8.57568 10.7761 8.79954 11 9.07568 11Z" fill="#99F0FF"/>
<path d="M7.07568 11C7.35183 11 7.57568 10.7761 7.57568 10.5C7.57568 10.2239 7.35183 10 7.07568 10C6.79954 10 6.57568 10.2239 6.57568 10.5C6.57568 10.7761 6.79954 11 7.07568 11Z" fill="#99F0FF"/>
<path d="M5.07568 11C5.35183 11 5.57568 10.7761 5.57568 10.5C5.57568 10.2239 5.35183 10 5.07568 10C4.79954 10 4.57568 10.2239 4.57568 10.5C4.57568 10.7761 4.79954 11 5.07568 11Z" fill="#99F0FF"/>
<path d="M10.0757 9C10.3518 9 10.5757 8.77614 10.5757 8.5C10.5757 8.22386 10.3518 8 10.0757 8C9.79954 8 9.57568 8.22386 9.57568 8.5C9.57568 8.77614 9.79954 9 10.0757 9Z" fill="#99F0FF"/>
<path d="M8.07568 9C8.35183 9 8.57568 8.77614 8.57568 8.5C8.57568 8.22386 8.35183 8 8.07568 8C7.79954 8 7.57568 8.22386 7.57568 8.5C7.57568 8.77614 7.79954 9 8.07568 9Z" fill="#99F0FF"/>
<path d="M6.07568 9C6.35183 9 6.57568 8.77614 6.57568 8.5C6.57568 8.22386 6.35183 8 6.07568 8C5.79954 8 5.57568 8.22386 5.57568 8.5C5.57568 8.77614 5.79954 9 6.07568 9Z" fill="#99F0FF"/>
<path d="M4.07568 9C4.35183 9 4.57568 8.77614 4.57568 8.5C4.57568 8.22386 4.35183 8 4.07568 8C3.79954 8 3.57568 8.22386 3.57568 8.5C3.57568 8.77614 3.79954 9 4.07568 9Z" fill="#99F0FF"/>
<path d="M11.0757 7C11.3518 7 11.5757 6.77614 11.5757 6.5C11.5757 6.22386 11.3518 6 11.0757 6C10.7995 6 10.5757 6.22386 10.5757 6.5C10.5757 6.77614 10.7995 7 11.0757 7Z" fill="#99F0FF"/>
<path d="M9.07568 7C9.35183 7 9.57568 6.77614 9.57568 6.5C9.57568 6.22386 9.35183 6 9.07568 6C8.79954 6 8.57568 6.22386 8.57568 6.5C8.57568 6.77614 8.79954 7 9.07568 7Z" fill="#99F0FF"/>
<path d="M7.07568 7C7.35183 7 7.57568 6.77614 7.57568 6.5C7.57568 6.22386 7.35183 6 7.07568 6C6.79954 6 6.57568 6.22386 6.57568 6.5C6.57568 6.77614 6.79954 7 7.07568 7Z" fill="#99F0FF"/>
<path d="M11.0757 3C11.3518 3 11.5757 2.77614 11.5757 2.5C11.5757 2.22386 11.3518 2 11.0757 2C10.7995 2 10.5757 2.22386 10.5757 2.5C10.5757 2.77614 10.7995 3 11.0757 3Z" fill="#99F0FF"/>
<path d="M9.07572 3.00001C9.35172 3.00001 9.57572 2.77601 9.57572 2.50001C9.57572 2.48651 9.56922 2.47551 9.56822 2.46201C9.26522 2.55751 8.96822 2.66551 8.67822 2.78851C8.76922 2.91351 8.90922 3.00001 9.07572 3.00001Z" fill="#99F0FF"/>
<path d="M5.07568 7C5.35183 7 5.57568 6.77614 5.57568 6.5C5.57568 6.22386 5.35183 6 5.07568 6C4.79954 6 4.57568 6.22386 4.57568 6.5C4.57568 6.77614 4.79954 7 5.07568 7Z" fill="#99F0FF"/>
<path d="M10.0757 5C10.3518 5 10.5757 4.77614 10.5757 4.5C10.5757 4.22386 10.3518 4 10.0757 4C9.79954 4 9.57568 4.22386 9.57568 4.5C9.57568 4.77614 9.79954 5 10.0757 5Z" fill="#99F0FF"/>
<path d="M8.07568 5C8.35183 5 8.57568 4.77614 8.57568 4.5C8.57568 4.22386 8.35183 4 8.07568 4C7.79954 4 7.57568 4.22386 7.57568 4.5C7.57568 4.77614 7.79954 5 8.07568 5Z" fill="#99F0FF"/>
<path d="M6.07564 5C6.35164 5 6.57564 4.776 6.57564 4.5C6.57564 4.355 6.51164 4.227 6.41314 4.1355C6.15514 4.338 5.90764 4.5515 5.67114 4.778C5.76114 4.909 5.90464 5 6.07564 5Z" fill="#99F0FF"/>
<path d="M3.07566 11C3.35166 11 3.57566 10.776 3.57566 10.5C3.57566 10.224 3.35166 10 3.07566 10C2.95316 10 2.84466 10.049 2.75766 10.1225C2.71766 10.333 2.68666 10.547 2.66016 10.762C2.74866 10.9015 2.89766 11 3.07566 11Z" fill="#99F0FF"/>
<path d="M22.5756 12H12.5756V10H22.3746C22.5061 10.6465 22.5756 11.315 22.5756 12ZM6.59411 20H18.5571C19.3166 19.431 19.9911 18.7585 20.5616 18H4.58961C5.16011 18.7585 5.83461 19.431 6.59411 20ZM12.5756 2V4H18.5571C16.8876 2.7495 14.8216 2 12.5756 2ZM20.5616 6H12.5756V8H21.7376C21.4246 7.284 21.0261 6.6165 20.5616 6ZM3.41361 16H21.7381C22.0161 15.3645 22.2336 14.6965 22.3751 14H2.77661C2.91811 14.6965 3.13561 15.3645 3.41361 16Z" fill="url(#paint2_linear_1_9174)"/>
<defs>
<linearGradient id="paint0_linear_1_9174" x1="5.76418" y1="5.1885" x2="19.8642" y2="19.2885" gradientUnits="userSpaceOnUse">
<stop stop-color="#DFE9F2"/>
<stop offset="0.998" stop-color="#9EA7B0"/>
</linearGradient>
<linearGradient id="paint1_linear_1_9174" x1="5.44618" y1="4.8705" x2="19.5392" y2="18.9635" gradientUnits="userSpaceOnUse">
<stop stop-color="#0D61A9"/>
<stop offset="1" stop-color="#16528C"/>
</linearGradient>
<linearGradient id="paint2_linear_1_9174" x1="5.42611" y1="4.9205" x2="19.9256" y2="19.42" gradientUnits="userSpaceOnUse">
<stop stop-color="#DB3542"/>
<stop offset="0.996" stop-color="#BA0B1A"/>
</linearGradient>
</defs>
</svg>
