<svg width="32" height="32" viewBox="0 0 32 32" fill="none" xmlns="http://www.w3.org/2000/svg">
<path fill-rule="evenodd" clip-rule="evenodd" d="M29.505 9.65703L16.5319 2.58079C16.1792 2.38974 15.7546 2.38974 15.402 2.58079L2.42891 9.65703C2.05033 9.86343 1.81445 10.2609 1.81445 10.6925V14.2306C1.81445 14.8828 2.34281 15.41 2.99383 15.41H28.94C29.5911 15.41 30.1194 14.8828 30.1194 14.2306V10.6925C30.1194 10.2609 29.8835 9.86343 29.505 9.65703ZM15.9665 11.872C14.6633 11.872 13.6077 10.8165 13.6077 9.51328C13.6077 8.21007 14.6633 7.15453 15.9665 7.15453C17.2697 7.15453 18.3252 8.21007 18.3252 9.51328C18.3252 10.8165 17.2697 11.872 15.9665 11.872ZM27.7607 27.2039H28.94C29.5911 27.2039 30.1194 27.7311 30.1194 28.3833C30.1194 29.0354 29.5911 29.5626 28.94 29.5626H2.99383C2.34281 29.5626 1.81445 29.0354 1.81445 28.3833C1.81445 27.7311 2.34281 27.2039 2.99383 27.2039H4.1732V17.7689H6.53195V27.2039H11.2494V17.7689H13.6082V27.2039H18.3257V17.7689H20.6844V27.2039H25.4019V17.7689H27.7607V27.2039Z" fill="white"/>
</svg>
