<svg width="32" height="32" viewBox="0 0 32 32" fill="none" xmlns="http://www.w3.org/2000/svg">
<path d="M6.33984 17.1189V20.9261C6.33975 21.2928 6.43365 21.6534 6.61257 21.9735C6.79149 22.2937 7.04947 22.5626 7.36188 22.7546L15.7706 27.9229C15.9172 28.0115 16.0846 28.0597 16.2558 28.0626C16.427 28.0654 16.596 28.0228 16.7454 27.9392C16.8948 27.8555 17.0194 27.7337 17.1064 27.5862C17.1934 27.4386 17.2397 27.2707 17.2407 27.0995V22.9072C17.2403 22.6387 17.1694 22.375 17.0351 22.1425C16.9008 21.91 16.7078 21.7169 16.4754 21.5824L7.58953 16.402C7.46334 16.3283 7.31994 16.2892 7.1738 16.2886C7.02767 16.2881 6.88396 16.3261 6.7572 16.3988C6.63044 16.4715 6.5251 16.5764 6.45182 16.7028C6.37854 16.8292 6.33992 16.9728 6.33984 17.1189Z" fill="url(#paint0_linear_1_11194)"/>
<path d="M10.4038 10.776V16L18.396 20.8074C18.577 20.9161 18.7268 21.0698 18.8308 21.2536C18.9348 21.4374 18.9894 21.6449 18.9894 21.8561V26.6853L21.3095 25.3218V16.6757C21.3096 16.4095 21.2399 16.148 21.1073 15.9172C20.9747 15.6865 20.7839 15.4945 20.5539 15.3606L11.5494 10.1173C11.4335 10.0501 11.302 10.0146 11.1681 10.0143C11.0341 10.0141 10.9025 10.0491 10.7864 10.1159C10.6703 10.1827 10.5738 10.2788 10.5067 10.3947C10.4395 10.5106 10.404 10.6421 10.4038 10.776Z" fill="url(#paint1_linear_1_11194)"/>
<path d="M14.2812 4.6172V9.73705L22.3437 14.559C22.5245 14.6679 22.6742 14.8216 22.7781 15.0054C22.8821 15.1891 22.9368 15.3966 22.937 15.6077V24.3458L24.9254 23.1833C24.9826 23.15 25.0302 23.1023 25.0633 23.0449C25.0964 22.9876 25.114 22.9226 25.1143 22.8563L25.1579 10.5799C25.1577 10.3147 25.088 10.0543 24.9559 9.82438C24.8237 9.59452 24.6337 9.40325 24.4047 9.26962L15.3541 3.99478C15.2447 3.93539 15.1218 3.90513 14.9973 3.9069C14.8727 3.90868 14.7508 3.94244 14.643 4.00493C14.5353 4.06742 14.4455 4.15656 14.3821 4.26378C14.3188 4.37099 14.284 4.4927 14.2812 4.6172Z" fill="url(#paint2_linear_1_11194)"/>
<defs>
<linearGradient id="paint0_linear_1_11194" x1="5.93746" y1="2.41205" x2="25.6849" y2="6.64806" gradientUnits="userSpaceOnUse">
<stop stop-color="#FFE986" stop-opacity="0.88"/>
<stop offset="0.670219" stop-color="#BC7E20"/>
<stop offset="1" stop-color="#A74D01"/>
</linearGradient>
<linearGradient id="paint1_linear_1_11194" x1="10.0012" y1="-9.63356" x2="30.2025" y2="-6.57172" gradientUnits="userSpaceOnUse">
<stop stop-color="#FFE986" stop-opacity="0.88"/>
<stop offset="0.670219" stop-color="#BC7E20"/>
<stop offset="1" stop-color="#A74D01"/>
</linearGradient>
<linearGradient id="paint2_linear_1_11194" x1="13.8798" y1="-20.1819" x2="34.1814" y2="-17.6788" gradientUnits="userSpaceOnUse">
<stop stop-color="#FFE986" stop-opacity="0.88"/>
<stop offset="0.670219" stop-color="#BC7E20"/>
<stop offset="1" stop-color="#A74D01"/>
</linearGradient>
</defs>
</svg>
