<svg width="32" height="32" viewBox="0 0 32 32" fill="none" xmlns="http://www.w3.org/2000/svg">
<path d="M23.6319 6.19146L25.3394 4.60513C25.525 4.42632 25.6339 4.18231 25.643 3.9247C25.652 3.66708 25.5605 3.41604 25.3878 3.22466C25.2127 3.03692 24.9702 2.92636 24.7136 2.91728C24.4571 2.9082 24.2074 3.00133 24.0194 3.17622L22.1546 4.91997C20.3482 3.62105 18.1795 2.92227 15.9546 2.92227C13.7297 2.92227 11.561 3.62105 9.7546 4.91997L7.90186 3.17622C7.71238 3.00119 7.46112 2.9086 7.20337 2.91882C6.94562 2.92904 6.70248 3.04123 6.52745 3.23071C6.35242 3.4202 6.25983 3.67145 6.27005 3.92921C6.28026 4.18696 6.39246 4.4301 6.58194 4.60513L8.28936 6.19146C6.36802 8.16995 5.29485 10.8203 5.29835 13.5782V18.4219C5.29835 21.2481 6.42106 23.9586 8.41949 25.957C10.4179 27.9555 13.1284 29.0782 15.9546 29.0782C18.7808 29.0782 21.4913 27.9555 23.4897 25.957C25.4881 23.9586 26.6108 21.2481 26.6108 18.4219V13.5782C26.6138 10.8227 25.5456 8.174 23.6319 6.19146ZM15.9546 4.85942C18.266 4.86263 20.4818 5.78224 22.1161 7.41663C23.7505 9.05101 24.6701 11.2668 24.6733 13.5782V15.0313H7.23585V13.5782C7.23905 11.2668 8.15866 9.05101 9.79305 7.41663C11.4274 5.78224 13.6432 4.86263 15.9546 4.85942ZM17.8921 11.6407C17.8921 11.3533 17.9773 11.0723 18.137 10.8334C18.2967 10.5944 18.5236 10.4081 18.7891 10.2982C19.0547 10.1882 19.3468 10.1594 19.6287 10.2155C19.9106 10.2715 20.1695 10.4099 20.3727 10.6132C20.576 10.8164 20.7144 11.0753 20.7704 11.3572C20.8265 11.6391 20.7977 11.9312 20.6877 12.1968C20.5778 12.4623 20.3915 12.6892 20.1525 12.8489C19.9136 13.0086 19.6326 13.0938 19.3452 13.0938C18.9598 13.0938 18.5902 12.9407 18.3177 12.6682C18.0452 12.3957 17.8921 12.0261 17.8921 11.6407ZM11.1108 11.6407C11.1108 11.3533 11.1961 11.0723 11.3557 10.8334C11.5154 10.5944 11.7424 10.4081 12.0079 10.2982C12.2734 10.1882 12.5656 10.1594 12.8475 10.2155C13.1293 10.2715 13.3883 10.4099 13.5915 10.6132C13.7947 10.8164 13.9331 11.0753 13.9892 11.3572C14.0452 11.6391 14.0165 11.9312 13.9065 12.1968C13.7965 12.4623 13.6103 12.6892 13.3713 12.8489C13.1323 13.0086 12.8514 13.0938 12.564 13.0938C12.1786 13.0938 11.809 12.9407 11.5365 12.6682C11.2639 12.3957 11.1108 12.0261 11.1108 11.6407Z" fill="url(#paint0_linear_1_11112)"/>
<defs>
<linearGradient id="paint0_linear_1_11112" x1="4.51164" y1="-27.9165" x2="43.5076" y2="-20.5561" gradientUnits="userSpaceOnUse">
<stop stop-color="#FFE986" stop-opacity="0.88"/>
<stop offset="0.670219" stop-color="#BC7E20"/>
<stop offset="1" stop-color="#A74D01"/>
</linearGradient>
</defs>
</svg>
