<svg width="66" height="66" viewBox="0 0 66 66" fill="none" xmlns="http://www.w3.org/2000/svg">
<circle cx="32.5503" cy="32.9336" r="31.66" fill="#001312"/>
<circle cx="32.5503" cy="32.9336" r="31.66" stroke="url(#paint0_linear_1_20299)" stroke-width="1.68"/>
<circle cx="32.5503" cy="32.9336" r="31.66" stroke="#D1D2D7" stroke-opacity="0.2" stroke-width="1.68"/>
<path d="M44.4686 26.3408H20.632C19.604 26.3408 19.5146 27.1732 19.5146 28.203C19.5146 29.2328 19.604 30.0652 20.632 30.0652H44.4686C45.4966 30.0652 45.586 29.2328 45.586 28.203C45.586 27.1732 45.4966 26.3408 44.4686 26.3408ZM44.4686 33.7897H20.632C19.604 33.7897 19.5146 34.6221 19.5146 35.652C19.5146 36.6818 19.604 37.5142 20.632 37.5142H44.4686C45.4966 37.5142 45.586 36.6818 45.586 35.652C45.586 34.6221 45.4966 33.7897 44.4686 33.7897ZM20.632 22.6163H44.4686C45.4966 22.6163 45.586 21.7839 45.586 20.7541C45.586 19.7242 45.4966 18.8918 44.4686 18.8918H20.632C19.604 18.8918 19.5146 19.7242 19.5146 20.7541C19.5146 21.7839 19.604 22.6163 20.632 22.6163Z" fill="url(#paint1_linear_1_20299)"/>
<path d="M44.4686 26.3408H20.632C19.604 26.3408 19.5146 27.1732 19.5146 28.203C19.5146 29.2328 19.604 30.0652 20.632 30.0652H44.4686C45.4966 30.0652 45.586 29.2328 45.586 28.203C45.586 27.1732 45.4966 26.3408 44.4686 26.3408ZM44.4686 33.7897H20.632C19.604 33.7897 19.5146 34.6221 19.5146 35.652C19.5146 36.6818 19.604 37.5142 20.632 37.5142H44.4686C45.4966 37.5142 45.586 36.6818 45.586 35.652C45.586 34.6221 45.4966 33.7897 44.4686 33.7897ZM20.632 22.6163H44.4686C45.4966 22.6163 45.586 21.7839 45.586 20.7541C45.586 19.7242 45.4966 18.8918 44.4686 18.8918H20.632C19.604 18.8918 19.5146 19.7242 19.5146 20.7541C19.5146 21.7839 19.604 22.6163 20.632 22.6163Z" fill="#D1D2D7" fill-opacity="0.2"/>
<path d="M17.9893 52.8206C17.9013 52.8206 17.8293 52.7926 17.7733 52.7366C17.7173 52.6806 17.6893 52.6126 17.6893 52.5326V44.7206C17.6893 44.6326 17.7173 44.5606 17.7733 44.5046C17.8293 44.4486 17.9013 44.4206 17.9893 44.4206H18.9373C19.0493 44.4206 19.1333 44.4526 19.1893 44.5166C19.2453 44.5726 19.2813 44.6166 19.2973 44.6486L21.6133 48.9686L23.9533 44.6486C23.9693 44.6166 24.0053 44.5726 24.0613 44.5166C24.1173 44.4526 24.2013 44.4206 24.3133 44.4206H25.2493C25.3373 44.4206 25.4093 44.4486 25.4653 44.5046C25.5213 44.5606 25.5493 44.6326 25.5493 44.7206V52.5326C25.5493 52.6126 25.5213 52.6806 25.4653 52.7366C25.4093 52.7926 25.3373 52.8206 25.2493 52.8206H24.2413C24.1533 52.8206 24.0813 52.7926 24.0253 52.7366C23.9773 52.6806 23.9533 52.6126 23.9533 52.5326V47.3366L22.2733 50.5406C22.2333 50.6126 22.1813 50.6766 22.1173 50.7326C22.0533 50.7806 21.9693 50.8046 21.8653 50.8046H21.3733C21.2613 50.8046 21.1733 50.7806 21.1093 50.7326C21.0533 50.6766 21.0053 50.6126 20.9653 50.5406L19.2853 47.3366V52.5326C19.2853 52.6126 19.2573 52.6806 19.2013 52.7366C19.1453 52.7926 19.0773 52.8206 18.9973 52.8206H17.9893ZM29.9598 52.9406C29.0718 52.9406 28.3678 52.6846 27.8478 52.1726C27.3278 51.6606 27.0478 50.9326 27.0078 49.9886C26.9998 49.9086 26.9958 49.8086 26.9958 49.6886C26.9958 49.5606 26.9998 49.4606 27.0078 49.3886C27.0398 48.7886 27.1758 48.2686 27.4158 47.8286C27.6638 47.3886 28.0038 47.0526 28.4358 46.8206C28.8678 46.5806 29.3758 46.4606 29.9598 46.4606C30.6078 46.4606 31.1518 46.5966 31.5918 46.8686C32.0318 47.1326 32.3638 47.5046 32.5878 47.9846C32.8118 48.4566 32.9238 49.0046 32.9238 49.6286V49.8806C32.9238 49.9606 32.8958 50.0286 32.8398 50.0846C32.7838 50.1406 32.7118 50.1686 32.6238 50.1686H28.6398C28.6398 50.1686 28.6398 50.1806 28.6398 50.2046C28.6398 50.2286 28.6398 50.2486 28.6398 50.2646C28.6478 50.5446 28.6998 50.8046 28.7958 51.0446C28.8998 51.2766 29.0478 51.4646 29.2398 51.6086C29.4398 51.7526 29.6758 51.8246 29.9478 51.8246C30.1718 51.8246 30.3598 51.7926 30.5118 51.7286C30.6638 51.6566 30.7878 51.5766 30.8838 51.4886C30.9798 51.4006 31.0478 51.3286 31.0878 51.2726C31.1598 51.1766 31.2158 51.1206 31.2558 51.1046C31.3038 51.0806 31.3718 51.0686 31.4598 51.0686H32.4918C32.5718 51.0686 32.6358 51.0926 32.6838 51.1406C32.7398 51.1886 32.7638 51.2486 32.7558 51.3206C32.7478 51.4486 32.6798 51.6046 32.5518 51.7886C32.4318 51.9726 32.2558 52.1526 32.0238 52.3286C31.7918 52.5046 31.4998 52.6526 31.1478 52.7726C30.8038 52.8846 30.4078 52.9406 29.9598 52.9406ZM28.6398 49.1606H31.2918V49.1246C31.2918 48.8126 31.2398 48.5406 31.1358 48.3086C31.0318 48.0766 30.8798 47.8926 30.6798 47.7566C30.4798 47.6206 30.2398 47.5526 29.9598 47.5526C29.6798 47.5526 29.4398 47.6206 29.2398 47.7566C29.0398 47.8926 28.8878 48.0766 28.7838 48.3086C28.6878 48.5406 28.6398 48.8126 28.6398 49.1246V49.1606ZM34.4856 52.8206C34.4056 52.8206 34.3376 52.7926 34.2816 52.7366C34.2256 52.6806 34.1976 52.6126 34.1976 52.5326V46.8686C34.1976 46.7886 34.2256 46.7206 34.2816 46.6646C34.3376 46.6086 34.4056 46.5806 34.4856 46.5806H35.4696C35.5496 46.5806 35.6176 46.6086 35.6736 46.6646C35.7296 46.7206 35.7576 46.7886 35.7576 46.8686V47.3606C35.9656 47.1046 36.2296 46.8926 36.5496 46.7246C36.8776 46.5486 37.2816 46.4606 37.7616 46.4606C38.2496 46.4606 38.6736 46.5726 39.0336 46.7966C39.3936 47.0126 39.6696 47.3206 39.8616 47.7206C40.0616 48.1206 40.1616 48.6006 40.1616 49.1606V52.5326C40.1616 52.6126 40.1336 52.6806 40.0776 52.7366C40.0216 52.7926 39.9536 52.8206 39.8736 52.8206H38.8176C38.7376 52.8206 38.6696 52.7926 38.6136 52.7366C38.5576 52.6806 38.5296 52.6126 38.5296 52.5326V49.2326C38.5296 48.7686 38.4136 48.4046 38.1816 48.1406C37.9576 47.8766 37.6296 47.7446 37.1976 47.7446C36.7816 47.7446 36.4496 47.8766 36.2016 48.1406C35.9536 48.4046 35.8296 48.7686 35.8296 49.2326V52.5326C35.8296 52.6126 35.8016 52.6806 35.7456 52.7366C35.6896 52.7926 35.6216 52.8206 35.5416 52.8206H34.4856ZM44.0019 52.9406C43.5139 52.9406 43.0899 52.8326 42.7299 52.6166C42.3779 52.3926 42.1059 52.0806 41.9139 51.6806C41.7219 51.2726 41.6259 50.7926 41.6259 50.2406V46.8686C41.6259 46.7886 41.6539 46.7206 41.7099 46.6646C41.7659 46.6086 41.8339 46.5806 41.9139 46.5806H42.9699C43.0579 46.5806 43.1259 46.6086 43.1739 46.6646C43.2299 46.7206 43.2579 46.7886 43.2579 46.8686V50.1686C43.2579 51.1606 43.6939 51.6566 44.5659 51.6566C44.9819 51.6566 45.3099 51.5246 45.5499 51.2606C45.7979 50.9966 45.9219 50.6326 45.9219 50.1686V46.8686C45.9219 46.7886 45.9499 46.7206 46.0059 46.6646C46.0619 46.6086 46.1299 46.5806 46.2099 46.5806H47.2659C47.3459 46.5806 47.4139 46.6086 47.4699 46.6646C47.5259 46.7206 47.5539 46.7886 47.5539 46.8686V52.5326C47.5539 52.6126 47.5259 52.6806 47.4699 52.7366C47.4139 52.7926 47.3459 52.8206 47.2659 52.8206H46.2939C46.2059 52.8206 46.1339 52.7926 46.0779 52.7366C46.0299 52.6806 46.0059 52.6126 46.0059 52.5326V52.0406C45.7899 52.3206 45.5219 52.5406 45.2019 52.7006C44.8819 52.8606 44.4819 52.9406 44.0019 52.9406Z" fill="url(#paint2_linear_1_20299)"/>
<path d="M17.9893 52.8206C17.9013 52.8206 17.8293 52.7926 17.7733 52.7366C17.7173 52.6806 17.6893 52.6126 17.6893 52.5326V44.7206C17.6893 44.6326 17.7173 44.5606 17.7733 44.5046C17.8293 44.4486 17.9013 44.4206 17.9893 44.4206H18.9373C19.0493 44.4206 19.1333 44.4526 19.1893 44.5166C19.2453 44.5726 19.2813 44.6166 19.2973 44.6486L21.6133 48.9686L23.9533 44.6486C23.9693 44.6166 24.0053 44.5726 24.0613 44.5166C24.1173 44.4526 24.2013 44.4206 24.3133 44.4206H25.2493C25.3373 44.4206 25.4093 44.4486 25.4653 44.5046C25.5213 44.5606 25.5493 44.6326 25.5493 44.7206V52.5326C25.5493 52.6126 25.5213 52.6806 25.4653 52.7366C25.4093 52.7926 25.3373 52.8206 25.2493 52.8206H24.2413C24.1533 52.8206 24.0813 52.7926 24.0253 52.7366C23.9773 52.6806 23.9533 52.6126 23.9533 52.5326V47.3366L22.2733 50.5406C22.2333 50.6126 22.1813 50.6766 22.1173 50.7326C22.0533 50.7806 21.9693 50.8046 21.8653 50.8046H21.3733C21.2613 50.8046 21.1733 50.7806 21.1093 50.7326C21.0533 50.6766 21.0053 50.6126 20.9653 50.5406L19.2853 47.3366V52.5326C19.2853 52.6126 19.2573 52.6806 19.2013 52.7366C19.1453 52.7926 19.0773 52.8206 18.9973 52.8206H17.9893ZM29.9598 52.9406C29.0718 52.9406 28.3678 52.6846 27.8478 52.1726C27.3278 51.6606 27.0478 50.9326 27.0078 49.9886C26.9998 49.9086 26.9958 49.8086 26.9958 49.6886C26.9958 49.5606 26.9998 49.4606 27.0078 49.3886C27.0398 48.7886 27.1758 48.2686 27.4158 47.8286C27.6638 47.3886 28.0038 47.0526 28.4358 46.8206C28.8678 46.5806 29.3758 46.4606 29.9598 46.4606C30.6078 46.4606 31.1518 46.5966 31.5918 46.8686C32.0318 47.1326 32.3638 47.5046 32.5878 47.9846C32.8118 48.4566 32.9238 49.0046 32.9238 49.6286V49.8806C32.9238 49.9606 32.8958 50.0286 32.8398 50.0846C32.7838 50.1406 32.7118 50.1686 32.6238 50.1686H28.6398C28.6398 50.1686 28.6398 50.1806 28.6398 50.2046C28.6398 50.2286 28.6398 50.2486 28.6398 50.2646C28.6478 50.5446 28.6998 50.8046 28.7958 51.0446C28.8998 51.2766 29.0478 51.4646 29.2398 51.6086C29.4398 51.7526 29.6758 51.8246 29.9478 51.8246C30.1718 51.8246 30.3598 51.7926 30.5118 51.7286C30.6638 51.6566 30.7878 51.5766 30.8838 51.4886C30.9798 51.4006 31.0478 51.3286 31.0878 51.2726C31.1598 51.1766 31.2158 51.1206 31.2558 51.1046C31.3038 51.0806 31.3718 51.0686 31.4598 51.0686H32.4918C32.5718 51.0686 32.6358 51.0926 32.6838 51.1406C32.7398 51.1886 32.7638 51.2486 32.7558 51.3206C32.7478 51.4486 32.6798 51.6046 32.5518 51.7886C32.4318 51.9726 32.2558 52.1526 32.0238 52.3286C31.7918 52.5046 31.4998 52.6526 31.1478 52.7726C30.8038 52.8846 30.4078 52.9406 29.9598 52.9406ZM28.6398 49.1606H31.2918V49.1246C31.2918 48.8126 31.2398 48.5406 31.1358 48.3086C31.0318 48.0766 30.8798 47.8926 30.6798 47.7566C30.4798 47.6206 30.2398 47.5526 29.9598 47.5526C29.6798 47.5526 29.4398 47.6206 29.2398 47.7566C29.0398 47.8926 28.8878 48.0766 28.7838 48.3086C28.6878 48.5406 28.6398 48.8126 28.6398 49.1246V49.1606ZM34.4856 52.8206C34.4056 52.8206 34.3376 52.7926 34.2816 52.7366C34.2256 52.6806 34.1976 52.6126 34.1976 52.5326V46.8686C34.1976 46.7886 34.2256 46.7206 34.2816 46.6646C34.3376 46.6086 34.4056 46.5806 34.4856 46.5806H35.4696C35.5496 46.5806 35.6176 46.6086 35.6736 46.6646C35.7296 46.7206 35.7576 46.7886 35.7576 46.8686V47.3606C35.9656 47.1046 36.2296 46.8926 36.5496 46.7246C36.8776 46.5486 37.2816 46.4606 37.7616 46.4606C38.2496 46.4606 38.6736 46.5726 39.0336 46.7966C39.3936 47.0126 39.6696 47.3206 39.8616 47.7206C40.0616 48.1206 40.1616 48.6006 40.1616 49.1606V52.5326C40.1616 52.6126 40.1336 52.6806 40.0776 52.7366C40.0216 52.7926 39.9536 52.8206 39.8736 52.8206H38.8176C38.7376 52.8206 38.6696 52.7926 38.6136 52.7366C38.5576 52.6806 38.5296 52.6126 38.5296 52.5326V49.2326C38.5296 48.7686 38.4136 48.4046 38.1816 48.1406C37.9576 47.8766 37.6296 47.7446 37.1976 47.7446C36.7816 47.7446 36.4496 47.8766 36.2016 48.1406C35.9536 48.4046 35.8296 48.7686 35.8296 49.2326V52.5326C35.8296 52.6126 35.8016 52.6806 35.7456 52.7366C35.6896 52.7926 35.6216 52.8206 35.5416 52.8206H34.4856ZM44.0019 52.9406C43.5139 52.9406 43.0899 52.8326 42.7299 52.6166C42.3779 52.3926 42.1059 52.0806 41.9139 51.6806C41.7219 51.2726 41.6259 50.7926 41.6259 50.2406V46.8686C41.6259 46.7886 41.6539 46.7206 41.7099 46.6646C41.7659 46.6086 41.8339 46.5806 41.9139 46.5806H42.9699C43.0579 46.5806 43.1259 46.6086 43.1739 46.6646C43.2299 46.7206 43.2579 46.7886 43.2579 46.8686V50.1686C43.2579 51.1606 43.6939 51.6566 44.5659 51.6566C44.9819 51.6566 45.3099 51.5246 45.5499 51.2606C45.7979 50.9966 45.9219 50.6326 45.9219 50.1686V46.8686C45.9219 46.7886 45.9499 46.7206 46.0059 46.6646C46.0619 46.6086 46.1299 46.5806 46.2099 46.5806H47.2659C47.3459 46.5806 47.4139 46.6086 47.4699 46.6646C47.5259 46.7206 47.5539 46.7886 47.5539 46.8686V52.5326C47.5539 52.6126 47.5259 52.6806 47.4699 52.7366C47.4139 52.7926 47.3459 52.8206 47.2659 52.8206H46.2939C46.2059 52.8206 46.1339 52.7926 46.0779 52.7366C46.0299 52.6806 46.0059 52.6126 46.0059 52.5326V52.0406C45.7899 52.3206 45.5219 52.5406 45.2019 52.7006C44.8819 52.8606 44.4819 52.9406 44.0019 52.9406Z" fill="#AEAEAE" fill-opacity="0.25"/>
<defs>
<linearGradient id="paint0_linear_1_20299" x1="65.0503" y1="65.4336" x2="24.6003" y2="33.9209" gradientUnits="userSpaceOnUse">
<stop stop-color="#ECAF5A"/>
<stop offset="1" stop-color="#89683D"/>
</linearGradient>
<linearGradient id="paint1_linear_1_20299" x1="45.586" y1="37.5142" x2="33.6789" y2="24.5275" gradientUnits="userSpaceOnUse">
<stop stop-color="#ECAF5A"/>
<stop offset="1" stop-color="#89683D"/>
</linearGradient>
<linearGradient id="paint2_linear_1_20299" x1="49.8835" y1="55.9872" x2="41.5718" y2="41.1868" gradientUnits="userSpaceOnUse">
<stop stop-color="#ECAF5A"/>
<stop offset="1" stop-color="#89683D"/>
</linearGradient>
</defs>
</svg>
