<svg width="32" height="32" viewBox="0 0 32 32" fill="none" xmlns="http://www.w3.org/2000/svg">
<path d="M27.8219 12.9484C27.3617 12.4762 26.8895 11.9797 26.7078 11.5559C26.5262 11.132 26.5383 10.5023 26.5262 9.86055C26.5141 8.68594 26.4898 7.3418 25.5574 6.40937C24.625 5.47695 23.2809 5.45273 22.1062 5.44062C21.4645 5.42852 20.8105 5.41641 20.4109 5.25898C20.0113 5.10156 19.4906 4.60508 19.0184 4.14492C18.1828 3.3457 17.2262 2.4375 15.9668 2.4375C14.7074 2.4375 13.7508 3.3457 12.9152 4.14492C12.443 4.60508 11.9465 5.07734 11.5227 5.25898C11.0988 5.44062 10.4691 5.42852 9.82734 5.44062C8.65273 5.45273 7.30859 5.47695 6.37617 6.40937C5.44375 7.3418 5.41953 8.68594 5.40742 9.86055C5.39531 10.5023 5.3832 11.1562 5.22578 11.5559C5.06836 11.9555 4.57188 12.4762 4.11172 12.9484C3.3125 13.784 2.4043 14.7406 2.4043 16C2.4043 17.2594 3.3125 18.216 4.11172 19.0516C4.57188 19.5238 5.04414 20.0203 5.22578 20.4441C5.40742 20.868 5.39531 21.4977 5.40742 22.1395C5.41953 23.3141 5.44375 24.6582 6.37617 25.5906C7.30859 26.523 8.65273 26.5473 9.82734 26.5594C10.4691 26.5715 11.123 26.5836 11.5227 26.741C11.9223 26.8984 12.443 27.3949 12.9152 27.8551C13.7508 28.6543 14.7074 29.5625 15.9668 29.5625C17.2262 29.5625 18.1828 28.6543 19.0184 27.8551C19.4906 27.3949 19.9871 26.9227 20.4109 26.741C20.8348 26.5594 21.4645 26.5715 22.1062 26.5594C23.2809 26.5473 24.625 26.523 25.5574 25.5906C26.4898 24.6582 26.5141 23.3141 26.5262 22.1395C26.5383 21.4977 26.5504 20.8438 26.7078 20.4441C26.8652 20.0445 27.3617 19.5238 27.8219 19.0516C28.6211 18.216 29.5293 17.2594 29.5293 16C29.5293 14.7406 28.6211 13.784 27.8219 12.9484ZM21.9609 13.7961L14.8648 20.5773C14.6814 20.7499 14.4386 20.8453 14.1867 20.8438C13.9386 20.8447 13.6998 20.7492 13.5207 20.5773L9.97266 17.1867C9.87425 17.1009 9.79421 16.996 9.73737 16.8784C9.68052 16.7608 9.64803 16.633 9.64186 16.5025C9.63569 16.3721 9.65596 16.2417 9.70145 16.1193C9.74694 15.9969 9.81672 15.8849 9.90658 15.7902C9.99645 15.6954 10.1045 15.6198 10.2244 15.5678C10.3442 15.5159 10.4733 15.4888 10.6039 15.488C10.7345 15.4872 10.8639 15.5129 10.9843 15.5634C11.1048 15.614 11.2137 15.6883 11.3047 15.782L14.1867 18.5309L20.6289 12.3914C20.8173 12.2271 21.0619 12.1419 21.3116 12.1537C21.5613 12.1655 21.7967 12.2734 21.9687 12.4548C22.1407 12.6362 22.236 12.877 22.2345 13.127C22.2331 13.377 22.135 13.6167 21.9609 13.7961Z" fill="white"/>
</svg>
