<svg width="32" height="32" viewBox="0 0 32 32" fill="none" xmlns="http://www.w3.org/2000/svg">
<path d="M20.8105 18.9062C25.0908 18.9062 28.5605 15.4365 28.5605 11.1562C28.5605 6.87604 25.0908 3.40625 20.8105 3.40625C16.5303 3.40625 13.0605 6.87604 13.0605 11.1562C13.0605 15.4365 16.5303 18.9062 20.8105 18.9062Z" stroke="url(#paint0_linear_1_11118)" stroke-width="2" stroke-linecap="round" stroke-linejoin="round"/>
<path d="M26.2958 16.6417L15.3247 5.67061" stroke="url(#paint1_linear_1_11118)" stroke-width="2" stroke-linecap="round" stroke-linejoin="round"/>
<path d="M12.5762 19.3906L11.123 20.8438" stroke="url(#paint2_linear_1_11118)" stroke-width="2" stroke-linecap="round" stroke-linejoin="round"/>
<path d="M13.1574 12.3549L3.86951 25.0213C3.72989 25.2071 3.66273 25.4375 3.68055 25.6692C3.69838 25.901 3.79999 26.1184 3.96638 26.2807L5.68592 28.0002C5.84823 28.1666 6.06558 28.2682 6.29734 28.286C6.52911 28.3039 6.75944 28.2367 6.94529 28.0971L19.6117 18.8092" stroke="url(#paint3_linear_1_11118)" stroke-width="2" stroke-linecap="round" stroke-linejoin="round"/>
<defs>
<linearGradient id="paint0_linear_1_11118" x1="12.4884" y1="-14.8616" x2="40.3631" y2="-8.40323" gradientUnits="userSpaceOnUse">
<stop stop-color="#FFE986" stop-opacity="0.88"/>
<stop offset="0.670219" stop-color="#BC7E20"/>
<stop offset="1" stop-color="#A74D01"/>
</linearGradient>
<linearGradient id="paint1_linear_1_11118" x1="14.9197" y1="-7.25961" x2="34.6498" y2="-2.68829" gradientUnits="userSpaceOnUse">
<stop stop-color="#FFE986" stop-opacity="0.88"/>
<stop offset="0.670219" stop-color="#BC7E20"/>
<stop offset="1" stop-color="#A74D01"/>
</linearGradient>
<linearGradient id="paint2_linear_1_11118" x1="11.0694" y1="17.678" x2="13.6827" y2="18.2835" gradientUnits="userSpaceOnUse">
<stop stop-color="#FFE986" stop-opacity="0.88"/>
<stop offset="0.670219" stop-color="#BC7E20"/>
<stop offset="1" stop-color="#A74D01"/>
</linearGradient>
<linearGradient id="paint3_linear_1_11118" x1="3.08957" y1="-6.42442" x2="31.7447" y2="0.214775" gradientUnits="userSpaceOnUse">
<stop stop-color="#FFE986" stop-opacity="0.88"/>
<stop offset="0.670219" stop-color="#BC7E20"/>
<stop offset="1" stop-color="#A74D01"/>
</linearGradient>
</defs>
</svg>
