<svg width="21" height="21" viewBox="0 0 21 21" fill="none" xmlns="http://www.w3.org/2000/svg">
<path d="M10.9056 18.4226C15.0478 18.4226 18.4056 15.0647 18.4056 10.9226C18.4056 6.78047 15.0478 3.42261 10.9056 3.42261C6.7635 3.42261 3.40564 6.78047 3.40564 10.9226C3.40564 15.0647 6.7635 18.4226 10.9056 18.4226Z" stroke="url(#paint0_linear_1_8474)" stroke-linecap="round" stroke-linejoin="round"/>
<path d="M11.3431 14.9851C11.3431 15.2267 11.1473 15.4226 10.9056 15.4226C10.664 15.4226 10.4681 15.2267 10.4681 14.9851C10.4681 14.7435 10.664 14.5476 10.9056 14.5476C11.1473 14.5476 11.3431 14.7435 11.3431 14.9851Z" fill="url(#paint1_linear_1_8474)" stroke="url(#paint2_linear_1_8474)"/>
<path d="M10.9056 12.1726V11.5476C11.3383 11.5476 11.7612 11.4193 12.1209 11.1789C12.4807 10.9386 12.7611 10.5969 12.9266 10.1972C13.0922 9.79752 13.1355 9.35768 13.0511 8.93335C12.9667 8.50901 12.7584 8.11924 12.4524 7.81331C12.1465 7.50739 11.7567 7.29905 11.3324 7.21464C10.9081 7.13024 10.4682 7.17356 10.0685 7.33912C9.66881 7.50469 9.32717 7.78507 9.0868 8.1448C8.84643 8.50453 8.71814 8.92746 8.71814 9.36011" stroke="url(#paint3_linear_1_8474)" stroke-linecap="round" stroke-linejoin="round"/>
<defs>
<linearGradient id="paint0_linear_1_8474" x1="2.85195" y1="-14.256" x2="29.8275" y2="-8.00592" gradientUnits="userSpaceOnUse">
<stop stop-color="#FFE986" stop-opacity="0.88"/>
<stop offset="0.670219" stop-color="#BC7E20"/>
<stop offset="1" stop-color="#A74D01"/>
</linearGradient>
<linearGradient id="paint1_linear_1_8474" x1="9.89893" y1="11.8378" x2="13.2709" y2="12.619" gradientUnits="userSpaceOnUse">
<stop stop-color="#FFE986" stop-opacity="0.88"/>
<stop offset="0.670219" stop-color="#BC7E20"/>
<stop offset="1" stop-color="#A74D01"/>
</linearGradient>
<linearGradient id="paint2_linear_1_8474" x1="9.89893" y1="11.8378" x2="13.2709" y2="12.619" gradientUnits="userSpaceOnUse">
<stop stop-color="#FFE986" stop-opacity="0.88"/>
<stop offset="0.670219" stop-color="#BC7E20"/>
<stop offset="1" stop-color="#A74D01"/>
</linearGradient>
<linearGradient id="paint3_linear_1_8474" x1="8.55665" y1="1.27975" x2="16.5196" y2="2.89409" gradientUnits="userSpaceOnUse">
<stop stop-color="#FFE986" stop-opacity="0.88"/>
<stop offset="0.670219" stop-color="#BC7E20"/>
<stop offset="1" stop-color="#A74D01"/>
</linearGradient>
</defs>
</svg>
