<svg width="7" height="13" viewBox="0 0 7 13" fill="none" xmlns="http://www.w3.org/2000/svg">
<mask id="path-1-inside-1_350_151" fill="white">
<path d="M0.624334 12.1333C0.472908 12.1313 0.32772 12.0753 0.217272 11.9761C0.10999 11.8724 0.0498047 11.7323 0.0498047 11.5864C0.0498047 11.4405 0.10999 11.3004 0.217272 11.1968L5.5305 6.11754L0.217272 1.03832C0.126168 0.932057 0.0796106 0.79716 0.086655 0.659862C0.0936993 0.522565 0.153842 0.392684 0.255385 0.295483C0.356927 0.198282 0.492609 0.140711 0.636039 0.133968C0.779469 0.127225 0.920391 0.171792 1.0314 0.259L6.74455 5.72788C6.85183 5.83156 6.91201 5.9716 6.91201 6.11754C6.91201 6.26347 6.85183 6.40351 6.74455 6.50719L1.0314 11.9761C0.920948 12.0753 0.77576 12.1313 0.624334 12.1333Z"/>
</mask>
<path d="M0.624334 12.1333C0.472908 12.1313 0.32772 12.0753 0.217272 11.9761C0.10999 11.8724 0.0498047 11.7323 0.0498047 11.5864C0.0498047 11.4405 0.10999 11.3004 0.217272 11.1968L5.5305 6.11754L0.217272 1.03832C0.126168 0.932057 0.0796106 0.79716 0.086655 0.659862C0.0936993 0.522565 0.153842 0.392684 0.255385 0.295483C0.356927 0.198282 0.492609 0.140711 0.636039 0.133968C0.779469 0.127225 0.920391 0.171792 1.0314 0.259L6.74455 5.72788C6.85183 5.83156 6.91201 5.9716 6.91201 6.11754C6.91201 6.26347 6.85183 6.40351 6.74455 6.50719L1.0314 11.9761C0.920948 12.0753 0.77576 12.1313 0.624334 12.1333Z" fill="url(#paint0_linear_350_151)"/>
<path d="M0.624334 12.1333L0.591823 14.6331L0.624334 14.6335L0.656845 14.6331L0.624334 12.1333ZM0.217272 11.9761L-1.52011 13.7737L-1.48716 13.8056L-1.45307 13.8362L0.217272 11.9761ZM0.0498047 11.5864H2.5498H0.0498047ZM0.217272 11.1968L-1.51028 9.38962L-1.52011 9.39912L0.217272 11.1968ZM5.5305 6.11754L7.25803 7.92465L9.1484 6.11754L7.25803 4.31042L5.5305 6.11754ZM0.217272 1.03832L-1.68065 2.66555L-1.59991 2.75972L-1.51025 2.84543L0.217272 1.03832ZM1.0314 0.259L2.76013 -1.54695L2.6719 -1.63142L2.57585 -1.70687L1.0314 0.259ZM6.74455 5.72788L8.48195 3.93022L8.47328 3.92193L6.74455 5.72788ZM6.74455 6.50719L8.4733 8.31317L8.48193 8.30483L6.74455 6.50719ZM1.0314 11.9761L2.70174 13.8362L2.73137 13.8096L2.76013 13.782L1.0314 11.9761ZM0.656845 9.63351C1.09739 9.63924 1.5377 9.80176 1.88762 10.116L-1.45307 13.8362C-0.882263 14.3487 -0.151575 14.6234 0.591823 14.6331L0.656845 9.63351ZM1.95465 10.1784C2.32247 10.5339 2.5498 11.0376 2.5498 11.5864H-2.4502C-2.4502 12.4271 -2.10249 13.2108 -1.52011 13.7737L1.95465 10.1784ZM2.5498 11.5864C2.5498 12.1352 2.32247 12.6389 1.95465 12.9944L-1.52011 9.39912C-2.10249 9.96198 -2.4502 10.7458 -2.4502 11.5864H2.5498ZM1.9448 13.0039L7.25803 7.92465L3.80298 4.31042L-1.51025 9.38964L1.9448 13.0039ZM7.25803 4.31042L1.9448 -0.768799L-1.51025 2.84543L3.80298 7.92465L7.25803 4.31042ZM2.11519 -0.588924C2.43296 -0.218296 2.60983 0.272227 2.58337 0.787962L-2.41006 0.531763C-2.45061 1.32209 -2.18062 2.08241 -1.68065 2.66555L2.11519 -0.588924ZM2.58337 0.787962C2.55694 1.30313 2.33167 1.76875 1.98412 2.10144L-1.47335 -1.51047C-2.02399 -0.983379 -2.36954 -0.258 -2.41006 0.531763L2.58337 0.787962ZM1.98412 2.10144C1.63944 2.43138 1.19873 2.61028 0.753444 2.63121L0.518635 -2.36327C-0.213513 -2.32885 -0.925582 -2.03482 -1.47335 -1.51047L1.98412 2.10144ZM0.753444 2.63121C0.308396 2.65213 -0.143067 2.51555 -0.513059 2.22487L2.57585 -1.70687C1.98385 -2.17197 1.25054 -2.39768 0.518635 -2.36327L0.753444 2.63121ZM-0.697342 2.06495L5.01581 7.53383L8.47328 3.92193L2.76013 -1.54695L-0.697342 2.06495ZM5.00716 7.52552C4.63934 7.17002 4.41201 6.66631 4.41201 6.11754H9.41201C9.41201 5.27689 9.06432 4.49311 8.48193 3.93024L5.00716 7.52552ZM4.41201 6.11754C4.41201 5.56876 4.63934 5.06505 5.00716 4.70955L8.48193 8.30483C9.06432 7.74196 9.41201 6.95818 9.41201 6.11754H4.41201ZM5.01581 4.70124L-0.697342 10.1701L2.76013 13.782L8.47328 8.31315L5.01581 4.70124ZM-0.638948 10.116C-0.289036 9.80176 0.151276 9.63924 0.591823 9.63351L0.656845 14.6331C1.40024 14.6234 2.13093 14.3487 2.70174 13.8362L-0.638948 10.116Z" fill="url(#paint1_linear_350_151)" mask="url(#path-1-inside-1_350_151)"/>
<defs>
<linearGradient id="paint0_linear_350_151" x1="-0.203499" y1="-14.0096" x2="12.5754" y2="-12.3164" gradientUnits="userSpaceOnUse">
<stop stop-color="#FFE986" stop-opacity="0.88"/>
<stop offset="0.670219" stop-color="#BC7E20"/>
<stop offset="1" stop-color="#A74D01"/>
</linearGradient>
<linearGradient id="paint1_linear_350_151" x1="-0.203499" y1="-14.0096" x2="12.5754" y2="-12.3164" gradientUnits="userSpaceOnUse">
<stop stop-color="#FFE986" stop-opacity="0.88"/>
<stop offset="0.670219" stop-color="#BC7E20"/>
<stop offset="1" stop-color="#A74D01"/>
</linearGradient>
</defs>
</svg>
