<svg width="8" height="13" viewBox="0 0 8 13" fill="none" xmlns="http://www.w3.org/2000/svg">
<mask id="path-1-inside-1_1_8389" fill="white">
<path d="M1.26642 12.5C1.115 12.498 0.96981 12.442 0.859362 12.3428C0.752079 12.2391 0.691895 12.099 0.691895 11.9531C0.691895 11.8072 0.752079 11.6671 0.859362 11.5635L6.17259 6.48423L0.859362 1.40501C0.768258 1.29876 0.7217 1.16386 0.728745 1.02656C0.735789 0.889264 0.795932 0.759383 0.897475 0.662182C0.999017 0.564981 1.1347 0.50741 1.27813 0.500667C1.42156 0.493924 1.56248 0.538491 1.67349 0.625699L7.38664 6.09458C7.49392 6.19826 7.5541 6.3383 7.5541 6.48423C7.5541 6.63017 7.49392 6.77021 7.38664 6.87389L1.67349 12.3428C1.56304 12.442 1.41785 12.498 1.26642 12.5Z"/>
</mask>
<path d="M1.26642 12.5C1.115 12.498 0.96981 12.442 0.859362 12.3428C0.752079 12.2391 0.691895 12.099 0.691895 11.9531C0.691895 11.8072 0.752079 11.6671 0.859362 11.5635L6.17259 6.48423L0.859362 1.40501C0.768258 1.29876 0.7217 1.16386 0.728745 1.02656C0.735789 0.889264 0.795932 0.759383 0.897475 0.662182C0.999017 0.564981 1.1347 0.50741 1.27813 0.500667C1.42156 0.493924 1.56248 0.538491 1.67349 0.625699L7.38664 6.09458C7.49392 6.19826 7.5541 6.3383 7.5541 6.48423C7.5541 6.63017 7.49392 6.77021 7.38664 6.87389L1.67349 12.3428C1.56304 12.442 1.41785 12.498 1.26642 12.5Z" fill="url(#paint0_linear_1_8389)"/>
<path d="M1.26642 12.5L1.23391 14.9998L1.26642 15.0002L1.29893 14.9998L1.26642 12.5ZM0.859362 12.3428L-0.87802 14.1404L-0.845073 14.1723L-0.810982 14.2029L0.859362 12.3428ZM0.691895 11.9531H3.19189H0.691895ZM0.859362 11.5635L-0.868188 9.75631L-0.87802 9.76582L0.859362 11.5635ZM6.17259 6.48423L7.90012 8.29135L9.79049 6.48423L7.90012 4.67712L6.17259 6.48423ZM0.859362 1.40501L-1.03856 3.03225L-0.957821 3.12642L-0.868162 3.21213L0.859362 1.40501ZM1.67349 0.625699L3.40222 -1.18025L3.31399 -1.26472L3.21794 -1.34017L1.67349 0.625699ZM7.38664 6.09458L9.12404 4.29692L9.11537 4.28862L7.38664 6.09458ZM7.38664 6.87389L9.11539 8.67987L9.12402 8.67153L7.38664 6.87389ZM1.67349 12.3428L3.34383 14.2029L3.37346 14.1763L3.40222 14.1487L1.67349 12.3428ZM1.29893 10.0002C1.73948 10.0059 2.17979 10.1685 2.52971 10.4827L-0.810982 14.2029C-0.240174 14.7154 0.490514 14.9901 1.23391 14.9998L1.29893 10.0002ZM2.59674 10.5451C2.96456 10.9006 3.19189 11.4043 3.19189 11.9531H-1.80811C-1.80811 12.7938 -1.46041 13.5775 -0.87802 14.1404L2.59674 10.5451ZM3.19189 11.9531C3.19189 12.5019 2.96456 13.0056 2.59674 13.3611L-0.87802 9.76582C-1.46041 10.3287 -1.80811 11.1125 -1.80811 11.9531H3.19189ZM2.58689 13.3706L7.90012 8.29135L4.44507 4.67712L-0.868162 9.75634L2.58689 13.3706ZM7.90012 4.67712L2.58689 -0.4021L-0.868162 3.21213L4.44507 8.29135L7.90012 4.67712ZM2.75728 -0.222225C3.07505 0.148403 3.25192 0.638926 3.22546 1.15466L-1.76797 0.898462C-1.80852 1.68879 -1.53853 2.44911 -1.03856 3.03225L2.75728 -0.222225ZM3.22546 1.15466C3.19903 1.66983 2.97376 2.13545 2.62621 2.46814L-0.831263 -1.14377C-1.3819 -0.61668 -1.72745 0.108699 -1.76797 0.898462L3.22546 1.15466ZM2.62621 2.46814C2.28153 2.79808 1.84082 2.97697 1.39553 2.99791L1.16072 -1.99657C0.428576 -1.96215 -0.283492 -1.66812 -0.831263 -1.14377L2.62621 2.46814ZM1.39553 2.99791C0.950486 3.01883 0.499023 2.88225 0.129031 2.59157L3.21794 -1.34017C2.62594 -1.80527 1.89263 -2.03098 1.16072 -1.99657L1.39553 2.99791ZM-0.0552521 2.43165L5.6579 7.90053L9.11537 4.28862L3.40222 -1.18025L-0.0552521 2.43165ZM5.64925 7.89222C5.28143 7.53672 5.0541 7.03301 5.0541 6.48423H10.0541C10.0541 5.64359 9.70641 4.85981 9.12402 4.29694L5.64925 7.89222ZM5.0541 6.48423C5.0541 5.93546 5.28143 5.43175 5.64925 5.07625L9.12402 8.67153C9.70641 8.10866 10.0541 7.32488 10.0541 6.48423H5.0541ZM5.6579 5.06794L-0.0552521 10.5368L3.40222 14.1487L9.11537 8.67984L5.6579 5.06794ZM0.00314158 10.4827C0.353054 10.1685 0.793366 10.0059 1.23391 10.0002L1.29893 14.9998C2.04233 14.9901 2.77302 14.7154 3.34383 14.2029L0.00314158 10.4827Z" fill="white" mask="url(#path-1-inside-1_1_8389)"/>
<defs>
<linearGradient id="paint0_linear_1_8389" x1="0.991016" y1="0.914815" x2="10.9188" y2="7.09488" gradientUnits="userSpaceOnUse">
<stop stop-color="#343434" stop-opacity="0.5"/>
<stop offset="1" stop-color="#3D3D3D" stop-opacity="0.2"/>
</linearGradient>
</defs>
</svg>
