<svg width="25" height="26" viewBox="0 0 25 26" fill="none" xmlns="http://www.w3.org/2000/svg">
<path d="M23.3052 3.85188C23.3052 5.0247 19.9274 5.96295 15.7522 5.96295C11.5769 5.96295 8.19922 5.0247 8.19922 3.85188C8.19922 2.67906 11.5769 1.7408 15.7522 1.7408C19.9274 1.7408 23.3052 2.67906 23.3052 3.85188Z" stroke="white" stroke-width="1.7" stroke-miterlimit="10" stroke-linecap="round"/>
<path d="M23.3051 7.6049C23.3051 8.77772 19.9274 9.71598 15.7522 9.71598C14.9547 9.71598 14.2041 9.66907 13.4535 9.62216C13.3596 9.62216 8.85599 9.0592 8.80908 9.01229" stroke="white" stroke-width="1.7" stroke-miterlimit="10" stroke-linecap="round"/>
<path d="M23.3051 11.6866C23.3051 12.8125 20.115 13.7507 16.1274 13.7976" stroke="white" stroke-width="1.7" stroke-miterlimit="10" stroke-linecap="round"/>
<path d="M23.305 15.7676C23.305 16.8935 20.1619 17.7849 16.2212 17.8787" stroke="white" stroke-width="1.7" stroke-miterlimit="10" stroke-linecap="round"/>
<path d="M8.19922 4.50853V9.29364" stroke="white" stroke-width="1.7" stroke-miterlimit="10" stroke-linecap="round"/>
<path d="M23.3047 4.50853V15.7207" stroke="white" stroke-width="1.7" stroke-miterlimit="10" stroke-linecap="round"/>
<path d="M16.0335 16.8001C16.0335 20.9284 12.7027 24.2592 8.57434 24.2592C4.49292 24.2592 1.16211 20.9284 1.16211 16.8001C1.16211 12.6717 4.49292 9.34093 8.62125 9.34093C12.7027 9.38784 16.0335 12.7187 16.0335 16.8001Z" stroke="white" stroke-width="1.7" stroke-miterlimit="10" stroke-linecap="round"/>
<mask id="path-8-inside-1_1_11181" fill="white">
<path d="M8.19919 21.6318V20.459C7.54241 20.459 6.83872 20.2244 6.4165 19.943L6.69798 19.1455C7.1202 19.4269 7.73006 19.6615 8.38684 19.6615C9.23127 19.6615 9.79423 19.1924 9.79423 18.5356C9.79423 17.8788 9.3251 17.5035 8.48067 17.1282C7.26094 16.6591 6.55724 16.143 6.55724 15.1109C6.55724 14.1258 7.26093 13.4221 8.33993 13.2344V12.0616H9.04362V13.1875C9.74731 13.1875 10.2164 13.3752 10.5448 13.6097L10.2634 14.3603C10.0288 14.2196 9.55966 13.985 8.80906 13.985C7.91771 13.985 7.58932 14.5011 7.58932 14.9702C7.58932 15.5801 8.01154 15.8616 9.04362 16.2838C10.2634 16.7998 10.8732 17.3628 10.8732 18.4418C10.8732 19.38 10.2164 20.2244 9.04362 20.4121V21.6318H8.19919Z"/>
</mask>
<path d="M8.19919 21.6318H6.49919V23.3318H8.19919V21.6318ZM8.19919 20.459H9.89919V18.759H8.19919V20.459ZM6.4165 19.943L4.81342 19.3772L4.37336 20.624L5.47351 21.3575L6.4165 19.943ZM6.69798 19.1455L7.64097 17.731L5.82235 16.5185L5.0949 18.5797L6.69798 19.1455ZM8.48067 17.1282L9.1711 15.5747L9.13144 15.5571L9.09093 15.5415L8.48067 17.1282ZM8.33993 13.2344L8.63121 14.9093L10.0399 14.6643V13.2344H8.33993ZM8.33993 12.0616V10.3616H6.63993V12.0616H8.33993ZM9.04362 12.0616H10.7436V10.3616H9.04362V12.0616ZM9.04362 13.1875H7.34362V14.8875H9.04362V13.1875ZM10.5448 13.6097L12.1366 14.2066L12.5948 12.9848L11.5329 12.2264L10.5448 13.6097ZM10.2634 14.3603L9.38871 15.8181L11.1386 16.868L11.8551 14.9573L10.2634 14.3603ZM9.04362 16.2838L9.70601 14.7181L9.69668 14.7142L9.6873 14.7103L9.04362 16.2838ZM9.04362 20.4121L8.77504 18.7334L7.34362 18.9625V20.4121H9.04362ZM9.04362 21.6318V23.3318H10.7436V21.6318H9.04362ZM9.89919 21.6318V20.459H6.49919V21.6318H9.89919ZM8.19919 18.759C8.06375 18.759 7.89019 18.7331 7.7112 18.6791C7.52756 18.6237 7.40527 18.559 7.35949 18.5285L5.47351 21.3575C6.17658 21.8262 7.20872 22.159 8.19919 22.159V18.759ZM8.01959 20.5088L8.30106 19.7112L5.0949 18.5797L4.81342 19.3772L8.01959 20.5088ZM5.75499 20.5599C6.41235 20.9982 7.34508 21.3615 8.38684 21.3615V17.9615C8.11505 17.9615 7.82804 17.8557 7.64097 17.731L5.75499 20.5599ZM8.38684 21.3615C9.11286 21.3615 9.86746 21.1595 10.4768 20.6661C11.111 20.1528 11.4942 19.3908 11.4942 18.5356H8.09423C8.09423 18.4523 8.11321 18.3506 8.1628 18.2481C8.21191 18.1467 8.27755 18.0721 8.33756 18.0235C8.45435 17.929 8.50526 17.9615 8.38684 17.9615V21.3615ZM11.4942 18.5356C11.4942 17.7269 11.1764 17.0444 10.6562 16.5243C10.2053 16.0733 9.64073 15.7834 9.1711 15.5747L7.79023 18.6817C7.96282 18.7584 8.08187 18.8201 8.16366 18.8695C8.24591 18.9191 8.2644 18.9408 8.25203 18.9284C8.23448 18.9109 8.18561 18.8554 8.14519 18.761C8.10376 18.6644 8.09423 18.5806 8.09423 18.5356H11.4942ZM9.09093 15.5415C8.82751 15.4402 8.63116 15.3511 8.48411 15.2703C8.33709 15.1895 8.26826 15.1327 8.24159 15.1069C8.22155 15.0876 8.23678 15.0975 8.25174 15.1328C8.26637 15.1674 8.25724 15.171 8.25724 15.1109H4.85724C4.85724 16.0853 5.21855 16.9151 5.88153 17.5544C6.46425 18.1163 7.21045 18.4611 7.8704 18.7149L9.09093 15.5415ZM8.25724 15.1109C8.25724 15.0893 8.25915 15.0755 8.26048 15.0684C8.26117 15.0647 8.26181 15.0623 8.2622 15.0609C8.2626 15.0595 8.26284 15.0589 8.26285 15.0589C8.26286 15.0589 8.26276 15.0591 8.26256 15.0595C8.26236 15.0599 8.26223 15.0601 8.26225 15.0601C8.26227 15.06 8.26262 15.0595 8.26345 15.0585C8.26429 15.0574 8.26577 15.0557 8.2681 15.0532C8.28338 15.0374 8.37761 14.9534 8.63121 14.9093L8.04865 11.5596C6.36034 11.8532 4.85724 13.1073 4.85724 15.1109H8.25724ZM10.0399 13.2344V12.0616H6.63993V13.2344H10.0399ZM8.33993 13.7616H9.04362V10.3616H8.33993V13.7616ZM7.34362 12.0616V13.1875H10.7436V12.0616H7.34362ZM9.04362 14.8875C9.24266 14.8875 9.36482 14.9138 9.4323 14.9347C9.4975 14.9548 9.53395 14.9768 9.55673 14.9931L11.5329 12.2264C10.8972 11.7723 10.0776 11.4875 9.04362 11.4875V14.8875ZM8.95307 13.0128L8.6716 13.7634L11.8551 14.9573L12.1366 14.2066L8.95307 13.0128ZM11.138 12.9026C10.7184 12.6509 9.94864 12.285 8.80906 12.285V15.685C9.00303 15.685 9.13486 15.7147 9.21591 15.7404C9.29675 15.766 9.35038 15.7951 9.38871 15.8181L11.138 12.9026ZM8.80906 12.285C8.03034 12.285 7.26252 12.5178 6.68149 13.0813C6.11054 13.6349 5.88932 14.346 5.88932 14.9702H9.28932C9.28932 15.1253 9.23231 15.3438 9.04839 15.5221C8.85438 15.7103 8.69643 15.685 8.80906 15.685V12.285ZM5.88932 14.9702C5.88932 15.7875 6.22441 16.4792 6.82844 16.9927C7.2954 17.3896 7.89939 17.6524 8.39995 17.8572L9.6873 14.7103C9.4466 14.6119 9.27979 14.537 9.16037 14.4754C9.0382 14.4123 9.01243 14.3867 9.03044 14.4021C9.05877 14.4261 9.1428 14.5071 9.21047 14.6513C9.27897 14.7974 9.28932 14.9199 9.28932 14.9702H5.88932ZM8.38123 17.8494C8.91651 18.0759 9.09681 18.2271 9.15006 18.2865C9.15932 18.2968 9.16147 18.3009 9.16044 18.2992C9.15926 18.2973 9.15848 18.2953 9.15866 18.2958C9.15897 18.2967 9.16234 18.3061 9.16579 18.3278C9.16934 18.3501 9.17322 18.3869 9.17322 18.4418H12.5732C12.5732 17.5361 12.2994 16.7059 11.6816 16.0168C11.125 15.396 10.3905 15.0077 9.70601 14.7181L8.38123 17.8494ZM9.17322 18.4418C9.17322 18.5073 9.15332 18.5499 9.12413 18.5829C9.09769 18.6129 9.00875 18.6961 8.77504 18.7334L9.31221 22.0907C11.2579 21.7794 12.5732 20.2667 12.5732 18.4418H9.17322ZM7.34362 20.4121V21.6318H10.7436V20.4121H7.34362ZM9.04362 19.9318H8.19919V23.3318H9.04362V19.9318Z" fill="white" mask="url(#path-8-inside-1_1_11181)"/>
</svg>
