<svg width="33" height="32" viewBox="0 0 33 32" fill="none" xmlns="http://www.w3.org/2000/svg">
<path d="M8.40845 18H24.1084C24.5759 18.0014 25.0289 17.838 25.3878 17.5385C25.7468 17.2391 25.9886 16.8227 26.0709 16.3625L27.5959 8H6.59595" stroke="url(#paint0_linear_1_8558)" stroke-width="1.5" stroke-linecap="round" stroke-linejoin="round"/>
<path d="M8.40845 18H24.1084C24.5759 18.0014 25.0289 17.838 25.3878 17.5385C25.7468 17.2391 25.9886 16.8227 26.0709 16.3625L27.5959 8H6.59595" stroke="#D1D2D7" stroke-opacity="0.3" stroke-width="1.5" stroke-linecap="round" stroke-linejoin="round"/>
<path d="M23.5959 28C24.9767 28 26.0959 26.8807 26.0959 25.5C26.0959 24.1193 24.9767 23 23.5959 23C22.2152 23 21.0959 24.1193 21.0959 25.5C21.0959 26.8807 22.2152 28 23.5959 28Z" stroke="#D5B690" stroke-width="1.3" stroke-linecap="round" stroke-linejoin="round"/>
<path d="M10.5959 28C11.9767 28 13.0959 26.8807 13.0959 25.5C13.0959 24.1193 11.9767 23 10.5959 23C9.21524 23 8.09595 24.1193 8.09595 25.5C8.09595 26.8807 9.21524 28 10.5959 28Z" stroke="url(#paint1_linear_1_8558)" stroke-width="1.3" stroke-linecap="round" stroke-linejoin="round"/>
<path d="M10.5959 28C11.9767 28 13.0959 26.8807 13.0959 25.5C13.0959 24.1193 11.9767 23 10.5959 23C9.21524 23 8.09595 24.1193 8.09595 25.5C8.09595 26.8807 9.21524 28 10.5959 28Z" stroke="#D1D2D7" stroke-opacity="0.5" stroke-width="1.3" stroke-linecap="round" stroke-linejoin="round"/>
<path d="M23.5959 23H9.32095L5.83345 3.825C5.79264 3.59537 5.67286 3.38722 5.49481 3.23657C5.31677 3.08592 5.09167 3.00223 4.85845 3H2.59595" stroke="url(#paint2_linear_1_8558)" stroke-width="1.5" stroke-linecap="round" stroke-linejoin="round"/>
<path d="M23.5959 23H9.32095L5.83345 3.825C5.79264 3.59537 5.67286 3.38722 5.49481 3.23657C5.31677 3.08592 5.09167 3.00223 4.85845 3H2.59595" stroke="#AEAEAE" stroke-opacity="0.5" stroke-width="1.5" stroke-linecap="round" stroke-linejoin="round"/>
<defs>
<linearGradient id="paint0_linear_1_8558" x1="27.5959" y1="18" x2="21.884" y2="8.65527" gradientUnits="userSpaceOnUse">
<stop stop-color="#ECAF5A"/>
<stop offset="1" stop-color="#89683D"/>
</linearGradient>
<linearGradient id="paint1_linear_1_8558" x1="13.0959" y1="28" x2="9.98441" y2="25.5759" gradientUnits="userSpaceOnUse">
<stop stop-color="#ECAF5A"/>
<stop offset="1" stop-color="#89683D"/>
</linearGradient>
<linearGradient id="paint2_linear_1_8558" x1="23.5959" y1="23" x2="11.0146" y2="12.7084" gradientUnits="userSpaceOnUse">
<stop stop-color="#ECAF5A"/>
<stop offset="1" stop-color="#89683D"/>
</linearGradient>
</defs>
</svg>
