<svg width="41" height="41" viewBox="0 0 41 41" fill="none" xmlns="http://www.w3.org/2000/svg">
<path d="M34.8222 20.5C34.8222 28.2443 28.5441 34.5224 20.7998 34.5224M34.8222 20.5C34.8222 12.7556 28.5441 6.47754 20.7998 6.47754M34.8222 20.5H6.77734M20.7998 34.5224C13.0554 34.5224 6.77734 28.2443 6.77734 20.5M20.7998 34.5224C24.3072 30.6826 26.3004 25.6994 26.4087 20.5C26.3004 15.3005 24.3072 10.3174 20.7998 6.47754M20.7998 34.5224C17.2924 30.6826 15.2991 25.6994 15.1908 20.5C15.2991 15.3005 17.2924 10.3174 20.7998 6.47754M6.77734 20.5C6.77734 12.7556 13.0554 6.47754 20.7998 6.47754" stroke="url(#paint0_linear_1_10920)" stroke-width="2" stroke-linecap="round" stroke-linejoin="round"/>
<path d="M34.8222 20.5C34.8222 28.2443 28.5441 34.5224 20.7998 34.5224M34.8222 20.5C34.8222 12.7556 28.5441 6.47754 20.7998 6.47754M34.8222 20.5H6.77734M20.7998 34.5224C13.0554 34.5224 6.77734 28.2443 6.77734 20.5M20.7998 34.5224C24.3072 30.6826 26.3004 25.6994 26.4087 20.5C26.3004 15.3005 24.3072 10.3174 20.7998 6.47754M20.7998 34.5224C17.2924 30.6826 15.2991 25.6994 15.1908 20.5C15.2991 15.3005 17.2924 10.3174 20.7998 6.47754M6.77734 20.5C6.77734 12.7556 13.0554 6.47754 20.7998 6.47754" stroke="#D1D2D7" stroke-opacity="0.3" stroke-width="2" stroke-linecap="round" stroke-linejoin="round"/>
<path d="M20.7998 38C30.4648 38 38.2998 30.165 38.2998 20.5C38.2998 10.835 30.4648 3 20.7998 3C11.1348 3 3.2998 10.835 3.2998 20.5C3.2998 30.165 11.1348 38 20.7998 38Z" stroke="url(#paint1_linear_1_10920)" stroke-width="1.5" stroke-linecap="round" stroke-linejoin="round"/>
<path d="M20.7998 38C30.4648 38 38.2998 30.165 38.2998 20.5C38.2998 10.835 30.4648 3 20.7998 3C11.1348 3 3.2998 10.835 3.2998 20.5C3.2998 30.165 11.1348 38 20.7998 38Z" stroke="#D1D2D7" stroke-opacity="0.2" stroke-width="1.5" stroke-linecap="round" stroke-linejoin="round"/>
<defs>
<linearGradient id="paint0_linear_1_10920" x1="34.8222" y1="34.5224" x2="17.3697" y2="20.926" gradientUnits="userSpaceOnUse">
<stop stop-color="#ECAF5A"/>
<stop offset="1" stop-color="#89683D"/>
</linearGradient>
<linearGradient id="paint1_linear_1_10920" x1="38.2998" y1="38" x2="16.5191" y2="21.0316" gradientUnits="userSpaceOnUse">
<stop stop-color="#ECAF5A"/>
<stop offset="1" stop-color="#89683D"/>
</linearGradient>
</defs>
</svg>
