<svg width="36" height="37" viewBox="0 0 36 37" fill="none" xmlns="http://www.w3.org/2000/svg">
<path d="M21.8233 29.6641L21.9213 29.6331L22.2756 29.5211C22.2756 29.5211 22.2757 29.5211 22.2757 29.5211C23.5027 29.1331 24.6613 28.5501 25.7081 27.7939L25.7083 27.7937C26.7455 27.0457 27.6617 26.1386 28.4237 25.1048C29.7782 23.2645 30.6011 21.0785 30.8003 18.791C30.9994 16.5035 30.5668 14.2051 29.5511 12.1527C28.5354 10.1004 26.9767 8.37514 25.0497 7.16938C23.1228 5.96367 20.9033 5.32475 18.6391 5.32364L21.8233 29.6641ZM21.8233 29.6641L21.7649 29.7486M21.8233 29.6641L21.7649 29.7486M21.7649 29.7486L21.552 30.0568L18.8331 33.9918C18.8102 34.0249 18.78 34.0516 18.7455 34.0698C18.7109 34.0881 18.6727 34.0975 18.6342 34.0975C18.5956 34.0975 18.5575 34.0881 18.5229 34.0698C18.4883 34.0516 18.4582 34.0249 18.4353 33.9918L18.1885 34.1624M21.7649 29.7486L18.1885 34.1624M18.1885 34.1624L18.4353 33.9918L15.7164 30.0568L15.5035 29.7486L15.4451 29.6641M18.1885 34.1624L15.4451 29.6641M15.4451 29.6641L15.3471 29.6331M15.4451 29.6641L15.3471 29.6331M15.3471 29.6331L14.993 29.5212M15.3471 29.6331L14.993 29.5212M14.993 29.5212C14.9929 29.5212 14.9929 29.5211 14.9928 29.5211M14.993 29.5212L14.9928 29.5211M14.9928 29.5211C12.2073 28.6379 9.82505 26.7728 8.27842 24.2626C6.73171 21.7522 6.12329 18.7631 6.56393 15.8368C7.00457 12.9106 8.46492 10.2419 10.6794 8.3136C12.8938 6.38545 15.7158 5.32508 18.6342 5.32364C18.6343 5.32364 18.6343 5.32364 18.6344 5.32364H18.639L14.9928 29.5211ZM18.6397 3.62117H18.6396H18.6342C10.9724 3.62117 4.73269 9.94826 4.73271 17.702C4.73273 23.9774 8.78614 29.2962 14.3894 31.1141L17.0503 34.9651C17.2281 35.2224 17.4647 35.4329 17.7405 35.5784C18.0163 35.7239 18.3228 35.7999 18.6342 35.7999C18.9455 35.7999 19.2521 35.7239 19.5279 35.5784C19.8036 35.4329 20.0403 35.2224 20.2181 34.9651L22.8789 31.1141C28.4822 29.2962 32.5357 23.9774 32.5357 17.702C32.5357 9.93095 26.3184 3.62419 18.6397 3.62117Z" fill="url(#paint0_linear_1_8527)"/>
<path d="M21.8233 29.6641L21.9213 29.6331L22.2756 29.5211C22.2756 29.5211 22.2757 29.5211 22.2757 29.5211C23.5027 29.1331 24.6613 28.5501 25.7081 27.7939L25.7083 27.7937C26.7455 27.0457 27.6617 26.1386 28.4237 25.1048C29.7782 23.2645 30.6011 21.0785 30.8003 18.791C30.9994 16.5035 30.5668 14.2051 29.5511 12.1527C28.5354 10.1004 26.9767 8.37514 25.0497 7.16938C23.1228 5.96367 20.9033 5.32475 18.6391 5.32364L21.8233 29.6641ZM21.8233 29.6641L21.7649 29.7486M21.8233 29.6641L21.7649 29.7486M21.7649 29.7486L21.552 30.0568L18.8331 33.9918C18.8102 34.0249 18.78 34.0516 18.7455 34.0698C18.7109 34.0881 18.6727 34.0975 18.6342 34.0975C18.5956 34.0975 18.5575 34.0881 18.5229 34.0698C18.4883 34.0516 18.4582 34.0249 18.4353 33.9918L18.1885 34.1624M21.7649 29.7486L18.1885 34.1624M18.1885 34.1624L18.4353 33.9918L15.7164 30.0568L15.5035 29.7486L15.4451 29.6641M18.1885 34.1624L15.4451 29.6641M15.4451 29.6641L15.3471 29.6331M15.4451 29.6641L15.3471 29.6331M15.3471 29.6331L14.993 29.5212M15.3471 29.6331L14.993 29.5212M14.993 29.5212C14.9929 29.5212 14.9929 29.5211 14.9928 29.5211M14.993 29.5212L14.9928 29.5211M14.9928 29.5211C12.2073 28.6379 9.82505 26.7728 8.27842 24.2626C6.73171 21.7522 6.12329 18.7631 6.56393 15.8368C7.00457 12.9106 8.46492 10.2419 10.6794 8.3136C12.8938 6.38545 15.7158 5.32508 18.6342 5.32364C18.6343 5.32364 18.6343 5.32364 18.6344 5.32364H18.639L14.9928 29.5211ZM18.6397 3.62117H18.6396H18.6342C10.9724 3.62117 4.73269 9.94826 4.73271 17.702C4.73273 23.9774 8.78614 29.2962 14.3894 31.1141L17.0503 34.9651C17.2281 35.2224 17.4647 35.4329 17.7405 35.5784C18.0163 35.7239 18.3228 35.7999 18.6342 35.7999C18.9455 35.7999 19.2521 35.7239 19.5279 35.5784C19.8036 35.4329 20.0403 35.2224 20.2181 34.9651L22.8789 31.1141C28.4822 29.2962 32.5357 23.9774 32.5357 17.702C32.5357 9.93095 26.3184 3.62419 18.6397 3.62117Z" fill="#D1D2D7" fill-opacity="0.3"/>
<path d="M21.8233 29.6641L21.9213 29.6331L22.2756 29.5211C22.2756 29.5211 22.2757 29.5211 22.2757 29.5211C23.5027 29.1331 24.6613 28.5501 25.7081 27.7939L25.7083 27.7937C26.7455 27.0457 27.6617 26.1386 28.4237 25.1048C29.7782 23.2645 30.6011 21.0785 30.8003 18.791C30.9994 16.5035 30.5668 14.2051 29.5511 12.1527C28.5354 10.1004 26.9767 8.37514 25.0497 7.16938C23.1228 5.96367 20.9033 5.32475 18.6391 5.32364L21.8233 29.6641ZM21.8233 29.6641L21.7649 29.7486M21.8233 29.6641L21.7649 29.7486M21.7649 29.7486L21.552 30.0568L18.8331 33.9918C18.8102 34.0249 18.78 34.0516 18.7455 34.0698C18.7109 34.0881 18.6727 34.0975 18.6342 34.0975C18.5956 34.0975 18.5575 34.0881 18.5229 34.0698C18.4883 34.0516 18.4582 34.0249 18.4353 33.9918L18.1885 34.1624M21.7649 29.7486L18.1885 34.1624M18.1885 34.1624L18.4353 33.9918L15.7164 30.0568L15.5035 29.7486L15.4451 29.6641M18.1885 34.1624L15.4451 29.6641M15.4451 29.6641L15.3471 29.6331M15.4451 29.6641L15.3471 29.6331M15.3471 29.6331L14.993 29.5212M15.3471 29.6331L14.993 29.5212M14.993 29.5212C14.9929 29.5212 14.9929 29.5211 14.9928 29.5211M14.993 29.5212L14.9928 29.5211M14.9928 29.5211C12.2073 28.6379 9.82505 26.7728 8.27842 24.2626C6.73171 21.7522 6.12329 18.7631 6.56393 15.8368C7.00457 12.9106 8.46492 10.2419 10.6794 8.3136C12.8938 6.38545 15.7158 5.32508 18.6342 5.32364C18.6343 5.32364 18.6343 5.32364 18.6344 5.32364H18.639L14.9928 29.5211ZM18.6397 3.62117H18.6396H18.6342C10.9724 3.62117 4.73269 9.94826 4.73271 17.702C4.73273 23.9774 8.78614 29.2962 14.3894 31.1141L17.0503 34.9651C17.2281 35.2224 17.4647 35.4329 17.7405 35.5784C18.0163 35.7239 18.3228 35.7999 18.6342 35.7999C18.9455 35.7999 19.2521 35.7239 19.5279 35.5784C19.8036 35.4329 20.0403 35.2224 20.2181 34.9651L22.8789 31.1141C28.4822 29.2962 32.5357 23.9774 32.5357 17.702C32.5357 9.93095 26.3184 3.62419 18.6397 3.62117Z" stroke="url(#paint1_linear_1_8527)" stroke-width="0.6"/>
<path d="M21.8233 29.6641L21.9213 29.6331L22.2756 29.5211C22.2756 29.5211 22.2757 29.5211 22.2757 29.5211C23.5027 29.1331 24.6613 28.5501 25.7081 27.7939L25.7083 27.7937C26.7455 27.0457 27.6617 26.1386 28.4237 25.1048C29.7782 23.2645 30.6011 21.0785 30.8003 18.791C30.9994 16.5035 30.5668 14.2051 29.5511 12.1527C28.5354 10.1004 26.9767 8.37514 25.0497 7.16938C23.1228 5.96367 20.9033 5.32475 18.6391 5.32364L21.8233 29.6641ZM21.8233 29.6641L21.7649 29.7486M21.8233 29.6641L21.7649 29.7486M21.7649 29.7486L21.552 30.0568L18.8331 33.9918C18.8102 34.0249 18.78 34.0516 18.7455 34.0698C18.7109 34.0881 18.6727 34.0975 18.6342 34.0975C18.5956 34.0975 18.5575 34.0881 18.5229 34.0698C18.4883 34.0516 18.4582 34.0249 18.4353 33.9918L18.1885 34.1624M21.7649 29.7486L18.1885 34.1624M18.1885 34.1624L18.4353 33.9918L15.7164 30.0568L15.5035 29.7486L15.4451 29.6641M18.1885 34.1624L15.4451 29.6641M15.4451 29.6641L15.3471 29.6331M15.4451 29.6641L15.3471 29.6331M15.3471 29.6331L14.993 29.5212M15.3471 29.6331L14.993 29.5212M14.993 29.5212C14.9929 29.5212 14.9929 29.5211 14.9928 29.5211M14.993 29.5212L14.9928 29.5211M14.9928 29.5211C12.2073 28.6379 9.82505 26.7728 8.27842 24.2626C6.73171 21.7522 6.12329 18.7631 6.56393 15.8368C7.00457 12.9106 8.46492 10.2419 10.6794 8.3136C12.8938 6.38545 15.7158 5.32508 18.6342 5.32364C18.6343 5.32364 18.6343 5.32364 18.6344 5.32364H18.639L14.9928 29.5211ZM18.6397 3.62117H18.6396H18.6342C10.9724 3.62117 4.73269 9.94826 4.73271 17.702C4.73273 23.9774 8.78614 29.2962 14.3894 31.1141L17.0503 34.9651C17.2281 35.2224 17.4647 35.4329 17.7405 35.5784C18.0163 35.7239 18.3228 35.7999 18.6342 35.7999C18.9455 35.7999 19.2521 35.7239 19.5279 35.5784C19.8036 35.4329 20.0403 35.2224 20.2181 34.9651L22.8789 31.1141C28.4822 29.2962 32.5357 23.9774 32.5357 17.702C32.5357 9.93095 26.3184 3.62419 18.6397 3.62117Z" stroke="#D1D2D7" stroke-opacity="0.3" stroke-width="0.6"/>
<path d="M26.0043 31.5613L25.8741 31.6322L25.9435 31.7632L26.4577 32.7348L26.5903 32.6646L26.662 32.7963C28.1359 31.994 29.4853 30.9765 30.667 29.7767C33.8803 26.5209 35.65 22.1918 35.65 17.5882C35.65 12.9847 33.8803 8.65551 30.6669 5.39963L30.5601 5.505L30.6669 5.39963C27.4533 2.14377 23.1796 0.35 18.6342 0.35C14.0887 0.35 9.81501 2.14377 6.60148 5.39963C3.388 8.65545 1.61831 12.9846 1.61831 17.5882C1.61783 18.8432 1.75121 20.0946 2.01609 21.3206L2.04842 21.4702L2.19735 21.4348L3.15581 21.2073L3.29894 21.1734L3.26776 21.0296C3.24492 20.9243 3.24469 20.8134 3.24673 20.6845C3.24685 20.6765 3.24699 20.6683 3.24713 20.6601C3.24911 20.5424 3.25136 20.4088 3.2291 20.2758C3.08076 19.3878 3.00628 18.4888 3.00644 17.5883C3.00644 13.3574 4.63228 9.38098 7.58442 6.38996L7.48582 6.29264L7.58442 6.38996C10.5364 3.39898 14.4602 1.75247 18.6342 1.75247C22.8081 1.75247 26.7319 3.39898 29.6839 6.38996L29.7907 6.28459L29.6839 6.38996C32.6361 9.38101 34.2619 13.3575 34.2619 17.5882C34.2619 21.8191 32.6361 25.7955 29.6839 28.7865L29.6838 28.7866C28.598 29.8892 27.3583 30.8241 26.0043 31.5613Z" fill="url(#paint2_linear_1_8527)"/>
<path d="M26.0043 31.5613L25.8741 31.6322L25.9435 31.7632L26.4577 32.7348L26.5903 32.6646L26.662 32.7963C28.1359 31.994 29.4853 30.9765 30.667 29.7767C33.8803 26.5209 35.65 22.1918 35.65 17.5882C35.65 12.9847 33.8803 8.65551 30.6669 5.39963L30.5601 5.505L30.6669 5.39963C27.4533 2.14377 23.1796 0.35 18.6342 0.35C14.0887 0.35 9.81501 2.14377 6.60148 5.39963C3.388 8.65545 1.61831 12.9846 1.61831 17.5882C1.61783 18.8432 1.75121 20.0946 2.01609 21.3206L2.04842 21.4702L2.19735 21.4348L3.15581 21.2073L3.29894 21.1734L3.26776 21.0296C3.24492 20.9243 3.24469 20.8134 3.24673 20.6845C3.24685 20.6765 3.24699 20.6683 3.24713 20.6601C3.24911 20.5424 3.25136 20.4088 3.2291 20.2758C3.08076 19.3878 3.00628 18.4888 3.00644 17.5883C3.00644 13.3574 4.63228 9.38098 7.58442 6.38996L7.48582 6.29264L7.58442 6.38996C10.5364 3.39898 14.4602 1.75247 18.6342 1.75247C22.8081 1.75247 26.7319 3.39898 29.6839 6.38996L29.7907 6.28459L29.6839 6.38996C32.6361 9.38101 34.2619 13.3575 34.2619 17.5882C34.2619 21.8191 32.6361 25.7955 29.6839 28.7865L29.6838 28.7866C28.598 29.8892 27.3583 30.8241 26.0043 31.5613Z" fill="#D1D2D7" fill-opacity="0.2"/>
<path d="M26.0043 31.5613L25.8741 31.6322L25.9435 31.7632L26.4577 32.7348L26.5903 32.6646L26.662 32.7963C28.1359 31.994 29.4853 30.9765 30.667 29.7767C33.8803 26.5209 35.65 22.1918 35.65 17.5882C35.65 12.9847 33.8803 8.65551 30.6669 5.39963L30.5601 5.505L30.6669 5.39963C27.4533 2.14377 23.1796 0.35 18.6342 0.35C14.0887 0.35 9.81501 2.14377 6.60148 5.39963C3.388 8.65545 1.61831 12.9846 1.61831 17.5882C1.61783 18.8432 1.75121 20.0946 2.01609 21.3206L2.04842 21.4702L2.19735 21.4348L3.15581 21.2073L3.29894 21.1734L3.26776 21.0296C3.24492 20.9243 3.24469 20.8134 3.24673 20.6845C3.24685 20.6765 3.24699 20.6683 3.24713 20.6601C3.24911 20.5424 3.25136 20.4088 3.2291 20.2758C3.08076 19.3878 3.00628 18.4888 3.00644 17.5883C3.00644 13.3574 4.63228 9.38098 7.58442 6.38996L7.48582 6.29264L7.58442 6.38996C10.5364 3.39898 14.4602 1.75247 18.6342 1.75247C22.8081 1.75247 26.7319 3.39898 29.6839 6.38996L29.7907 6.28459L29.6839 6.38996C32.6361 9.38101 34.2619 13.3575 34.2619 17.5882C34.2619 21.8191 32.6361 25.7955 29.6839 28.7865L29.6838 28.7866C28.598 29.8892 27.3583 30.8241 26.0043 31.5613Z" stroke="url(#paint3_linear_1_8527)" stroke-width="0.3"/>
<path d="M26.0043 31.5613L25.8741 31.6322L25.9435 31.7632L26.4577 32.7348L26.5903 32.6646L26.662 32.7963C28.1359 31.994 29.4853 30.9765 30.667 29.7767C33.8803 26.5209 35.65 22.1918 35.65 17.5882C35.65 12.9847 33.8803 8.65551 30.6669 5.39963L30.5601 5.505L30.6669 5.39963C27.4533 2.14377 23.1796 0.35 18.6342 0.35C14.0887 0.35 9.81501 2.14377 6.60148 5.39963C3.388 8.65545 1.61831 12.9846 1.61831 17.5882C1.61783 18.8432 1.75121 20.0946 2.01609 21.3206L2.04842 21.4702L2.19735 21.4348L3.15581 21.2073L3.29894 21.1734L3.26776 21.0296C3.24492 20.9243 3.24469 20.8134 3.24673 20.6845C3.24685 20.6765 3.24699 20.6683 3.24713 20.6601C3.24911 20.5424 3.25136 20.4088 3.2291 20.2758C3.08076 19.3878 3.00628 18.4888 3.00644 17.5883C3.00644 13.3574 4.63228 9.38098 7.58442 6.38996L7.48582 6.29264L7.58442 6.38996C10.5364 3.39898 14.4602 1.75247 18.6342 1.75247C22.8081 1.75247 26.7319 3.39898 29.6839 6.38996L29.7907 6.28459L29.6839 6.38996C32.6361 9.38101 34.2619 13.3575 34.2619 17.5882C34.2619 21.8191 32.6361 25.7955 29.6839 28.7865L29.6838 28.7866C28.598 29.8892 27.3583 30.8241 26.0043 31.5613Z" stroke="#D1D2D7" stroke-opacity="0.3" stroke-width="0.3"/>
<path d="M26.942 33.6783C28.137 32.8767 28.7323 31.6554 28.2716 30.9505C27.811 30.2456 26.4689 30.3241 25.2739 31.1257C24.0789 31.9274 23.4836 33.1486 23.9443 33.8535C24.4049 34.5584 25.747 34.48 26.942 33.6783Z" fill="url(#paint4_linear_1_8527)"/>
<path d="M11.993 19.8654H14.073C14.2803 19.8654 14.4383 19.9084 14.5472 19.9946C14.6002 20.0356 14.6427 20.0889 14.6712 20.15C14.6996 20.2112 14.7131 20.2783 14.7106 20.3458C14.712 20.4076 14.7012 20.469 14.679 20.5265C14.6568 20.584 14.6235 20.6365 14.5811 20.6809C14.4947 20.7725 14.3639 20.8182 14.1886 20.8182H11.2558C11.0565 20.8182 10.9011 20.7623 10.7896 20.6506C10.7364 20.6002 10.6941 20.5393 10.6653 20.4715C10.6365 20.4038 10.6218 20.3308 10.6222 20.257C10.6222 20.1601 10.6581 20.0316 10.7298 19.8714C10.7874 19.7335 10.8668 19.606 10.9649 19.4939C11.3181 19.1225 11.6369 18.8042 11.9212 18.5391C12.2055 18.274 12.4087 18.0998 12.5309 18.0163C12.7275 17.8786 12.9098 17.721 13.0749 17.5459C13.2097 17.4031 13.3213 17.2396 13.4055 17.0614C13.4781 16.9097 13.5169 16.7436 13.5192 16.5749C13.5217 16.4124 13.4796 16.2524 13.3976 16.1127C13.3181 15.9783 13.2037 15.8686 13.0669 15.7957C12.9265 15.7202 12.7696 15.6813 12.6106 15.6827C12.2626 15.6827 11.9889 15.8374 11.7897 16.147C11.7632 16.1874 11.7187 16.2977 11.6563 16.478C11.6097 16.6278 11.5382 16.7684 11.445 16.8939C11.3667 16.9908 11.2518 17.0392 11.1004 17.0392C11.0392 17.0411 10.9783 17.0302 10.9214 17.0073C10.8645 16.9844 10.8129 16.9499 10.7696 16.906C10.682 16.8172 10.6381 16.6961 10.6381 16.5426C10.6411 16.3425 10.6831 16.1449 10.7617 15.9613C10.8469 15.755 10.9723 15.5683 11.1303 15.4122C11.3087 15.2383 11.5202 15.1029 11.7519 15.0145C12.0029 14.9136 12.2971 14.8631 12.6345 14.8631C13.041 14.8631 13.3877 14.9277 13.6746 15.0569C13.8591 15.1421 14.0255 15.2627 14.1647 15.4122C14.4507 15.7206 14.6102 16.1276 14.611 16.5507C14.6145 16.8714 14.5297 17.1867 14.3659 17.4611C14.2025 17.7344 14.0358 17.9483 13.8658 18.1031C13.6958 18.2579 13.4109 18.5008 13.0111 18.8318C12.6113 19.1629 12.3369 19.4199 12.1882 19.603C12.117 19.6856 12.0518 19.7733 11.993 19.8654V19.8654Z" fill="#D5B690"/>
<path d="M11.993 19.8654H14.073C14.2803 19.8654 14.4383 19.9084 14.5472 19.9946C14.6002 20.0356 14.6427 20.0889 14.6712 20.15C14.6996 20.2112 14.7131 20.2783 14.7106 20.3458C14.712 20.4076 14.7012 20.469 14.679 20.5265C14.6568 20.584 14.6235 20.6365 14.5811 20.6809C14.4947 20.7725 14.3639 20.8182 14.1886 20.8182H11.2558C11.0565 20.8182 10.9011 20.7623 10.7896 20.6506C10.7364 20.6002 10.6941 20.5393 10.6653 20.4715C10.6365 20.4038 10.6218 20.3308 10.6222 20.257C10.6222 20.1601 10.6581 20.0316 10.7298 19.8714C10.7874 19.7335 10.8668 19.606 10.9649 19.4939C11.3181 19.1225 11.6369 18.8042 11.9212 18.5391C12.2055 18.274 12.4087 18.0998 12.5309 18.0163C12.7275 17.8786 12.9098 17.721 13.0749 17.5459C13.2097 17.4031 13.3213 17.2396 13.4055 17.0614C13.4781 16.9097 13.5169 16.7436 13.5192 16.5749C13.5217 16.4124 13.4796 16.2524 13.3976 16.1127C13.3181 15.9783 13.2037 15.8686 13.0669 15.7957C12.9265 15.7202 12.7696 15.6813 12.6106 15.6827C12.2626 15.6827 11.9889 15.8374 11.7897 16.147C11.7632 16.1874 11.7187 16.2977 11.6563 16.478C11.6097 16.6278 11.5382 16.7684 11.445 16.8939C11.3667 16.9908 11.2518 17.0392 11.1004 17.0392C11.0392 17.0411 10.9783 17.0302 10.9214 17.0073C10.8645 16.9844 10.8129 16.9499 10.7696 16.906C10.682 16.8172 10.6381 16.6961 10.6381 16.5426C10.6411 16.3425 10.6831 16.1449 10.7617 15.9613C10.8469 15.755 10.9723 15.5683 11.1303 15.4122C11.3087 15.2383 11.5202 15.1029 11.7519 15.0145C12.0029 14.9136 12.2971 14.8631 12.6345 14.8631C13.041 14.8631 13.3877 14.9277 13.6746 15.0569C13.8591 15.1421 14.0255 15.2627 14.1647 15.4122C14.4507 15.7206 14.6102 16.1276 14.611 16.5507C14.6145 16.8714 14.5297 17.1867 14.3659 17.4611C14.2025 17.7344 14.0358 17.9483 13.8658 18.1031C13.6958 18.2579 13.4109 18.5008 13.0111 18.8318C12.6113 19.1629 12.3369 19.4199 12.1882 19.603C12.117 19.6856 12.0518 19.7733 11.993 19.8654V19.8654Z" fill="#D9BA66" fill-opacity="0.2"/>
<path d="M17.8783 20.1919V19.4409H15.878C15.6255 19.4409 15.4363 19.3831 15.3102 19.2673C15.1839 19.1516 15.1208 18.9942 15.1208 18.795C15.1212 18.7419 15.1306 18.6893 15.1487 18.6395C15.1702 18.5812 15.1983 18.5257 15.2324 18.474C15.2696 18.4161 15.3081 18.3603 15.348 18.3064C15.3878 18.2526 15.437 18.1867 15.4954 18.1086L17.6074 15.2461C17.7096 15.1003 17.8236 14.9632 17.9481 14.8363C18.0342 14.7527 18.1496 14.7069 18.2689 14.7092C18.6727 14.7092 18.8745 14.9433 18.8745 15.4117V18.5366H19.0459C19.2504 18.5366 19.4145 18.5648 19.538 18.6214C19.6616 18.6779 19.7233 18.8017 19.7233 18.9928C19.7233 19.1489 19.6728 19.2626 19.5719 19.3339C19.4709 19.4053 19.3195 19.441 19.1176 19.4409H18.8745V20.1919C18.8745 20.3992 18.8294 20.5533 18.7391 20.6542C18.6916 20.7025 18.6351 20.7408 18.5728 20.7668C18.5106 20.7927 18.4439 20.8059 18.3766 20.8056C18.3093 20.8052 18.2427 20.7912 18.1808 20.7646C18.1188 20.7379 18.0628 20.699 18.0158 20.6501C17.9242 20.5465 17.8784 20.3938 17.8783 20.1919ZM16.1649 18.5366H17.8783V16.1909L16.1649 18.5366Z" fill="#D5B690"/>
<path d="M17.8783 20.1919V19.4409H15.878C15.6255 19.4409 15.4363 19.3831 15.3102 19.2673C15.1839 19.1516 15.1208 18.9942 15.1208 18.795C15.1212 18.7419 15.1306 18.6893 15.1487 18.6395C15.1702 18.5812 15.1983 18.5257 15.2324 18.474C15.2696 18.4161 15.3081 18.3603 15.348 18.3064C15.3878 18.2526 15.437 18.1867 15.4954 18.1086L17.6074 15.2461C17.7096 15.1003 17.8236 14.9632 17.9481 14.8363C18.0342 14.7527 18.1496 14.7069 18.2689 14.7092C18.6727 14.7092 18.8745 14.9433 18.8745 15.4117V18.5366H19.0459C19.2504 18.5366 19.4145 18.5648 19.538 18.6214C19.6616 18.6779 19.7233 18.8017 19.7233 18.9928C19.7233 19.1489 19.6728 19.2626 19.5719 19.3339C19.4709 19.4053 19.3195 19.441 19.1176 19.4409H18.8745V20.1919C18.8745 20.3992 18.8294 20.5533 18.7391 20.6542C18.6916 20.7025 18.6351 20.7408 18.5728 20.7668C18.5106 20.7927 18.4439 20.8059 18.3766 20.8056C18.3093 20.8052 18.2427 20.7912 18.1808 20.7646C18.1188 20.7379 18.0628 20.699 18.0158 20.6501C17.9242 20.5465 17.8784 20.3938 17.8783 20.1919ZM16.1649 18.5366H17.8783V16.1909L16.1649 18.5366Z" fill="#D9BA66" fill-opacity="0.2"/>
<path d="M21.9749 15.5045L20.8592 20.1596C20.8219 20.313 20.7894 20.4341 20.7615 20.523C20.7391 20.603 20.6949 20.6751 20.634 20.7309C20.5769 20.7806 20.4939 20.8055 20.385 20.8056C20.114 20.8056 19.9785 20.6871 19.9785 20.4503C19.9785 20.3884 20.0051 20.2336 20.0582 19.986L21.17 15.3309C21.2284 15.0833 21.2842 14.9137 21.3373 14.8222C21.3905 14.7307 21.4941 14.685 21.6482 14.6849C21.781 14.6849 21.8826 14.7172 21.953 14.7818C21.9887 14.8158 22.0166 14.8573 22.0348 14.9033C22.053 14.9493 22.0611 14.9988 22.0586 15.0483C22.0586 15.1318 22.0307 15.2838 21.9749 15.5045Z" fill="#D5B690"/>
<path d="M21.9749 15.5045L20.8592 20.1596C20.8219 20.313 20.7894 20.4341 20.7615 20.523C20.7391 20.603 20.6949 20.6751 20.634 20.7309C20.5769 20.7806 20.4939 20.8055 20.385 20.8056C20.114 20.8056 19.9785 20.6871 19.9785 20.4503C19.9785 20.3884 20.0051 20.2336 20.0582 19.986L21.17 15.3309C21.2284 15.0833 21.2842 14.9137 21.3373 14.8222C21.3905 14.7307 21.4941 14.685 21.6482 14.6849C21.781 14.6849 21.8826 14.7172 21.953 14.7818C21.9887 14.8158 22.0166 14.8573 22.0348 14.9033C22.053 14.9493 22.0611 14.9988 22.0586 15.0483C22.0586 15.1318 22.0307 15.2838 21.9749 15.5045Z" fill="#D9BA66" fill-opacity="0.2"/>
<path d="M23.433 14.8426H26.0869C26.342 14.8426 26.5266 14.883 26.6408 14.9637C26.755 15.0445 26.8121 15.1777 26.8122 15.3634C26.8122 15.4765 26.7451 15.6258 26.611 15.8116C26.4767 15.9973 26.324 16.2025 26.1526 16.4273C25.9555 16.6926 25.7783 16.9727 25.6227 17.265C25.4173 17.6554 25.2498 18.0651 25.1226 18.4883C25.0686 18.6622 25.0234 18.8387 24.9871 19.0172C24.9606 19.1572 24.9313 19.3389 24.8995 19.5623C24.8676 19.7857 24.8397 19.9566 24.8158 20.075C24.76 20.3495 24.681 20.54 24.5787 20.6463C24.4764 20.7526 24.3402 20.8057 24.1702 20.8058C24.0966 20.8086 24.0233 20.7946 23.9557 20.7649C23.8881 20.7352 23.828 20.6906 23.7797 20.6342C23.6814 20.5198 23.6323 20.3509 23.6323 20.1275C23.6323 19.9553 23.6682 19.7211 23.7399 19.425C23.8332 19.0628 23.9503 18.7074 24.0905 18.3611C24.4576 17.4372 24.9541 16.5717 25.5649 15.7914H23.433C23.2099 15.7914 23.0432 15.7503 22.9329 15.6682C22.8227 15.5862 22.7676 15.4576 22.7676 15.2827C22.7676 15.0969 22.826 14.9772 22.9429 14.9233C23.0598 14.8695 23.2232 14.8426 23.433 14.8426Z" fill="#D5B690"/>
<path d="M23.433 14.8426H26.0869C26.342 14.8426 26.5266 14.883 26.6408 14.9637C26.755 15.0445 26.8121 15.1777 26.8122 15.3634C26.8122 15.4765 26.7451 15.6258 26.611 15.8116C26.4767 15.9973 26.324 16.2025 26.1526 16.4273C25.9555 16.6926 25.7783 16.9727 25.6227 17.265C25.4173 17.6554 25.2498 18.0651 25.1226 18.4883C25.0686 18.6622 25.0234 18.8387 24.9871 19.0172C24.9606 19.1572 24.9313 19.3389 24.8995 19.5623C24.8676 19.7857 24.8397 19.9566 24.8158 20.075C24.76 20.3495 24.681 20.54 24.5787 20.6463C24.4764 20.7526 24.3402 20.8057 24.1702 20.8058C24.0966 20.8086 24.0233 20.7946 23.9557 20.7649C23.8881 20.7352 23.828 20.6906 23.7797 20.6342C23.6814 20.5198 23.6323 20.3509 23.6323 20.1275C23.6323 19.9553 23.6682 19.7211 23.7399 19.425C23.8332 19.0628 23.9503 18.7074 24.0905 18.3611C24.4576 17.4372 24.9541 16.5717 25.5649 15.7914H23.433C23.2099 15.7914 23.0432 15.7503 22.9329 15.6682C22.8227 15.5862 22.7676 15.4576 22.7676 15.2827C22.7676 15.0969 22.826 14.9772 22.9429 14.9233C23.0598 14.8695 23.2232 14.8426 23.433 14.8426Z" fill="#D9BA66" fill-opacity="0.2"/>
<path d="M0.5 17.3448C0.5 19.9585 1.42944 22.0773 2.57597 22.0773C3.04503 22.0773 3.47775 21.7227 3.82536 21.1246C4.32743 20.2608 3.54575 18.8892 3.54575 17.3448C3.54575 15.8046 4.32922 14.4363 3.82951 13.5721C3.4812 12.9697 3.04689 12.6122 2.57597 12.6122C1.42944 12.6122 0.5 14.731 0.5 17.3448Z" fill="url(#paint5_linear_1_8527)"/>
<defs>
<linearGradient id="paint0_linear_1_8527" x1="32.2357" y1="35.4999" x2="13.4799" y2="22.9129" gradientUnits="userSpaceOnUse">
<stop stop-color="#ECAF5A"/>
<stop offset="1" stop-color="#89683D"/>
</linearGradient>
<linearGradient id="paint1_linear_1_8527" x1="32.2357" y1="35.4999" x2="13.4799" y2="22.9129" gradientUnits="userSpaceOnUse">
<stop stop-color="#ECAF5A"/>
<stop offset="1" stop-color="#89683D"/>
</linearGradient>
<linearGradient id="paint2_linear_1_8527" x1="35.5" y1="32.6646" x2="15.2712" y2="16.1374" gradientUnits="userSpaceOnUse">
<stop stop-color="#ECAF5A"/>
<stop offset="1" stop-color="#89683D"/>
</linearGradient>
<linearGradient id="paint3_linear_1_8527" x1="35.5" y1="32.6646" x2="15.2712" y2="16.1374" gradientUnits="userSpaceOnUse">
<stop stop-color="#ECAF5A"/>
<stop offset="1" stop-color="#89683D"/>
</linearGradient>
<linearGradient id="paint4_linear_1_8527" x1="23.9443" y1="33.8535" x2="28.306" y2="31.0031" gradientUnits="userSpaceOnUse">
<stop stop-color="#967A53"/>
<stop offset="1" stop-color="#E9D39F"/>
</linearGradient>
<linearGradient id="paint5_linear_1_8527" x1="0.499999" y1="17.3447" x2="3.99615" y2="17.3447" gradientUnits="userSpaceOnUse">
<stop stop-color="#967A53"/>
<stop offset="1" stop-color="#E9D39F"/>
</linearGradient>
</defs>
</svg>
