<svg width="32" height="32" viewBox="0 0 32 32" fill="none" xmlns="http://www.w3.org/2000/svg">
<path d="M30.7878 14.3525L24.3028 7.84029L24.291 7.82847L24.2653 7.80591C24.2234 7.76782 24.1794 7.73196 24.1337 7.69848C24.1017 7.6727 24.0696 7.64799 24.0353 7.62543C24.0203 7.61469 24.0054 7.6061 23.9893 7.59643C23.6196 7.35327 23.1724 7.25861 22.7364 7.33125C22.3004 7.40389 21.9075 7.63851 21.6358 7.98854L11.5499 18.1178V9.09396C11.5499 8.61958 11.3622 8.16462 11.0282 7.82918C10.6941 7.49375 10.2411 7.3053 9.76869 7.3053C9.29629 7.3053 8.84323 7.49375 8.5092 7.82918C8.17516 8.16462 7.9875 8.61958 7.9875 9.09396V18.1178L4.3053 14.4202C3.96873 14.0979 3.51997 13.9206 3.05494 13.9261C2.5899 13.9317 2.14547 14.1197 1.81662 14.4499C1.48777 14.7801 1.30058 15.2264 1.29505 15.6934C1.28952 16.1604 1.46609 16.611 1.78703 16.949L8.50955 23.6997C8.5518 23.7427 8.59645 23.7832 8.64328 23.8211C8.68821 23.8576 8.73528 23.8931 8.78235 23.9285C9.02524 24.0866 9.30284 24.1828 9.5911 24.2089H9.59859C9.65636 24.2143 9.71413 24.2175 9.7719 24.2175H9.79864C9.84714 24.2175 9.89528 24.2154 9.94306 24.2111H9.97837C10.0244 24.2057 10.0704 24.2003 10.1153 24.1907H10.1356C10.1859 24.1799 10.2362 24.1681 10.2854 24.1531H10.294C10.3477 24.1368 10.4005 24.1178 10.4523 24.0961C10.5261 24.0655 10.5976 24.0296 10.6662 23.9887L10.7069 23.9651C10.7742 23.9238 10.8385 23.8778 10.8995 23.8276L10.9176 23.8115C10.9551 23.7792 10.9925 23.747 11.0246 23.7105L21.2517 13.434V22.4299C21.2517 22.9043 21.4394 23.3593 21.7734 23.6947C22.1075 24.0302 22.5605 24.2186 23.0329 24.2186C23.5053 24.2186 23.9584 24.0302 24.2924 23.6947C24.6265 23.3593 24.8141 22.9043 24.8141 22.4299V13.4061L28.2695 16.8824C28.605 17.2112 29.0559 17.394 29.5247 17.3911C29.9934 17.3882 30.4421 17.1999 30.7735 16.867C31.1049 16.5341 31.2922 16.0834 31.2949 15.6127C31.2976 15.142 31.1154 14.6892 30.7878 14.3525Z" fill="white"/>
</svg>
