<svg width="25" height="24" viewBox="0 0 25 24" fill="none" xmlns="http://www.w3.org/2000/svg">
<path d="M22.5757 12C22.5757 10.7665 22.3417 9.591 21.9337 8.5H3.21768C2.80968 9.591 2.57568 10.7665 2.57568 12C2.57568 13.2335 2.80968 14.409 3.21768 15.5H21.9332C22.3417 14.409 22.5757 13.2335 22.5757 12Z" fill="url(#paint0_linear_1_9419)"/>
<path d="M12.5757 9.5C11.1947 9.5 10.0757 10.619 10.0757 12C10.0757 13.381 11.1947 14.5 12.5757 14.5C13.9567 14.5 15.0757 13.381 15.0757 12C15.0757 10.619 13.9567 9.5 12.5757 9.5ZM12.5757 14.188C11.3667 14.188 10.3877 13.209 10.3877 12C10.3877 10.791 11.3667 9.812 12.5757 9.812C13.7847 9.812 14.7637 10.791 14.7637 12C14.7637 13.209 13.7847 14.188 12.5757 14.188Z" fill="#0D62AB"/>
<path d="M13.0127 12C13.0127 12.2425 12.8177 12.437 12.5757 12.437C12.3337 12.437 12.1387 12.242 12.1387 12C12.1387 11.758 12.3337 11.563 12.5757 11.563C12.8177 11.563 13.0127 11.7575 13.0127 12Z" fill="#0D62AB"/>
<path d="M14.7611 12.1775C14.7011 12.17 14.6461 12.21 14.6386 12.27C14.6311 12.33 14.6711 12.385 14.7311 12.3925C14.7911 12.4025 14.8461 12.36 14.8536 12.3C14.8631 12.24 14.8211 12.185 14.7611 12.1775Z" fill="#0D62AB"/>
<path d="M12.5757 14.188L12.6507 12.8745L12.5757 12.25L12.5007 12.8745L12.5757 14.188Z" fill="#0D62AB"/>
<path d="M14.6412 12.737C14.5837 12.7145 14.5212 12.7395 14.4962 12.797C14.4737 12.852 14.5012 12.917 14.5562 12.9395C14.6112 12.962 14.6762 12.937 14.6987 12.8795C14.7237 12.824 14.6962 12.759 14.6412 12.737Z" fill="#0D62AB"/>
<path d="M12.0088 14.113L12.4208 12.864L12.5108 12.242L12.2758 12.8265L12.0088 14.113Z" fill="#0D62AB"/>
<path d="M14.3787 13.2465C14.3312 13.209 14.2637 13.2165 14.2262 13.2665C14.1887 13.314 14.1987 13.3815 14.2462 13.419C14.2937 13.4565 14.3637 13.4465 14.3987 13.399C14.4362 13.351 14.4262 13.281 14.3787 13.2465Z" fill="#0D62AB"/>
<path d="M11.4817 13.8955L12.2037 12.794L12.4512 12.217L12.0742 12.7215L11.4817 13.8955Z" fill="#0D62AB"/>
<path d="M13.9967 13.6685C13.9592 13.621 13.8892 13.6135 13.8417 13.6485C13.7942 13.686 13.7842 13.756 13.8217 13.8035C13.8592 13.851 13.9267 13.861 13.9742 13.8235C14.0242 13.7855 14.0317 13.7185 13.9967 13.6685Z" fill="#0D62AB"/>
<path d="M11.0271 13.5485L12.0086 12.672L12.3981 12.1775L11.9036 12.567L11.0271 13.5485Z" fill="#0D62AB"/>
<path d="M13.5146 13.978C13.4921 13.923 13.4271 13.898 13.3721 13.9205C13.3171 13.943 13.2896 14.008 13.3121 14.063C13.3371 14.118 13.3996 14.1455 13.4546 14.123C13.5121 14.098 13.5371 14.0355 13.5146 13.978Z" fill="#0D62AB"/>
<path d="M10.6802 13.094L11.8542 12.502L12.3587 12.125L11.7817 12.3725L10.6802 13.094Z" fill="#0D62AB"/>
<path d="M12.9701 14.1555C12.9626 14.0955 12.9076 14.053 12.8476 14.0605C12.7876 14.0705 12.7451 14.1255 12.7526 14.1855C12.7626 14.2455 12.8176 14.2855 12.8776 14.278C12.9376 14.27 12.9776 14.2155 12.9701 14.1555Z" fill="#0D62AB"/>
<path d="M10.4626 12.567L11.7486 12.3L12.3331 12.065L11.7111 12.155L10.4626 12.567Z" fill="#0D62AB"/>
<path d="M12.3038 14.063C12.2438 14.053 12.1888 14.0955 12.1813 14.1555C12.1738 14.2155 12.2163 14.2705 12.2763 14.278C12.3363 14.288 12.3913 14.2455 12.3988 14.1855C12.4058 14.1255 12.3633 14.0705 12.3038 14.063Z" fill="#0D62AB"/>
<path d="M10.3877 12L11.7012 12.075L12.3257 12L11.7012 11.925L10.3877 12Z" fill="#0D62AB"/>
<path d="M11.7817 13.9205C11.7267 13.898 11.6617 13.9255 11.6392 13.9805C11.6142 14.0355 11.6417 14.1005 11.6967 14.123C11.7542 14.1455 11.8167 14.1205 11.8417 14.0655C11.8637 14.008 11.8362 13.9455 11.7817 13.9205Z" fill="#0D62AB"/>
<path d="M10.4626 11.433L11.7116 11.845L12.3336 11.935L11.7491 11.7L10.4626 11.433Z" fill="#0D62AB"/>
<path d="M11.3121 13.6485C11.2646 13.6135 11.1946 13.621 11.1596 13.6685C11.1221 13.7185 11.1296 13.786 11.1796 13.8235C11.2271 13.8585 11.2946 13.851 11.3321 13.8035C11.3691 13.753 11.3591 13.686 11.3121 13.6485Z" fill="#0D62AB"/>
<path d="M10.6802 10.906L11.7817 11.628L12.3587 11.8755L11.8542 11.4985L10.6802 10.906Z" fill="#0D62AB"/>
<path d="M10.9273 13.266C10.8898 13.2185 10.8223 13.2085 10.7748 13.246C10.7273 13.281 10.7173 13.351 10.7548 13.3985C10.7898 13.446 10.8598 13.456 10.9073 13.4185C10.9548 13.381 10.9648 13.3135 10.9273 13.266Z" fill="#0D62AB"/>
<path d="M11.0271 10.4515L11.9036 11.433L12.3981 11.8225L12.0086 11.328L11.0271 10.4515Z" fill="#0D62AB"/>
<path d="M10.6552 12.794C10.6327 12.739 10.5677 12.7115 10.5127 12.7365C10.4577 12.759 10.4302 12.824 10.4527 12.879C10.4777 12.934 10.5402 12.9615 10.5977 12.939C10.6527 12.914 10.6802 12.8515 10.6552 12.794Z" fill="#0D62AB"/>
<path d="M11.4817 10.1045L12.0737 11.2785L12.4507 11.783L12.2032 11.206L11.4817 10.1045Z" fill="#0D62AB"/>
<path d="M10.5152 12.2695C10.5052 12.2095 10.4502 12.1695 10.3927 12.177C10.3327 12.1845 10.2902 12.2395 10.2977 12.2995C10.3052 12.3595 10.3602 12.402 10.4202 12.392C10.4802 12.3845 10.5227 12.3295 10.5152 12.2695Z" fill="#0D62AB"/>
<path d="M12.0088 9.88702L12.2758 11.173L12.5108 11.7575L12.4208 11.1355L12.0088 9.88702Z" fill="#0D62AB"/>
<path d="M10.4202 11.6055C10.3602 11.598 10.3052 11.6405 10.2977 11.7005C10.2902 11.7605 10.3327 11.8155 10.3927 11.823C10.4527 11.8305 10.5077 11.788 10.5152 11.728C10.5227 11.668 10.4802 11.613 10.4202 11.6055Z" fill="#0D62AB"/>
<path d="M12.5757 9.81201L12.5007 11.1255L12.5757 11.75L12.6507 11.1255L12.5757 9.81201Z" fill="#0D62AB"/>
<path d="M10.5953 11.061C10.5403 11.0385 10.4753 11.066 10.4528 11.121C10.4303 11.176 10.4553 11.241 10.5128 11.2635C10.5678 11.286 10.6328 11.261 10.6553 11.2035C10.6778 11.1485 10.6503 11.0835 10.5953 11.061Z" fill="#0D62AB"/>
<path d="M13.1426 9.88702L12.7306 11.136L12.6406 11.758L12.8756 11.1735L13.1426 9.88702Z" fill="#0D62AB"/>
<path d="M10.9073 10.5815C10.8573 10.544 10.7898 10.5515 10.7523 10.6015C10.7173 10.649 10.7248 10.7165 10.7723 10.754C10.8223 10.7915 10.8898 10.7815 10.9273 10.734C10.9623 10.6865 10.9548 10.6165 10.9073 10.5815Z" fill="#0D62AB"/>
<path d="M13.6697 10.1045L12.9477 11.206L12.7002 11.783L13.0772 11.2785L13.6697 10.1045Z" fill="#0D62AB"/>
<path d="M11.3316 10.197C11.2941 10.1495 11.2266 10.1395 11.1791 10.177C11.1291 10.2145 11.1216 10.282 11.1566 10.332C11.1941 10.3795 11.2641 10.387 11.3116 10.352C11.3591 10.314 11.3691 10.2445 11.3316 10.197Z" fill="#0D62AB"/>
<path d="M14.1242 10.4515L13.1427 11.328L12.7532 11.8225L13.2477 11.433L14.1242 10.4515Z" fill="#0D62AB"/>
<path d="M11.8388 9.93698C11.8163 9.88198 11.7513 9.85448 11.6963 9.87948C11.6413 9.90198 11.6138 9.96448 11.6363 10.022C11.6588 10.077 11.7238 10.1045 11.7788 10.0795C11.8363 10.057 11.8613 9.99448 11.8388 9.93698Z" fill="#0D62AB"/>
<path d="M14.4712 10.906L13.2972 11.498L12.7927 11.875L13.3697 11.6275L14.4712 10.906Z" fill="#0D62AB"/>
<path d="M12.3983 9.81447C12.3908 9.75447 12.3358 9.71447 12.2758 9.72197C12.2158 9.72947 12.1733 9.78447 12.1808 9.84447C12.1883 9.90447 12.2433 9.94697 12.3033 9.93697C12.3633 9.92947 12.4058 9.87447 12.3983 9.81447Z" fill="#0D62AB"/>
<path d="M14.6886 11.433L13.4026 11.7L12.8181 11.935L13.4401 11.845L14.6886 11.433Z" fill="#0D62AB"/>
<path d="M12.8751 9.72248C12.8151 9.71498 12.7601 9.75748 12.7526 9.81748C12.7451 9.87748 12.7876 9.93248 12.8476 9.93998C12.9076 9.94748 12.9626 9.90498 12.9701 9.84498C12.9776 9.78448 12.9351 9.72998 12.8751 9.72248Z" fill="#0D62AB"/>
<path d="M14.7637 12L13.4502 11.925L12.8257 12L13.4502 12.075L14.7637 12Z" fill="#0D62AB"/>
<path d="M13.4547 9.87697C13.3997 9.85197 13.3347 9.87947 13.3122 9.93447C13.2897 9.99197 13.3147 10.0545 13.3697 10.077C13.4272 10.102 13.4897 10.0745 13.5147 10.0195C13.5372 9.96197 13.5097 9.89947 13.4547 9.87697Z" fill="#0D62AB"/>
<path d="M14.6886 12.567L13.4396 12.155L12.8176 12.065L13.4021 12.3L14.6886 12.567Z" fill="#0D62AB"/>
<path d="M13.9742 10.177C13.9267 10.142 13.8592 10.1495 13.8217 10.197C13.7842 10.247 13.7942 10.3145 13.8417 10.352C13.8892 10.387 13.9592 10.3795 13.9967 10.332C14.0317 10.2815 14.0242 10.2145 13.9742 10.177Z" fill="#0D62AB"/>
<path d="M14.4712 13.094L13.3697 12.372L12.7927 12.1245L13.2972 12.5015L14.4712 13.094Z" fill="#0D62AB"/>
<path d="M14.3988 10.6015C14.3613 10.554 14.2913 10.544 14.2438 10.5815C14.1963 10.619 14.1863 10.6865 14.2238 10.734C14.2613 10.7815 14.3288 10.7915 14.3788 10.754C14.4263 10.719 14.4338 10.649 14.3988 10.6015Z" fill="#0D62AB"/>
<path d="M14.1242 13.5485L13.2477 12.567L12.7532 12.1775L13.1427 12.672L14.1242 13.5485Z" fill="#0D62AB"/>
<path d="M14.6987 11.121C14.6737 11.066 14.6112 11.0385 14.5562 11.061C14.4987 11.086 14.4737 11.1485 14.4962 11.2035C14.5187 11.261 14.5837 11.286 14.6387 11.2635C14.6937 11.241 14.7212 11.176 14.6987 11.121Z" fill="#0D62AB"/>
<path d="M13.6697 13.8955L13.0777 12.7215L12.7007 12.217L12.9482 12.794L13.6697 13.8955Z" fill="#0D62AB"/>
<path d="M14.8532 11.7005C14.8457 11.6405 14.7907 11.598 14.7307 11.6055C14.6707 11.6155 14.6282 11.668 14.6382 11.728C14.6457 11.788 14.7007 11.8305 14.7607 11.823C14.8212 11.815 14.8632 11.76 14.8532 11.7005Z" fill="#0D62AB"/>
<path d="M13.1426 14.113L12.8756 12.827L12.6406 12.2425L12.7306 12.8645L13.1426 14.113Z" fill="#0D62AB"/>
<path d="M21.9338 15.5H3.21777C4.63827 19.294 8.28627 22 12.5758 22C16.8653 22 20.5133 19.294 21.9338 15.5Z" fill="url(#paint1_linear_1_9419)"/>
<path d="M12.5758 2C8.28627 2 4.63827 4.706 3.21777 8.5H21.9333C20.5133 4.706 16.8653 2 12.5758 2Z" fill="url(#paint2_linear_1_9419)"/>
<defs>
<linearGradient id="paint0_linear_1_9419" x1="5.59718" y1="5.0215" x2="19.5517" y2="18.976" gradientUnits="userSpaceOnUse">
<stop stop-color="#DFE9F2"/>
<stop offset="0.998" stop-color="#9EA7B0"/>
</linearGradient>
<linearGradient id="paint1_linear_1_9419" x1="3.55127" y1="7.112" x2="17.5903" y2="21.151" gradientUnits="userSpaceOnUse">
<stop stop-color="#21AD64"/>
<stop offset="1" stop-color="#088242"/>
</linearGradient>
<linearGradient id="paint2_linear_1_9419" x1="7.72427" y1="3.012" x2="21.7053" y2="16.993" gradientUnits="userSpaceOnUse">
<stop stop-color="#F09701"/>
<stop offset="1" stop-color="#E36001"/>
</linearGradient>
</defs>
</svg>
