<svg width="25" height="24" viewBox="0 0 25 24" fill="none" xmlns="http://www.w3.org/2000/svg">
<path d="M12.6873 22C13.9208 22 15.0963 21.766 16.1873 21.358V2.642C15.0963 2.234 13.9208 2 12.6873 2C11.4538 2 10.2783 2.234 9.18726 2.642V21.3575C10.2783 21.766 11.4538 22 12.6873 22Z" fill="url(#paint0_linear_1_9556)"/>
<path d="M9.18726 21.358V2.64203C5.39326 4.06253 2.68726 7.71053 2.68726 12C2.68726 16.2895 5.39326 19.9375 9.18726 21.358Z" fill="url(#paint1_linear_1_9556)"/>
<path d="M22.6873 12C22.6873 7.71053 19.9813 4.06253 16.1873 2.64203V21.3575C19.9813 19.9375 22.6873 16.2895 22.6873 12Z" fill="url(#paint2_linear_1_9556)"/>
<defs>
<linearGradient id="paint0_linear_1_9556" x1="11.3488" y1="9.531" x2="20.7553" y2="26.88" gradientUnits="userSpaceOnUse">
<stop stop-color="#DFE9F2"/>
<stop offset="0.998" stop-color="#9EA7B0"/>
</linearGradient>
<linearGradient id="paint1_linear_1_9556" x1="5.81626" y1="8.08153" x2="13.7238" y2="26.293" gradientUnits="userSpaceOnUse">
<stop stop-color="#21AD64"/>
<stop offset="1" stop-color="#088242"/>
</linearGradient>
<linearGradient id="paint2_linear_1_9556" x1="16.9103" y1="8.89503" x2="23.7143" y2="27.4595" gradientUnits="userSpaceOnUse">
<stop offset="0.008" stop-color="#F44F5A"/>
<stop offset="0.447" stop-color="#EE3D4A"/>
<stop offset="1" stop-color="#E52030"/>
</linearGradient>
</defs>
</svg>
