<svg width="25" height="24" viewBox="0 0 25 24" fill="none" xmlns="http://www.w3.org/2000/svg">
<path d="M22.5757 12C22.5757 6.477 18.0987 2 12.5757 2C11.8907 2 11.2222 2.0695 10.5757 2.201V21.7995C11.2222 21.9305 11.8907 22 12.5757 22C18.0987 22 22.5757 17.523 22.5757 12Z" fill="url(#paint0_linear_1_9205)"/>
<path d="M2.57568 12C2.57568 16.838 6.01118 20.8725 10.5757 21.799V2.20099C6.01118 3.12749 2.57568 7.16199 2.57568 12Z" fill="url(#paint1_linear_1_9205)"/>
<path d="M13.6927 14.453C12.4917 14.416 6.97767 10.988 6.94067 10.443L7.24517 9.93701C7.79217 10.728 13.4267 14.062 13.9817 13.943L13.6927 14.453Z" fill="#FFC804"/>
<path d="M13.6927 14.463C13.0522 14.4455 11.2357 13.473 9.87421 12.6485C8.46971 11.797 6.94821 10.744 6.92871 10.4435C6.92871 10.4415 6.92871 10.4395 6.93071 10.4375L7.23521 9.93148C7.23721 9.92748 7.23921 9.92548 7.24521 9.92548C7.24921 9.92548 7.25121 9.92748 7.25321 9.93148C7.53471 10.336 9.14371 11.3985 10.6167 12.2715C12.3532 13.303 13.7337 13.9845 13.9782 13.9335C13.9822 13.9315 13.9882 13.9335 13.9897 13.9375C13.9912 13.9415 13.9937 13.9455 13.9897 13.949L13.7047 14.457C13.7027 14.461 13.6987 14.463 13.6927 14.463ZM6.95271 10.4455C6.98021 10.6975 8.21071 11.6135 9.88621 12.629C11.2397 13.4495 13.0442 14.414 13.6872 14.4415L13.9607 13.957C13.6132 13.9745 12.0407 13.1425 10.6052 12.291C9.14821 11.426 7.55621 10.377 7.24771 9.95698L6.95271 10.4455Z" fill="black"/>
<path d="M7.18117 9.86901C7.07367 10.158 8.62067 11.109 10.4802 12.236C12.3417 13.363 13.9452 14.06 14.0642 13.9605C14.0722 13.947 14.1227 13.859 14.1187 13.861C14.0952 13.894 14.0407 13.904 13.9567 13.8805C13.4547 13.736 12.1442 13.1365 10.5192 12.156C8.89617 11.1735 7.48417 10.271 7.26517 9.88651C7.24967 9.86101 7.23767 9.81251 7.23967 9.77301H7.23367L7.18867 9.85501L7.18117 9.86901ZM13.7222 14.469C13.7007 14.506 13.6637 14.506 13.5912 14.4985C13.1422 14.4495 11.7767 13.7875 10.1637 12.8245C8.28467 11.7055 6.73217 10.684 6.90017 10.418L6.94717 10.338L6.95717 10.34C6.80467 10.793 10.0177 12.623 10.2072 12.7385C12.0667 13.887 13.6347 14.557 13.7737 14.383L13.7222 14.469Z" fill="#FFC804"/>
<path d="M13.6482 14.5135C13.6307 14.5135 13.6112 14.5115 13.5897 14.5095C13.1307 14.4585 11.7517 13.787 10.1562 12.8355C8.02523 11.564 6.95523 10.7985 6.88073 10.4955C6.87273 10.4625 6.87673 10.433 6.89223 10.4115L6.93723 10.3315C6.93923 10.3255 6.94523 10.3235 6.95073 10.3255L6.95873 10.3295C6.96273 10.3295 6.96473 10.3315 6.96673 10.3355C6.96673 10.3375 6.96673 10.3415 6.96673 10.3435C6.91573 10.494 7.25573 10.994 10.0877 12.656C10.1522 12.693 10.1952 12.7185 10.2127 12.73C12.0487 13.863 13.6287 14.5445 13.7637 14.3765C13.7677 14.3705 13.7737 14.3685 13.7792 14.3725C13.7832 14.3765 13.7852 14.3825 13.7832 14.388L13.7322 14.474H13.7302C13.7122 14.506 13.6852 14.5135 13.6482 14.5135ZM6.93923 10.373L6.90973 10.424C6.89823 10.4415 6.89623 10.463 6.90173 10.4905C6.97423 10.7875 8.04223 11.547 10.1672 12.8145C11.7612 13.7635 13.1362 14.4355 13.5912 14.4865C13.6637 14.4945 13.6947 14.4925 13.7122 14.463V14.461L13.7417 14.41C13.7262 14.414 13.7067 14.418 13.6852 14.418C13.2927 14.418 11.8707 13.7775 10.2007 12.746C10.1832 12.736 10.1402 12.711 10.0757 12.6735C7.99373 11.453 6.94073 10.6795 6.93923 10.373ZM14.0267 13.9805C13.7337 13.9805 12.2222 13.3065 10.4742 12.246C8.47223 11.033 7.06223 10.152 7.17173 9.86499V9.86299L7.17773 9.85149L7.22473 9.76949C7.22673 9.76549 7.23073 9.76349 7.23473 9.76349H7.24073C7.24473 9.76349 7.24673 9.76549 7.24873 9.76749C7.25073 9.76949 7.25273 9.77349 7.25273 9.77549C7.25073 9.81049 7.26073 9.85749 7.27423 9.88299C7.50673 10.2895 9.13373 11.305 10.5262 12.1465C12.0537 13.0685 13.4092 13.711 13.9617 13.869C14.0342 13.8905 14.0887 13.8865 14.1102 13.8555C14.1102 13.8515 14.1142 13.8495 14.1162 13.8495C14.1222 13.8495 14.1262 13.8515 14.1277 13.8555C14.1337 13.8635 14.1337 13.8635 14.0807 13.957L14.0747 13.967C14.0747 13.969 14.0727 13.969 14.0727 13.971C14.0622 13.9765 14.0482 13.9805 14.0267 13.9805ZM7.19073 9.87299C7.08523 10.168 8.89173 11.2615 10.4857 12.2265C12.3977 13.3845 13.9367 14.037 14.0542 13.953L14.0602 13.945C14.0702 13.9255 14.0797 13.91 14.0857 13.898C14.0542 13.9095 14.0077 13.908 13.9527 13.892C13.4002 13.732 12.0407 13.0895 10.5132 12.1655C9.11873 11.3235 7.48773 10.304 7.25323 9.89399C7.23973 9.87249 7.23173 9.83949 7.22773 9.80599L7.19073 9.87299Z" fill="black"/>
<path d="M10.5872 10.7735C11.7902 10.7635 13.2747 10.6095 14.1282 10.2695L13.9447 9.97249C13.4407 10.252 11.9467 10.4335 10.5777 10.461C8.95672 10.4475 7.81222 10.297 7.23772 9.91199L7.06372 10.2305C8.11872 10.674 9.19672 10.7695 10.5872 10.7735Z" fill="#FFC804"/>
<path d="M10.5873 10.785C9.19476 10.781 8.12026 10.6875 7.05976 10.24C7.05576 10.24 7.05376 10.238 7.05176 10.234C7.05176 10.232 7.05176 10.228 7.05376 10.224L7.22776 9.90749C7.22976 9.90349 7.23176 9.90149 7.23576 9.90149C7.23776 9.90149 7.24176 9.90149 7.24576 9.90349C7.77876 10.261 8.83776 10.433 10.5778 10.4505C11.8163 10.425 13.3963 10.261 13.9413 9.96199C13.9453 9.95999 13.9528 9.96199 13.9548 9.96599L14.1403 10.265C14.1403 10.267 14.1423 10.271 14.1403 10.275C14.1403 10.277 14.1363 10.279 14.1343 10.281C13.2318 10.6385 11.7108 10.7775 10.5873 10.785ZM7.07976 10.2245C8.13226 10.666 9.20276 10.7575 10.5858 10.7615H10.5878C11.7028 10.7535 13.2128 10.619 14.1133 10.2655L13.9413 9.98799C13.3868 10.287 11.8123 10.449 10.5778 10.4725C8.84326 10.457 7.78276 10.285 7.24176 9.92949L7.07976 10.2245Z" fill="black"/>
<path d="M14.1791 10.2775C14.1496 10.3245 13.5911 10.516 12.7711 10.6565C12.2146 10.7425 11.4881 10.8145 10.5816 10.8145C9.72012 10.8165 9.01912 10.754 8.48612 10.6815C7.62462 10.5485 7.17963 10.361 7.01562 10.295C7.03112 10.2635 7.04112 10.2425 7.05662 10.213C7.52912 10.4005 7.97662 10.514 8.50012 10.594C9.02962 10.6645 9.72263 10.727 10.5801 10.727C11.4826 10.725 12.1991 10.649 12.7541 10.567C13.5961 10.4305 14.0551 10.2565 14.1191 10.1765L14.1791 10.2775ZM14.0171 9.97451C13.9251 10.0485 13.4701 10.209 12.6716 10.336C12.1366 10.412 11.4586 10.4805 10.5916 10.4825C9.76762 10.4825 9.09362 10.428 8.58162 10.3515C7.76912 10.246 7.33763 10.0565 7.18113 10C7.19663 9.97451 7.21262 9.94751 7.23012 9.92001C7.35112 9.98251 7.76712 10.1505 8.59162 10.2655C9.09762 10.338 9.77112 10.3905 10.5916 10.3905C11.4551 10.3885 12.1246 10.32 12.6561 10.244C13.4606 10.1345 13.8926 9.92951 13.9586 9.87701L14.0171 9.97451Z" fill="#FFC804"/>
<path d="M10.5657 10.826C9.83317 10.826 9.13417 10.781 8.48367 10.693C7.64967 10.564 7.19867 10.3805 7.02867 10.312L7.01117 10.304C7.00717 10.304 7.00517 10.3 7.00317 10.298C7.00317 10.294 7.00317 10.292 7.00517 10.288C7.01117 10.2765 7.01667 10.2645 7.02067 10.255C7.02867 10.2395 7.03617 10.2235 7.04617 10.206C7.04817 10.2 7.05417 10.198 7.05967 10.2C7.51267 10.3795 7.95817 10.497 8.50117 10.581C9.15167 10.669 9.84467 10.714 10.5637 10.714C10.5697 10.714 10.5737 10.714 10.5792 10.714C11.3157 10.714 12.0267 10.6595 12.7512 10.554C13.5832 10.419 14.0462 10.2475 14.1107 10.1675C14.1127 10.1635 14.1147 10.1635 14.1207 10.1635C14.1247 10.1635 14.1267 10.1655 14.1287 10.1695L14.1892 10.271C14.1912 10.275 14.1912 10.279 14.1892 10.2825C14.1892 10.2825 14.1872 10.2825 14.1872 10.2845C14.1422 10.341 13.5682 10.5305 12.7732 10.6675C12.0897 10.771 11.3512 10.824 10.5837 10.8255C10.5777 10.826 10.5697 10.826 10.5657 10.826ZM7.03067 10.289L7.03667 10.291C7.20667 10.3595 7.65567 10.541 8.48767 10.672C9.13617 10.758 9.83517 10.803 10.5657 10.803C10.5697 10.803 10.5772 10.803 10.5812 10.803C11.3507 10.803 12.0852 10.7505 12.7687 10.645C13.5812 10.5065 14.1067 10.3225 14.1652 10.276L14.1162 10.194C14.0242 10.276 13.5967 10.442 12.7547 10.577C12.0282 10.6845 11.3172 10.737 10.5787 10.737C9.85417 10.739 9.15467 10.694 8.49667 10.606C7.95567 10.522 7.51217 10.405 7.06117 10.227C7.05317 10.2405 7.04767 10.2525 7.04167 10.264C7.03867 10.2735 7.03467 10.2795 7.03067 10.289ZM10.5737 10.492C9.85117 10.492 9.16367 10.447 8.58167 10.363C7.86267 10.269 7.44517 10.111 7.24367 10.035C7.21817 10.025 7.19667 10.0175 7.17917 10.0115C7.17517 10.0095 7.17317 10.0075 7.17117 10.0035C7.16917 9.99949 7.17117 9.99749 7.17317 9.99349C7.18867 9.96599 7.20467 9.94099 7.22017 9.91349C7.22417 9.90949 7.23017 9.90749 7.23567 9.90949C7.30617 9.94449 7.70467 10.1285 8.59317 10.2535C8.99567 10.31 9.66167 10.3785 10.5737 10.3785C10.5797 10.3785 10.5852 10.3785 10.5912 10.3785C11.5307 10.3765 12.2182 10.2945 12.6557 10.232C13.4232 10.1265 13.8747 9.92949 13.9527 9.86849C13.9547 9.86649 13.9587 9.86449 13.9607 9.86649C13.9647 9.86649 13.9667 9.86849 13.9687 9.87049L14.0272 9.96799C14.0292 9.96999 14.0292 9.97199 14.0292 9.97199C14.0292 9.97799 14.0272 9.98199 14.0252 9.98349C13.9352 10.054 13.4882 10.216 12.6737 10.347C11.9942 10.4425 11.3122 10.4915 10.5917 10.4915C10.5857 10.492 10.5797 10.492 10.5737 10.492ZM7.19867 9.99399C7.21417 9.99999 7.23167 10.0075 7.25117 10.0135C7.45217 10.0895 7.86817 10.248 8.58317 10.3415C9.16517 10.4255 9.85267 10.4685 10.5732 10.4685C10.5792 10.4685 10.5847 10.4685 10.5907 10.4685C11.3097 10.4685 11.9892 10.4215 12.6687 10.324C13.4577 10.199 13.8972 10.0445 14.0007 9.97249L13.9537 9.89449C13.8677 9.95099 13.4517 10.1465 12.6567 10.256C12.2192 10.3185 11.5317 10.4005 10.5902 10.4025C10.5842 10.4025 10.5787 10.4025 10.5707 10.4025C9.65867 10.4025 8.99067 10.334 8.58817 10.2775C7.72867 10.1565 7.32667 9.98049 7.23267 9.93549C7.22217 9.95499 7.21067 9.97449 7.19867 9.99399Z" fill="black"/>
<path d="M6.63608 12.217C7.37608 12.6135 9.01908 12.8145 10.5756 12.8285C11.9916 12.8305 13.8371 12.6095 14.5266 12.2445L14.5071 11.848C14.2921 12.184 12.3136 12.506 10.5596 12.4925C8.80558 12.481 7.17458 12.211 6.63208 11.8615L6.63608 12.217Z" fill="#FFC804"/>
<path d="M10.5951 12.84C10.5891 12.84 10.5816 12.84 10.5736 12.84C9.19662 12.8265 7.43712 12.6605 6.63012 12.2265C6.62612 12.2245 6.62412 12.2205 6.62412 12.2165L6.62012 11.861C6.62012 11.857 6.62212 11.853 6.62612 11.851C6.63012 11.849 6.63412 11.849 6.63762 11.851C7.18662 12.2025 8.83512 12.468 10.5596 12.482C12.2981 12.4935 14.2861 12.1715 14.4971 11.8415C14.4991 11.8375 14.5051 11.8355 14.5086 11.8375C14.5146 11.8395 14.5186 11.8435 14.5186 11.8475L14.5381 12.244C14.5381 12.25 14.5361 12.254 14.5301 12.2555C13.8371 12.621 11.9896 12.84 10.5951 12.84ZM6.64612 12.211C7.45262 12.6385 9.20262 12.805 10.5736 12.8165C11.9641 12.8185 13.8156 12.6035 14.5151 12.2385L14.4976 11.881C14.2006 12.213 12.2926 12.5175 10.5601 12.506C8.84912 12.4925 7.21262 12.2325 6.64412 11.883L6.64612 12.211Z" fill="black"/>
<path d="M14.5642 12.16V12.2555C14.4607 12.3785 13.8102 12.564 12.9937 12.697C12.3747 12.791 11.5642 12.863 10.5562 12.863C9.59916 12.863 8.83566 12.7945 8.24166 12.705C7.30616 12.5685 6.70666 12.33 6.58716 12.2595V12.15C6.94866 12.3885 7.92716 12.564 8.25516 12.617C8.84316 12.707 9.60266 12.775 10.5562 12.775C11.5602 12.775 12.3627 12.7025 12.9802 12.609C13.5657 12.5255 14.3997 12.3065 14.5642 12.16ZM14.5642 11.824V11.918C14.4607 12.043 13.8102 12.2285 12.9957 12.3595C12.3747 12.455 11.5662 12.5275 10.5562 12.5275C9.59916 12.5275 8.83566 12.459 8.24366 12.3675C7.30616 12.2325 6.70866 11.9945 6.58716 11.924V11.8125C6.94866 12.0525 7.92716 12.2265 8.25516 12.2815C8.84316 12.3715 9.60266 12.438 10.5562 12.438C11.5602 12.438 12.3647 12.3675 12.9802 12.274C13.5657 12.1895 14.3997 11.969 14.5642 11.824Z" fill="#FFC804"/>
<path d="M10.5562 12.875C9.70868 12.875 8.93118 12.8205 8.24168 12.717C7.34518 12.586 6.72618 12.3555 6.58168 12.2695C6.57768 12.2675 6.57568 12.2635 6.57568 12.26L6.57768 12.1505C6.57768 12.1445 6.57968 12.1405 6.58368 12.139C6.58568 12.137 6.59168 12.137 6.59368 12.141C6.95718 12.381 7.95868 12.557 8.25768 12.606C8.94118 12.7115 9.71468 12.764 10.5567 12.764C11.4472 12.764 12.2617 12.7075 12.9807 12.598C13.5607 12.516 14.3927 12.297 14.5567 12.1525C14.5607 12.1505 14.5627 12.1485 14.5667 12.1505C14.5727 12.1505 14.5767 12.1565 14.5767 12.1605V12.256C14.5767 12.258 14.5747 12.26 14.5747 12.262C14.4672 12.391 13.8032 12.5785 12.9987 12.7075C12.2732 12.8185 11.4527 12.875 10.5562 12.875ZM6.59918 12.254C6.70668 12.3125 7.28068 12.553 8.24368 12.6935C8.93318 12.799 9.71068 12.8515 10.5562 12.8515C11.4507 12.8515 12.2712 12.797 12.9917 12.6855C13.7732 12.5605 14.4407 12.373 14.5522 12.252V12.1855C14.3492 12.332 13.5462 12.541 12.9817 12.621C12.2632 12.7305 11.4467 12.787 10.5557 12.787C9.71168 12.787 8.93668 12.7345 8.25318 12.629C7.95818 12.582 6.97768 12.4085 6.59868 12.172V12.254H6.59918ZM10.5582 12.537C9.70868 12.537 8.92918 12.4845 8.24168 12.379C7.34518 12.248 6.72618 12.0175 6.58168 11.9335C6.57968 11.9315 6.57768 11.9275 6.57768 11.9275V11.8125C6.57768 11.8085 6.57968 11.8045 6.58368 11.8025C6.58768 11.8005 6.59168 11.8005 6.59518 11.8025C6.95668 12.0425 7.96018 12.2205 8.25718 12.2695C8.94068 12.373 9.71418 12.426 10.5582 12.426C11.4467 12.426 12.2632 12.3715 12.9802 12.262C13.5622 12.178 14.3942 11.961 14.5562 11.8165C14.5602 11.8125 14.5642 11.8125 14.5662 11.8125C14.5702 11.8145 14.5722 11.8165 14.5742 11.8185C14.5762 11.8205 14.5757 11.8225 14.5757 11.824V11.918C14.5757 11.918 14.5737 11.924 14.5737 11.926C14.4662 12.055 13.8022 12.2425 12.9977 12.3715C12.2747 12.4825 11.4527 12.537 10.5582 12.537ZM6.59918 11.916C6.70668 11.9765 7.28068 12.217 8.24568 12.3575C8.93118 12.461 9.71068 12.5155 10.5562 12.5155C11.4527 12.5155 12.2712 12.459 12.9937 12.3495C13.7752 12.2225 14.4412 12.037 14.5522 11.914V11.8475C14.3492 11.994 13.5462 12.203 12.9817 12.283C12.2647 12.3925 11.4487 12.449 10.5557 12.449C9.71168 12.449 8.93668 12.3965 8.25318 12.2925C7.95818 12.2435 6.97768 12.07 6.59868 11.8335V11.916H6.59918Z" fill="black"/>
<path d="M10.5718 14.385C8.86877 14.3735 7.41177 13.922 7.10327 13.848L7.32777 14.1975C7.87077 14.426 9.29477 14.764 10.5878 14.727C11.8808 14.69 13.0118 14.5905 13.8083 14.2035L14.0388 13.84C13.4958 14.0955 11.6483 14.381 10.5718 14.385Z" fill="#FFC804"/>
<path d="M10.3881 14.742C9.16761 14.742 7.85661 14.4315 7.32361 14.207C7.32161 14.207 7.31961 14.205 7.31761 14.203L7.09311 13.8535C7.09111 13.8495 7.09111 13.8435 7.09511 13.84C7.09711 13.836 7.10311 13.836 7.10661 13.836C7.14361 13.846 7.19661 13.8595 7.26311 13.877C7.75711 14.01 9.07361 14.3635 10.5716 14.373C11.6556 14.369 13.4991 14.08 14.0346 13.83C14.0386 13.828 14.0446 13.83 14.0481 13.832C14.0501 13.838 14.0521 13.842 14.0481 13.8455L13.8176 14.209C13.8176 14.211 13.8156 14.213 13.8136 14.213C12.9836 14.6175 11.7726 14.703 10.5891 14.7385C10.5231 14.74 10.4546 14.742 10.3881 14.742ZM7.33561 14.1895C7.89811 14.424 9.31811 14.752 10.5876 14.717C11.7671 14.682 12.9726 14.596 13.8006 14.1955L14.0096 13.8675C13.4316 14.1155 11.6346 14.393 10.5721 14.395C9.07011 14.387 7.75161 14.0335 7.25761 13.901C7.20511 13.8855 7.16211 13.8735 7.12861 13.866L7.33561 14.1895Z" fill="black"/>
<path d="M13.8942 14.123C13.8612 14.174 13.8257 14.2245 13.7907 14.2755C13.4157 14.4065 12.8237 14.545 12.5737 14.586C12.0637 14.6895 11.2727 14.7675 10.5737 14.7675C9.0657 14.746 7.8317 14.451 7.2512 14.201L7.2042 14.121L7.2102 14.1095L7.2902 14.139C8.3232 14.508 9.4817 14.6545 10.5812 14.68C11.2787 14.684 11.9777 14.602 12.5422 14.5005C13.4092 14.3265 13.7592 14.198 13.8662 14.137L13.8942 14.123ZM14.0932 13.795C14.0952 13.795 14.0952 13.797 14.0972 13.797C14.0717 13.84 14.0447 13.883 14.0192 13.928C13.8182 13.9985 13.2752 14.1565 12.4802 14.268C11.9567 14.3385 11.6327 14.4085 10.5917 14.428C8.6407 14.379 7.3767 13.9985 7.0782 13.9045L7.0332 13.8205C8.1642 14.1135 9.3182 14.3185 10.5917 14.34C11.5427 14.3205 11.9492 14.25 12.4667 14.18C13.3942 14.0355 13.8592 13.883 13.9997 13.84C13.9977 13.838 13.9957 13.836 13.9937 13.832L14.0932 13.795Z" fill="#FFC804"/>
<path d="M10.5738 14.7795C9.0368 14.756 7.8198 14.459 7.2458 14.211C7.2438 14.211 7.2418 14.209 7.2418 14.207L7.1948 14.127C7.1928 14.123 7.1928 14.119 7.1948 14.1155L7.2028 14.104C7.2048 14.098 7.2108 14.098 7.2143 14.098L7.2943 14.1295C8.2163 14.4575 9.3218 14.6395 10.5813 14.6705C11.3488 14.6745 12.0698 14.573 12.5403 14.491C13.5073 14.2975 13.7963 14.165 13.8608 14.1295L13.8883 14.114C13.8943 14.112 13.8983 14.112 13.9018 14.116C13.9053 14.12 13.9058 14.126 13.9038 14.1295C13.8688 14.182 13.8333 14.235 13.8003 14.282C13.7983 14.284 13.7963 14.286 13.7943 14.286C13.4213 14.417 12.8313 14.5555 12.5738 14.5965C12.0443 14.705 11.2398 14.7795 10.5738 14.7795ZM7.2573 14.1935C7.8763 14.459 9.1403 14.7365 10.5738 14.758C11.2398 14.756 12.0428 14.684 12.5718 14.5745C12.8278 14.5335 13.4118 14.397 13.7848 14.266C13.8103 14.231 13.8358 14.1935 13.8608 14.1545C13.7748 14.1975 13.4663 14.3285 12.5443 14.512C12.0738 14.596 11.3508 14.6935 10.5813 14.6915C9.3198 14.662 8.2103 14.4805 7.2863 14.1505L7.2178 14.123L7.2573 14.1935ZM10.5913 14.4375C8.8493 14.3945 7.6403 14.092 7.0738 13.914C7.0718 13.914 7.0698 13.912 7.0678 13.908L7.0228 13.824C7.0208 13.82 7.0208 13.816 7.0248 13.8125C7.0268 13.8085 7.0308 13.8065 7.0363 13.8085C8.3273 14.1445 9.4563 14.3085 10.5908 14.328C11.4383 14.3105 11.8563 14.252 12.2998 14.1915C12.3543 14.1835 12.4093 14.176 12.4658 14.168C13.3583 14.0295 13.8273 13.883 13.9813 13.834C13.9813 13.832 13.9813 13.83 13.9813 13.828C13.9833 13.826 13.9853 13.822 13.9893 13.822L14.0888 13.783C14.0948 13.781 14.1003 13.783 14.1023 13.789L14.1043 13.791C14.1063 13.795 14.1063 13.799 14.1043 13.8025C14.0788 13.8455 14.0533 13.8885 14.0263 13.9315C14.0243 13.9335 14.0223 13.9355 14.0203 13.9375C13.7528 14.033 13.1883 14.1795 12.4813 14.2775C12.4033 14.289 12.3308 14.299 12.2588 14.309C11.8413 14.369 11.4803 14.422 10.5913 14.4375ZM7.0858 13.8945C7.6523 14.072 8.8553 14.371 10.5918 14.416C11.4783 14.3985 11.8398 14.3475 12.2578 14.287C12.3303 14.277 12.4023 14.2675 12.4783 14.2555C13.1813 14.158 13.7418 14.0135 14.0113 13.9175C14.0328 13.8825 14.0543 13.847 14.0738 13.814L14.0113 13.8375C14.0113 13.8395 14.0113 13.8415 14.0093 13.8435C14.0093 13.8475 14.0073 13.8495 14.0033 13.8495L13.9878 13.8555C13.8333 13.9045 13.3648 14.051 12.4683 14.1895C12.4138 14.1975 12.3588 14.205 12.3043 14.213C11.8608 14.2735 11.4408 14.332 10.5913 14.3495C9.4623 14.332 8.3373 14.168 7.0543 13.836L7.0858 13.8945Z" fill="black"/>
<path d="M10.5657 8.086C8.39767 8.086 6.62817 9.844 6.62817 11.998C6.62817 14.152 8.39767 15.91 10.5657 15.91C12.7337 15.91 14.5167 14.152 14.5167 11.998C14.5167 9.844 12.7337 8.086 10.5657 8.086ZM13.0857 14.463C12.4332 15.086 11.5682 15.4885 10.5562 15.508C9.42717 15.5275 8.36267 14.795 8.07767 14.473C7.51917 13.844 7.06417 13.0435 7.05017 11.965C7.11867 10.748 7.59917 9.9005 8.29417 9.3185C8.98967 8.7385 9.91517 8.455 10.6867 8.4745C11.5752 8.498 12.6142 8.9315 13.3332 9.795C13.8037 10.3615 14.0072 10.9745 14.1147 11.9045C14.1207 13.0195 13.5462 14.0195 13.0857 14.463Z" fill="#FFC804"/>
<path d="M10.5758 15.9335C8.39826 15.9335 6.62476 14.168 6.62476 11.996C6.62476 9.82599 8.39826 8.06049 10.5758 8.06049C12.7553 8.06049 14.5268 9.82599 14.5268 11.996C14.5268 14.168 12.7553 15.9335 10.5758 15.9335ZM10.5758 8.08399C8.40976 8.08399 6.64826 9.83999 6.64826 11.996C6.64826 14.154 8.40976 15.91 10.5758 15.91C12.7418 15.91 14.5053 14.154 14.5053 11.996C14.5053 9.83999 12.7418 8.08399 10.5758 8.08399ZM10.5758 15.8475C9.55026 15.8475 8.58176 15.445 7.84926 14.7165C7.11476 13.986 6.71276 13.021 6.71276 11.9975C6.71276 10.974 7.11526 10.0075 7.84926 9.27849C8.58176 8.54799 9.55026 8.14749 10.5758 8.14749C11.6013 8.14749 12.5698 8.54799 13.3023 9.27849C14.0368 10.007 14.4408 10.974 14.4408 11.9975C14.4408 13.021 14.0363 13.986 13.3023 14.7165C12.5698 15.4455 11.6013 15.8475 10.5758 15.8475ZM10.5758 8.16999C8.45876 8.16999 6.73376 9.88699 6.73376 11.998C6.73376 14.1075 8.45826 15.824 10.5758 15.824C12.6948 15.824 14.4178 14.107 14.4178 11.998C14.4178 9.88649 12.6948 8.16999 10.5758 8.16999Z" fill="black"/>
<path d="M10.5797 15.5995C9.61874 15.5995 8.71074 15.2245 8.02524 14.541C7.33774 13.8575 6.95874 12.953 6.95874 11.994C6.95874 11.035 7.33774 10.1305 8.02524 9.44697C8.71074 8.76347 9.61874 8.38647 10.5797 8.38647C11.5407 8.38647 12.4467 8.76347 13.1342 9.44697C13.8197 10.1305 14.1987 11.035 14.1987 11.994C14.1987 12.953 13.8197 13.8575 13.1342 14.541C12.4467 15.2245 11.5407 15.5995 10.5797 15.5995ZM10.5797 8.40997C8.59524 8.40997 6.98224 10.0175 6.98224 11.994C6.98224 13.9705 8.59574 15.578 10.5797 15.578C12.5622 15.578 14.1772 13.9705 14.1772 11.994C14.1772 10.0175 12.5642 8.40997 10.5797 8.40997ZM10.5797 15.5135C9.64224 15.5135 8.75574 15.1465 8.08574 14.4805C7.41574 13.8125 7.04674 12.9295 7.04674 11.994C7.04674 11.0585 7.41574 10.1755 8.08574 9.50747C8.75574 8.84147 9.64224 8.47447 10.5797 8.47447C11.5172 8.47447 12.4022 8.84147 13.0717 9.50747C13.7437 10.1755 14.1127 11.0585 14.1127 11.994C14.1127 12.9295 13.7437 13.8125 13.0717 14.4805C12.4017 15.1465 11.5172 15.5135 10.5797 15.5135ZM10.5797 8.49597C8.64424 8.49597 7.06824 10.0645 7.06824 11.994C7.06824 13.9215 8.64424 15.49 10.5797 15.49C12.5152 15.49 14.0897 13.9215 14.0897 11.994C14.0892 10.0645 12.5152 8.49597 10.5797 8.49597Z" fill="black"/>
<path d="M10.7377 8.05652H10.3997L10.4017 15.943H10.7397L10.7377 8.05652Z" fill="#FFC804"/>
<path d="M10.7397 15.953H10.3997C10.3937 15.953 10.3897 15.949 10.3897 15.943L10.3877 8.05649C10.3877 8.05649 10.3897 8.05049 10.3917 8.04849C10.3937 8.04649 10.3977 8.04449 10.3997 8.04449H10.7377C10.7437 8.04449 10.7492 8.04849 10.7492 8.05599L10.7512 15.9425C10.7512 15.9425 10.7492 15.9485 10.7472 15.9505C10.7452 15.9525 10.7437 15.953 10.7397 15.953ZM10.4117 15.9315H10.7282L10.7262 8.06799H10.4117V15.9315Z" fill="black"/>
<path d="M10.7047 8.01147H10.7907V15.988H10.7047V8.01147ZM10.3687 8.01147H10.4567V15.988H10.3687V8.01147Z" fill="#FFC804"/>
<path d="M10.4566 16H10.3706C10.3626 16 10.3591 15.994 10.3591 15.9885V8.01153C10.3591 8.00553 10.3631 7.99802 10.3706 8.00002H10.4566C10.4626 8.00002 10.4681 8.00603 10.4681 8.01153V15.988C10.4681 15.988 10.4661 15.994 10.4641 15.996C10.4621 15.998 10.4586 16 10.4566 16ZM10.3801 15.9765H10.4446V8.02353H10.3801V15.9765ZM10.7906 16H10.7046C10.6986 16 10.6931 15.994 10.6931 15.9885V8.01153C10.6931 8.01153 10.6951 8.00552 10.6971 8.00352C10.6991 8.00152 10.7006 8.00002 10.7046 8.00002H10.7906C10.7966 8.00002 10.8021 8.00603 10.8021 8.01153V15.988C10.8021 15.988 10.8001 15.994 10.7981 15.996C10.7961 15.998 10.7941 16 10.7906 16ZM10.7161 15.9765H10.7786V8.02353H10.7161V15.9765Z" fill="black"/>
<path d="M14.5191 12.1485V11.8575L14.2806 11.637L12.9271 11.2795L10.9781 11.082L8.62861 11.201L6.95861 11.5975L6.62061 11.8455V12.1385L7.47611 11.7555L9.50561 11.439H11.4546L12.8861 11.597L13.8821 11.8355L14.5191 12.1485Z" fill="#FFC804"/>
<path d="M14.5191 12.16C14.5171 12.16 14.5151 12.16 14.5131 12.16L13.8766 11.8455L12.8846 11.607L11.4551 11.449H9.50612L7.48062 11.7655L6.62712 12.1485C6.62312 12.1505 6.61912 12.1505 6.61562 12.1465C6.61162 12.1445 6.60962 12.1405 6.60962 12.1365V11.8455C6.60962 11.8415 6.61162 11.8395 6.61562 11.8375L6.95362 11.5875C6.95362 11.5875 6.95562 11.5855 6.95762 11.5855L8.62762 11.189L10.9791 11.07L12.9301 11.2675L14.2836 11.625C14.2856 11.627 14.2876 11.627 14.2896 11.629L14.5281 11.8495C14.5301 11.8515 14.5321 11.8535 14.5321 11.8575V12.1485C14.5321 12.1525 14.5301 12.1565 14.5261 12.1585C14.5231 12.16 14.5211 12.16 14.5191 12.16ZM11.4546 11.4275L12.8901 11.5855L13.8841 11.824L14.5071 12.1305V11.863L14.2746 11.646L12.9251 11.2905L10.9776 11.0915L8.63012 11.2105L6.96412 11.607L6.63212 11.851V12.1185L7.47212 11.7435H7.47412L9.50362 11.425L11.4546 11.4275Z" fill="black"/>
<path d="M10.5776 11.3885C11.5071 11.3885 12.4116 11.4765 13.1266 11.615C13.8666 11.7635 14.3866 11.947 14.5641 12.154V12.2555C14.3491 11.9975 13.6501 11.81 13.1111 11.703C12.4001 11.5665 11.5036 11.4765 10.5781 11.4785C9.60165 11.4805 8.69315 11.5725 7.99215 11.707C7.43165 11.8185 6.68165 12.039 6.58765 12.258V12.1505C6.63865 12 7.19715 11.7755 7.98015 11.619C8.68515 11.4825 9.59515 11.3905 10.5776 11.3885ZM10.5776 11.0525C11.5091 11.0505 12.4116 11.1405 13.1286 11.279C13.8671 11.4255 14.3866 11.611 14.5641 11.818V11.9195C14.3491 11.6615 13.6501 11.474 13.1111 11.367C12.4001 11.2285 11.5036 11.1405 10.5796 11.1405C9.60315 11.1425 8.69665 11.236 7.99765 11.371C7.45465 11.4745 6.67515 11.703 6.58765 11.922V11.8145C6.64015 11.666 7.20865 11.4315 7.98015 11.283C8.68515 11.1445 9.59515 11.0545 10.5776 11.0525Z" fill="#FFC804"/>
<path d="M6.5872 12.2675C6.5852 12.2675 6.5852 12.2675 6.5852 12.2675C6.5792 12.2675 6.5752 12.2615 6.5752 12.2575V12.15V12.148C6.6297 11.986 7.2197 11.7595 7.9757 11.607C8.7297 11.4605 9.6532 11.3805 10.5772 11.3785V11.39V11.3785C10.5852 11.3785 10.5947 11.3785 10.6047 11.3785C11.4777 11.3785 12.3742 11.4585 13.1282 11.605C13.8997 11.7595 14.3997 11.947 14.5717 12.146C14.5737 12.148 14.5757 12.152 14.5737 12.154V12.2575C14.5737 12.2615 14.5717 12.2655 14.5677 12.2675C14.5617 12.2695 14.5577 12.2675 14.5542 12.2635C14.3277 11.992 13.5502 11.8025 13.1087 11.7145C12.3587 11.568 11.4702 11.49 10.6027 11.49C10.5947 11.49 10.5852 11.49 10.5772 11.49C9.6652 11.49 8.7472 11.572 7.9932 11.7185C7.3817 11.8395 6.6827 12.0625 6.5967 12.2615C6.5952 12.2655 6.5912 12.2675 6.5872 12.2675ZM10.6032 11.467C11.4722 11.467 12.3632 11.547 13.1132 11.6915C13.5467 11.7795 14.2987 11.961 14.5527 12.2265V12.158C14.3807 11.9625 13.8867 11.779 13.1252 11.6265C12.3637 11.48 11.4592 11.398 10.5782 11.4C9.6562 11.402 8.7342 11.484 7.9827 11.6285C7.1467 11.7965 6.6467 12.023 6.5997 12.152V12.2145C6.7657 11.99 7.5392 11.785 7.9902 11.695C8.7462 11.5485 9.6642 11.4665 10.5782 11.4665C10.5872 11.467 10.5952 11.467 10.6032 11.467ZM6.5872 11.9315H6.5857C6.5797 11.9315 6.5757 11.9255 6.5757 11.9215V11.814C6.5757 11.814 6.5757 11.812 6.5777 11.81C6.6322 11.648 7.2357 11.4155 7.9782 11.271C8.7302 11.1245 9.6542 11.0425 10.5777 11.0425C11.4607 11.0405 12.3667 11.1205 13.1302 11.269C13.9017 11.4215 14.3997 11.609 14.5717 11.81C14.5737 11.8125 14.5757 11.8145 14.5757 11.8185V11.92C14.5757 11.926 14.5717 11.93 14.5677 11.93C14.5637 11.932 14.5577 11.932 14.5562 11.928C14.3297 11.6545 13.5522 11.467 13.1087 11.377C12.3527 11.2305 11.4542 11.1505 10.5792 11.1525C9.6692 11.1545 8.7532 11.2365 7.9992 11.383C7.3782 11.5 6.6767 11.7305 6.5987 11.926C6.5952 11.9295 6.5912 11.9315 6.5872 11.9315ZM10.6052 11.131C11.4742 11.131 12.3632 11.211 13.1132 11.3555C13.5467 11.4415 14.2987 11.625 14.5527 11.8905V11.822C14.3807 11.6265 13.8867 11.443 13.1252 11.2905C12.3637 11.142 11.4592 11.06 10.5782 11.064C9.6562 11.066 8.7342 11.146 7.9827 11.2925C7.1782 11.449 6.6487 11.679 6.5997 11.816V11.8765C6.7577 11.6615 7.5042 11.4525 7.9942 11.359C8.7502 11.2125 9.6682 11.1305 10.5782 11.1285C10.5872 11.131 10.5952 11.131 10.6052 11.131Z" fill="black"/>
<path d="M10.5602 9.33597C12.0252 9.32797 13.3042 9.53897 13.8902 9.83997L14.1032 10.207C13.5952 9.93347 12.2147 9.65047 10.5622 9.69347C9.21475 9.70147 7.77525 9.83997 7.05225 10.225L7.30825 9.79897C7.89975 9.49197 9.29825 9.33797 10.5602 9.33597Z" fill="#FFC804"/>
<path d="M7.05209 10.2345C7.04809 10.2345 7.04609 10.2345 7.04409 10.2325C7.04009 10.2285 7.04009 10.2225 7.04209 10.219L7.29609 9.79299C7.29809 9.79099 7.30009 9.78898 7.30209 9.78898C7.91909 9.47048 9.38009 9.32599 10.5581 9.32399C10.5581 9.32399 10.5581 9.32399 10.5601 9.32399C11.9721 9.31799 13.2806 9.51549 13.8941 9.82799C13.8961 9.82999 13.8981 9.82998 13.9001 9.83198L14.1131 10.201C14.1151 10.205 14.1151 10.211 14.1111 10.2145C14.1071 10.2185 14.1031 10.2185 14.0976 10.2165C13.5646 9.92949 12.1796 9.66199 10.5626 9.70299C9.61509 9.70899 7.90058 9.78499 7.05859 10.2345C7.05609 10.2345 7.05409 10.2345 7.05209 10.2345ZM7.31559 9.80649L7.08309 10.195C7.94059 9.76148 9.62409 9.68498 10.5616 9.67948C12.1476 9.64048 13.5126 9.89848 14.0731 10.1775L13.8816 9.84749C13.2681 9.53699 11.9676 9.33948 10.5591 9.34748C9.38608 9.34948 7.93108 9.49199 7.31559 9.80649Z" fill="black"/>
<path d="M10.5798 9.63849C11.4158 9.63649 12.2243 9.68349 12.8648 9.80049C13.4643 9.90999 14.0348 10.078 14.1168 10.1675L14.1813 10.279C13.9823 10.15 13.4878 10.0055 12.8533 9.88649C12.2168 9.76749 11.4098 9.72649 10.5778 9.72999C9.6343 9.72599 8.9003 9.77499 8.2713 9.88449C7.6053 10.0095 7.1443 10.1855 7.0293 10.2695L7.0918 10.1525C7.3123 10.041 7.6643 9.90449 8.2538 9.79899C8.9038 9.67949 9.6463 9.64449 10.5798 9.63849ZM10.5778 9.30249C11.3788 9.30049 12.1698 9.34549 12.7848 9.45499C13.2713 9.54899 13.7518 9.69699 13.9273 9.82799L14.0193 9.97449C13.8613 9.80049 13.2693 9.63449 12.7478 9.54299C12.1343 9.43749 11.3788 9.39649 10.5778 9.38849C9.7378 9.39249 8.9628 9.44299 8.3588 9.55249C7.7848 9.66199 7.4133 9.79099 7.2573 9.89049L7.3373 9.76749C7.5543 9.65399 7.9038 9.55049 8.3453 9.46499C8.9528 9.35549 9.7338 9.30449 10.5778 9.30249Z" fill="#FFC804"/>
<path d="M14.1791 10.289C14.1771 10.289 14.1751 10.289 14.1731 10.287C13.9796 10.16 13.4971 10.0175 12.8506 9.89648C12.2821 9.79098 11.5186 9.73848 10.5771 9.73998C9.63365 9.73598 8.90115 9.78498 8.27265 9.89448C7.61065 10.0195 7.14965 10.1935 7.03615 10.2795C7.03015 10.2815 7.02465 10.2815 7.02065 10.2795C7.01665 10.2755 7.01665 10.2695 7.01865 10.264L7.08115 10.147C7.08115 10.145 7.08315 10.143 7.08515 10.141C7.38415 9.99048 7.76665 9.87349 8.25115 9.78749C8.84115 9.67999 9.51465 9.63298 10.5791 9.62748C11.4796 9.62548 12.2706 9.67999 12.8681 9.78749C13.4776 9.90099 14.0421 10.069 14.1261 10.1585L14.1906 10.272C14.1926 10.278 14.1906 10.2835 14.1886 10.2855C14.1851 10.289 14.1831 10.289 14.1791 10.289ZM10.6401 9.71698C11.5541 9.71698 12.2981 9.76948 12.8551 9.87498C13.4666 9.98998 13.9311 10.123 14.1481 10.246L14.1071 10.172C14.0291 10.088 13.4586 9.92198 12.8631 9.81048C12.2676 9.70298 11.4766 9.64849 10.5781 9.65049C9.51765 9.65649 8.84365 9.70298 8.25565 9.81048C7.77315 9.89648 7.39415 10.0115 7.09915 10.162L7.05815 10.238C7.21815 10.146 7.65765 9.98798 8.26715 9.87298C8.89815 9.76348 9.63215 9.71498 10.5776 9.71848C10.5991 9.71698 10.6186 9.71698 10.6401 9.71698ZM14.0191 9.98648C14.0171 9.98648 14.0131 9.98448 14.0111 9.98248C13.8491 9.80298 13.2281 9.63849 12.7456 9.55499C12.1891 9.45949 11.4801 9.40849 10.5776 9.40049C9.70265 9.40449 8.93515 9.45898 8.36065 9.56448C7.85265 9.65998 7.44065 9.78499 7.26315 9.90049C7.25915 9.90449 7.25315 9.90249 7.24965 9.89849C7.24615 9.89449 7.24365 9.88849 7.24765 9.88499L7.32965 9.76198C7.32965 9.76198 7.33165 9.75999 7.33365 9.75799C7.54865 9.64649 7.89615 9.54098 8.34365 9.45548C8.91615 9.34998 9.68915 9.29548 10.5781 9.29348C11.4531 9.28948 12.2146 9.34248 12.7871 9.44598C13.3086 9.54748 13.7696 9.69798 13.9336 9.82098C13.9356 9.82098 13.9356 9.82298 13.9376 9.82298L14.0296 9.96948C14.0316 9.97548 14.0316 9.98098 14.0256 9.98498C14.0246 9.98448 14.0231 9.98648 14.0191 9.98648ZM10.5776 9.37898C11.4821 9.38498 12.1926 9.43548 12.7496 9.53148C13.1891 9.60948 13.7436 9.75199 13.9686 9.91449L13.9176 9.83648C13.7536 9.71548 13.2986 9.56698 12.7826 9.46748C12.2121 9.36598 11.4486 9.31098 10.5776 9.31498C9.68915 9.31698 8.91765 9.37349 8.34715 9.47699C7.90565 9.56099 7.56015 9.66648 7.34515 9.77798L7.29415 9.85598C7.49165 9.74648 7.88215 9.63148 8.35665 9.54148C8.93315 9.43748 9.70065 9.38098 10.5776 9.37898Z" fill="black"/>
<path d="M12.5367 13.629C11.8102 13.494 11.0857 13.4745 10.5777 13.4805C8.13416 13.508 7.34316 13.9805 7.24766 14.123L7.06616 13.826C7.68716 13.377 9.01916 13.125 10.5897 13.15C11.4062 13.1635 12.1112 13.2185 12.7047 13.3315L12.5367 13.629Z" fill="#FFC804"/>
<path d="M7.24764 14.135C7.24364 14.135 7.23964 14.133 7.23764 14.129L7.05614 13.832C7.05214 13.826 7.05414 13.8205 7.05814 13.8165C7.68314 13.3675 9.00364 13.1135 10.5911 13.139C11.4526 13.1545 12.1456 13.213 12.7061 13.3225C12.7101 13.3225 12.7121 13.3245 12.7141 13.3285C12.7161 13.3325 12.7161 13.3365 12.7141 13.3385L12.5461 13.6355C12.5421 13.6395 12.5361 13.6415 12.5326 13.6395C11.9586 13.534 11.3001 13.483 10.5776 13.493C8.19864 13.5205 7.36264 13.9735 7.25714 14.1295C7.25514 14.133 7.25164 14.135 7.24764 14.135ZM7.08164 13.83L7.24964 14.1035C7.39414 13.9315 8.25564 13.496 10.5776 13.4685C11.2981 13.4605 11.9566 13.5095 12.5286 13.615L12.6866 13.3395C12.1281 13.234 11.4426 13.1755 10.5891 13.162C9.01514 13.1365 7.70464 13.385 7.08164 13.83Z" fill="black"/>
<path d="M10.5643 13.4395C11.2438 13.4495 11.9098 13.4765 12.5543 13.596L12.5073 13.678C11.9098 13.5685 11.2708 13.5255 10.5658 13.5295C9.66327 13.5235 8.75127 13.6075 7.95827 13.834C7.70627 13.9025 7.29227 14.0645 7.24927 14.1955L7.20427 14.1195C7.21577 14.0415 7.46777 13.8795 7.93677 13.7485C8.84527 13.4885 9.69677 13.4455 10.5643 13.4395ZM10.5933 13.0975C11.2983 13.111 12.0248 13.1425 12.7318 13.283L12.6828 13.367C12.0443 13.242 11.4348 13.199 10.5968 13.1875C9.69227 13.1895 8.73327 13.254 7.86027 13.506C7.57877 13.588 7.09277 13.764 7.07727 13.9045L7.03027 13.8225C7.04027 13.6955 7.46177 13.5295 7.83877 13.42C8.72027 13.164 9.68327 13.0995 10.5933 13.0975Z" fill="#FFC804"/>
<path d="M7.2498 14.207C7.2458 14.207 7.2418 14.205 7.2398 14.201L7.1928 14.125C7.1928 14.123 7.1908 14.121 7.1908 14.121C7.2063 14.029 7.4723 13.865 7.9328 13.736C8.8018 13.488 9.6123 13.4335 10.5618 13.4275C10.5638 13.4275 10.5638 13.4275 10.5638 13.4275C11.2083 13.4375 11.8958 13.4625 12.5558 13.5855C12.5598 13.5855 12.5618 13.5875 12.5638 13.5915C12.5658 13.5935 12.5658 13.5975 12.5638 13.6015L12.5168 13.6835C12.5148 13.6875 12.5088 13.6895 12.5053 13.6895C11.9428 13.586 11.3078 13.535 10.5658 13.541C9.5678 13.531 8.6908 13.635 7.9603 13.8435C7.6928 13.9175 7.2983 14.078 7.2593 14.199C7.2573 14.203 7.2553 14.207 7.2513 14.207H7.2498ZM7.2143 14.117L7.2473 14.1715C7.3233 14.0385 7.7123 13.8885 7.9543 13.822C8.6868 13.613 9.5658 13.5095 10.5658 13.5175C11.3058 13.5155 11.9388 13.5625 12.5013 13.666L12.5363 13.6035C11.8818 13.4845 11.2023 13.459 10.5618 13.449C9.6143 13.455 8.8058 13.5115 7.9388 13.7575C7.4723 13.8885 7.2338 14.047 7.2143 14.117ZM7.0778 13.914C7.0738 13.914 7.0698 13.912 7.0678 13.91L7.0208 13.828C7.0208 13.826 7.0188 13.824 7.0188 13.822C7.0323 13.654 7.6498 13.4645 7.8373 13.41C8.5893 13.191 9.4643 13.0895 10.5933 13.0875C11.2828 13.099 12.0193 13.1305 12.7338 13.273C12.7378 13.273 12.7398 13.275 12.7418 13.279C12.7438 13.281 12.7438 13.285 12.7418 13.289L12.6928 13.373C12.6908 13.379 12.6868 13.381 12.6813 13.379C12.0038 13.246 11.3588 13.211 10.5973 13.1995C9.4763 13.2015 8.6073 13.301 7.8648 13.516C7.4998 13.6235 7.1013 13.7895 7.0873 13.9065C7.0873 13.9105 7.0833 13.9145 7.0793 13.9145H7.0778V13.914ZM7.0428 13.8205L7.0743 13.877C7.1543 13.703 7.7833 13.5155 7.8593 13.494C8.6033 13.279 9.4743 13.1775 10.5993 13.1755C11.3573 13.187 12.0018 13.2225 12.6773 13.355L12.7143 13.2905C12.0073 13.152 11.2768 13.1205 10.5933 13.109C9.4663 13.111 8.5933 13.2125 7.8433 13.4295C7.3708 13.5685 7.0563 13.719 7.0428 13.8205Z" fill="black"/>
<path d="M14.0642 13.871L13.7712 14.326L12.9272 13.578L10.7397 12.113L8.27271 10.7655L6.99121 10.328L7.26471 9.82401L7.35671 9.77301L8.15171 9.97201L10.7787 11.3195L12.2902 12.2705L13.5637 13.1805L14.0812 13.776L14.0642 13.871Z" fill="#FFC804"/>
<path d="M13.7712 14.336C13.7692 14.336 13.7652 14.336 13.7632 14.334L12.9192 13.588L10.7317 12.121L8.26675 10.7755L6.98725 10.34C6.98325 10.338 6.98125 10.336 6.97925 10.332C6.97925 10.33 6.97925 10.326 6.97925 10.322L7.25275 9.81797C7.25475 9.81597 7.25475 9.81598 7.25675 9.81398L7.35075 9.76297C7.35275 9.76097 7.35675 9.76097 7.35875 9.76297L8.15375 9.96047L10.7827 11.308L12.2962 12.261L13.5697 13.173L14.0892 13.7685C14.0932 13.7725 14.0932 13.7745 14.0932 13.7785L14.0757 13.873C14.0757 13.875 14.0757 13.877 14.0737 13.879L13.7807 14.332C13.7787 14.336 13.7767 14.336 13.7727 14.338C13.7732 14.336 13.7712 14.336 13.7712 14.336ZM7.00725 10.3225L8.27475 10.754L10.7432 12.1015L12.9327 13.5685L13.7687 14.307L14.0537 13.8675L14.0692 13.7815L13.5557 13.1895L12.2842 12.2795L10.7727 11.3285L8.14775 9.98297L7.35875 9.78547L7.27275 9.83248L7.00725 10.3225Z" fill="black"/>
<path d="M6.94475 10.34C7.16925 10.1875 8.81975 10.922 10.5483 11.959C12.2708 12.998 13.9173 14.176 13.7688 14.3945L13.7198 14.4705L13.6963 14.488C13.7023 14.486 13.7278 14.455 13.6943 14.373C13.6218 14.133 12.4543 13.205 10.5168 12.039C8.62625 10.918 7.05175 10.24 6.89575 10.4335L6.94475 10.34ZM14.1248 13.865C14.2673 13.5855 12.7363 12.4355 10.8378 11.318C8.89425 10.2205 7.49575 9.57599 7.24025 9.76699L7.18375 9.87048C7.18175 9.87648 7.18575 9.86248 7.19725 9.85498C7.24425 9.81398 7.32025 9.81599 7.35525 9.81599C7.79475 9.82199 9.05275 10.398 10.8163 11.406C11.5898 11.855 14.0838 13.447 14.0743 13.8945C14.0743 13.9335 14.0763 13.9415 14.0628 13.961L14.1248 13.865Z" fill="#FFC804"/>
<path d="M13.6966 14.5C13.6946 14.5 13.6906 14.498 13.6886 14.496C13.6846 14.49 13.6846 14.4845 13.6906 14.4805C13.6926 14.4785 13.7141 14.453 13.6846 14.379C13.6086 14.131 12.3741 13.17 10.5086 12.049C8.5281 10.8715 7.0456 10.2675 6.9031 10.4415C6.8991 10.4455 6.8931 10.4475 6.8876 10.4435C6.8836 10.4415 6.8816 10.4335 6.8836 10.43L6.9346 10.336C6.9346 10.334 6.9366 10.332 6.9366 10.33C7.1731 10.172 8.8291 10.914 10.5536 11.949C12.1046 12.8865 13.7136 14.0075 13.7861 14.3395C13.7921 14.365 13.7881 14.3845 13.7781 14.402L13.7291 14.478C13.7291 14.48 13.7271 14.48 13.7271 14.482L13.7036 14.4975V14.5C13.7026 14.5 13.7006 14.5 13.6966 14.5ZM7.0016 10.3925C7.4351 10.3925 8.8981 11.0665 10.5231 12.029C12.4156 13.1695 13.6286 14.115 13.7066 14.371C13.7181 14.4025 13.7241 14.4275 13.7241 14.447L13.7591 14.3885C13.7671 14.377 13.7691 14.363 13.7651 14.3435C13.6946 14.021 12.0521 12.8785 10.5426 11.9685C8.8611 10.957 7.1871 10.201 6.9546 10.3475L6.9251 10.402C6.9446 10.3945 6.9701 10.3925 7.0016 10.3925ZM14.0621 13.9725C14.0601 13.9725 14.0581 13.9725 14.0561 13.9705C14.0501 13.9665 14.0481 13.9605 14.0521 13.955L14.0581 13.945C14.0621 13.937 14.0621 13.9295 14.0621 13.91V13.8965C14.0721 13.449 11.5306 11.834 10.8121 11.418C9.0541 10.414 7.7946 9.83402 7.3551 9.82802H7.3451C7.3101 9.82802 7.2436 9.82802 7.2046 9.86302C7.1966 9.86702 7.1946 9.87302 7.1931 9.87652C7.1916 9.88002 7.1831 9.88452 7.1796 9.88252C7.1736 9.88252 7.1696 9.87452 7.1716 9.86902C7.1716 9.86902 7.1716 9.86702 7.1716 9.86502L7.2301 9.76152L7.2321 9.75952C7.5386 9.52702 9.3651 10.4725 10.8436 11.3085C12.5586 12.3185 14.2946 13.5585 14.1346 13.871L14.0781 13.957C14.0761 13.961 14.0741 13.965 14.0701 13.9685C14.0676 13.9705 14.0656 13.9725 14.0621 13.9725ZM7.3551 9.80452C7.7986 9.81052 9.0621 10.3905 10.8221 11.3965C11.3321 11.6915 14.0956 13.4065 14.0836 13.8945V13.906L14.1151 13.859C14.2441 13.601 12.8026 12.488 10.8321 11.326C8.7561 10.156 7.4846 9.60552 7.2481 9.77502L7.2186 9.82602C7.2616 9.80452 7.3141 9.80452 7.3456 9.80452H7.3551Z" fill="black"/>
<path d="M8.2161 12.4295C8.2161 13.074 8.4816 13.658 8.9116 14.084C9.3411 14.5115 9.9251 14.7815 10.5736 14.7815C11.2261 14.7815 11.8176 14.518 12.2456 14.092C12.6751 13.666 12.9411 13.0785 12.9411 12.432V9.29348L8.2146 9.28748L8.2161 12.4295Z" fill="white"/>
<path d="M8.3042 12.4335V12.4355C8.3042 13.0525 8.5602 13.613 8.9722 14.0215C9.3842 14.43 9.9507 14.6835 10.5717 14.6835C11.1947 14.6835 11.7612 14.4315 12.1712 14.0255C12.5812 13.6195 12.8372 13.0565 12.8372 12.4375V9.39252H8.3062L8.3042 12.4335ZM11.9252 10.3025V12.447C11.9252 12.4995 11.9212 12.562 11.9152 12.615C11.8782 12.9215 11.7357 13.1875 11.5267 13.3945C11.2807 13.6385 10.9427 13.789 10.5697 13.789C10.1987 13.789 9.8687 13.6325 9.6222 13.3885C9.3702 13.1385 9.2237 12.7945 9.2237 12.4395L9.2217 10.299L11.9252 10.3025Z" fill="#EF414D"/>
<path d="M9.43317 13.328C9.42167 13.318 9.40367 13.3165 9.39617 13.326L8.93917 13.783C8.93117 13.793 8.93117 13.8105 8.94317 13.82C8.95317 13.8315 8.97067 13.8315 8.98017 13.822L9.43517 13.365C9.44467 13.3575 9.44267 13.34 9.43317 13.328Z" fill="#FFC804"/>
<path d="M8.86479 13.342L8.83179 13.377L8.88629 13.4315C8.89629 13.4415 8.90979 13.4395 8.91779 13.4315L9.04279 13.3065C9.05079 13.2985 9.05079 13.285 9.04279 13.277L8.98629 13.2205L8.94929 13.2555L8.97479 13.281L8.94929 13.3065L8.92579 13.281L8.89079 13.316L8.91429 13.3415L8.89079 13.367L8.86479 13.342Z" fill="#FFC804"/>
<path d="M9.22615 13.494L9.03665 13.322L8.93115 13.4275L9.10515 13.615L9.22615 13.494Z" fill="#FFC804"/>
<path d="M9.1247 12.039C9.1247 12.0235 9.11321 12.0075 9.09921 12.0075H8.9252C8.9232 11.994 8.91921 11.984 8.91721 11.9725C8.91921 11.986 8.9252 11.994 8.9252 12.0075H9.09121L9.06171 11.7635H9.06971C9.08321 11.7635 9.0932 11.752 9.0932 11.736C9.0932 11.72 9.08321 11.7065 9.06971 11.7065H8.4527C8.4392 11.7065 8.4292 11.72 8.4292 11.736C8.4292 11.752 8.4392 11.7635 8.4527 11.7635H8.46271L8.4352 12.0075H8.60121H8.42521C8.41171 12.0075 8.39771 12.023 8.39771 12.039C8.39771 12.0565 8.40921 12.0705 8.42521 12.0705H9.09921C9.11271 12.0705 9.1247 12.0565 9.1247 12.039ZM8.6577 11.84C8.6302 11.877 8.60871 11.928 8.60321 12C8.60521 11.924 8.6282 11.875 8.6577 11.84Z" fill="#FFC804"/>
<path d="M8.41577 11.6795C8.41577 11.695 8.42577 11.707 8.43927 11.707H9.08577C9.09927 11.707 9.11127 11.6955 9.11127 11.6795C9.11127 11.6635 9.10127 11.65 9.08577 11.65H8.43927C8.42527 11.6505 8.41577 11.664 8.41577 11.6795Z" fill="#FFC804"/>
<path d="M8.65161 11.287V11.367C8.65161 11.3785 8.66311 11.3865 8.67511 11.3865H8.85111C8.86261 11.3865 8.87261 11.3785 8.87261 11.367V11.287H8.82161V11.322H8.78661V11.287H8.73761V11.322H8.70261V11.289L8.65161 11.287Z" fill="#FFC804"/>
<path d="M8.67529 11.6505H8.84729L8.83579 11.3945L8.68729 11.3925L8.67529 11.6505Z" fill="#FFC804"/>
<path d="M8.46826 11.6505H8.63226L8.62826 11.514H8.47376L8.46826 11.6505Z" fill="#FFC804"/>
<path d="M8.89014 11.6505H9.05414L9.05014 11.514H8.89564L8.89014 11.6505Z" fill="#FFC804"/>
<path d="M8.44263 11.412V11.492C8.44263 11.5035 8.45263 11.5135 8.46413 11.5135H8.63613C8.64763 11.5135 8.65763 11.5055 8.65763 11.492V11.412H8.60863V11.449H8.57363V11.414H8.52463V11.449H8.48963V11.414L8.44263 11.412Z" fill="#FFC804"/>
<path d="M8.86475 11.412V11.492C8.86475 11.5035 8.87625 11.5135 8.88825 11.5135H9.06025C9.07175 11.5135 9.08175 11.5055 9.08175 11.492V11.412H9.03275V11.449H8.99775V11.414H8.94875V11.449H8.91375V11.414L8.86475 11.412Z" fill="#FFC804"/>
<path d="M8.96075 13.7635L9.07575 13.6465L8.97425 13.5525L8.86475 13.662L8.96075 13.7635Z" fill="#FFC804"/>
<path d="M9.37257 13.3475L9.27107 13.2555L9.16357 13.363L9.25757 13.4645L9.37257 13.3475Z" fill="#FFC804"/>
<path d="M8.98018 13.5175L8.92368 13.461L8.89068 13.494L8.91618 13.5195L8.89068 13.545L8.86518 13.5195L8.83218 13.5545L8.85568 13.578L8.83218 13.6035L8.80668 13.578L8.77368 13.613L8.83018 13.6675C8.83818 13.6755 8.85168 13.6755 8.85968 13.6675L8.98068 13.5445C8.98768 13.539 8.98968 13.5255 8.98018 13.5175Z" fill="#FFC804"/>
<path d="M9.12808 13.3065L9.10458 13.281L9.06958 13.314L9.12608 13.3705C9.13408 13.3785 9.14958 13.3765 9.15758 13.3685L9.27858 13.2475C9.28658 13.2395 9.28658 13.226 9.27858 13.218L9.22208 13.1615L9.18708 13.1965L9.21258 13.222L9.18908 13.2455L9.16358 13.22L9.12858 13.255L9.15408 13.2805L9.12808 13.3065Z" fill="#FFC804"/>
<path d="M9.6598 13.5685L9.5368 13.6935C9.5253 13.6835 9.5173 13.68 9.5053 13.672C9.5168 13.68 9.5248 13.682 9.5368 13.6915L9.6518 13.5745L9.4583 13.422L9.4643 13.416C9.4743 13.406 9.4723 13.3905 9.4623 13.379C9.4508 13.369 9.4348 13.3675 9.4253 13.377L8.9898 13.8145C8.9798 13.8225 8.9818 13.84 8.9938 13.8495C9.0038 13.861 9.0213 13.861 9.0288 13.8535L9.0368 13.8455L9.1913 14.037L9.3083 13.922L9.1853 14.045C9.1738 14.055 9.1753 14.0745 9.1893 14.086C9.2008 14.0975 9.2188 14.0995 9.2283 14.09L9.7028 13.6135C9.7128 13.602 9.7128 13.584 9.6988 13.5725C9.6873 13.5605 9.6693 13.5585 9.6598 13.5685ZM9.2283 13.7635C9.2363 13.8065 9.2558 13.8575 9.3008 13.91C9.2518 13.8575 9.2338 13.8065 9.2283 13.7635Z" fill="#FFC804"/>
<path d="M8.86475 9.57599V9.65599C8.86475 9.66749 8.87625 9.67749 8.88825 9.67749H9.06025C9.07175 9.67749 9.08175 9.66949 9.08175 9.65599V9.57599H9.03275V9.61099H8.99775V9.57599H8.94875V9.61099H8.91375V9.57799L8.86475 9.57599Z" fill="#FFC804"/>
<path d="M8.46413 9.67598H8.63613C8.64763 9.67598 8.65763 9.66798 8.65763 9.65648V9.57648H8.60863V9.61148H8.57363V9.57648H8.52463V9.61148H8.48963V9.57648H8.44263V9.65648C8.44263 9.66798 8.45463 9.67598 8.46413 9.67598Z" fill="#FFC804"/>
<path d="M9.05015 9.67749H8.89565L8.88965 9.81399H9.05365L9.05015 9.67749Z" fill="#FFC804"/>
<path d="M8.62827 9.67749H8.47377L8.46777 9.81399H8.63177L8.62827 9.67749Z" fill="#FFC804"/>
<path d="M8.67529 9.81452H8.84729L8.83579 9.55852L8.68729 9.55652L8.67529 9.81452Z" fill="#FFC804"/>
<path d="M8.67511 9.55098H8.85111C8.86261 9.55098 8.87261 9.54298 8.87261 9.53148V9.45148H8.82161V9.48648H8.78661V9.45148H8.73761V9.48848H8.70261V9.45348H8.65161V9.53148C8.65161 9.54298 8.66361 9.55098 8.67511 9.55098Z" fill="#FFC804"/>
<path d="M9.08557 9.87103C9.09907 9.87103 9.11107 9.85953 9.11107 9.84353C9.11107 9.82753 9.09957 9.81403 9.08557 9.81403H8.43907C8.42557 9.81403 8.41357 9.82753 8.41357 9.84353C8.41357 9.85953 8.42507 9.87103 8.43907 9.87103H9.08557Z" fill="#FFC804"/>
<path d="M9.09921 10.2345C9.11271 10.2345 9.1247 10.221 9.1247 10.203C9.1247 10.185 9.11321 10.1715 9.09921 10.1715H8.9252C8.9232 10.158 8.91921 10.148 8.91721 10.1365C8.91921 10.148 8.9252 10.158 8.9252 10.1715H9.09121L9.06171 9.92748H9.06971C9.08321 9.92748 9.0932 9.91398 9.0932 9.89798C9.0932 9.88198 9.08321 9.87048 9.06971 9.87048H8.4527C8.4392 9.87048 8.4292 9.88198 8.4292 9.89798C8.4292 9.91398 8.4392 9.92748 8.4527 9.92748H8.46271L8.4352 10.1715H8.60121H8.42521C8.41171 10.1715 8.39771 10.185 8.39771 10.203C8.39771 10.221 8.40921 10.2345 8.42521 10.2345H9.09921ZM8.6577 10.004C8.6302 10.041 8.60871 10.092 8.60321 10.164C8.60521 10.088 8.6282 10.039 8.6577 10.004Z" fill="#FFC804"/>
<path d="M10.8687 9.67749H10.7142L10.7102 9.81399H10.8742L10.8687 9.67749Z" fill="#FFC804"/>
<path d="M10.2847 9.67598H10.4567C10.4682 9.67598 10.4782 9.66798 10.4782 9.65648V9.57648H10.4292V9.61148H10.3942V9.57648H10.3452V9.61148H10.3102V9.57648H10.2612V9.65648C10.2612 9.66798 10.2732 9.67598 10.2847 9.67598Z" fill="#FFC804"/>
<path d="M10.6853 9.57599V9.65599C10.6853 9.66749 10.6953 9.67749 10.7068 9.67749H10.8788C10.8903 9.67749 10.9003 9.66949 10.9003 9.65599V9.57599H10.8513V9.61099H10.8163V9.57599H10.7673V9.61099H10.7323V9.57799L10.6853 9.57599Z" fill="#FFC804"/>
<path d="M10.4466 9.67749H10.2921L10.2881 9.81399H10.4521L10.4466 9.67749Z" fill="#FFC804"/>
<path d="M10.4956 9.81452H10.6676L10.6561 9.55852L10.5076 9.55652L10.4956 9.81452Z" fill="#FFC804"/>
<path d="M10.4957 9.55098H10.6697C10.6812 9.55098 10.6932 9.54298 10.6932 9.53148V9.45148H10.6422V9.48648H10.6072V9.45148H10.5562V9.48848H10.5212V9.45348H10.4722V9.53148C10.4722 9.54298 10.4817 9.55098 10.4957 9.55098Z" fill="#FFC804"/>
<path d="M10.9036 9.87103C10.9171 9.87103 10.9291 9.85953 10.9291 9.84353C10.9291 9.82753 10.9191 9.81403 10.9036 9.81403H10.2571C10.2456 9.81403 10.2336 9.82753 10.2336 9.84353C10.2336 9.85953 10.2436 9.87103 10.2571 9.87103H10.9036Z" fill="#FFC804"/>
<path d="M10.7438 10.172C10.7438 10.1585 10.7378 10.1485 10.7358 10.137C10.7378 10.1485 10.7438 10.1585 10.7458 10.172H10.9098L10.8803 9.92797H10.8903C10.9018 9.92797 10.9138 9.91447 10.9138 9.89847C10.9138 9.88247 10.9023 9.87097 10.8903 9.87097H10.2713C10.2578 9.87097 10.2478 9.88247 10.2478 9.89847C10.2478 9.91447 10.2578 9.92797 10.2713 9.92797H10.2813L10.2538 10.172H10.4198H10.2438C10.2303 10.172 10.2183 10.1855 10.2183 10.2035C10.2183 10.2215 10.2298 10.235 10.2438 10.235H10.9178C10.9333 10.235 10.9453 10.2215 10.9453 10.2035C10.9453 10.1855 10.9338 10.172 10.9178 10.172H10.7438ZM10.4763 10.004C10.4488 10.041 10.4273 10.092 10.4218 10.164C10.4233 10.088 10.4468 10.039 10.4763 10.004Z" fill="#FFC804"/>
<path d="M11.9937 13.369C12.0017 13.377 12.0172 13.379 12.0252 13.371L12.0817 13.3145L12.0487 13.2815L12.0232 13.307L11.9997 13.2815L12.0232 13.256L11.9902 13.223L11.9647 13.2465L11.9392 13.223L11.9647 13.1975L11.9317 13.1625L11.8752 13.219C11.8652 13.229 11.8672 13.2405 11.8752 13.2485L11.9937 13.369Z" fill="#FFC804"/>
<path d="M12.3196 13.6055L12.2961 13.58L12.3196 13.5545L12.2866 13.5195L12.2611 13.545L12.2356 13.5215L12.2611 13.496L12.2281 13.461L12.1716 13.5175C12.1616 13.5275 12.1636 13.539 12.1716 13.547L12.2926 13.67C12.3006 13.678 12.3141 13.678 12.3221 13.67L12.3786 13.6155L12.3456 13.5805L12.3196 13.6055Z" fill="#FFC804"/>
<path d="M11.9876 13.3635L11.8801 13.256L11.7786 13.348L11.8936 13.465L11.9876 13.3635Z" fill="#FFC804"/>
<path d="M12.0757 13.6465L12.1907 13.7635L12.2862 13.662L12.1767 13.5525L12.0757 13.6465Z" fill="#FFC804"/>
<path d="M11.6893 13.381C11.6793 13.391 11.6778 13.4065 11.6873 13.416L11.6933 13.424L11.4998 13.5745L11.6148 13.6915C11.6263 13.6815 11.6343 13.68 11.6463 13.672C11.6363 13.68 11.6268 13.6835 11.6148 13.6935L11.4918 13.5705C11.4818 13.559 11.4643 13.5605 11.4528 13.5725C11.4393 13.586 11.4373 13.604 11.4468 13.6135L11.9233 14.09C11.9333 14.1 11.9508 14.098 11.9623 14.086C11.9758 14.0745 11.9778 14.0565 11.9663 14.047L11.8433 13.922L11.9603 14.037L12.1148 13.8475L12.1228 13.8535C12.1308 13.8635 12.1483 13.8615 12.1578 13.8495C12.1693 13.8395 12.1713 13.824 12.1618 13.8145L11.7263 13.377C11.7163 13.367 11.7008 13.369 11.6893 13.381ZM11.9233 13.7635C11.9173 13.8065 11.8998 13.8575 11.8508 13.91C11.8963 13.8575 11.9158 13.8065 11.9233 13.7635Z" fill="#FFC804"/>
<path d="M12.1656 13.2205L12.1091 13.277C12.0991 13.285 12.1011 13.2985 12.1091 13.3065L12.2321 13.4315C12.2421 13.4395 12.2556 13.4415 12.2636 13.4315L12.3201 13.377L12.2851 13.342L12.2616 13.3675L12.2361 13.342L12.2616 13.3165L12.2266 13.2815L12.2011 13.307L12.1756 13.2815L12.2011 13.256L12.1656 13.2205Z" fill="#FFC804"/>
<path d="M12.0463 13.615L12.2203 13.4275L12.1148 13.322L11.9253 13.494L12.0463 13.615Z" fill="#FFC804"/>
<path d="M11.7181 13.328C11.7081 13.3395 11.7066 13.3575 11.7161 13.365L12.1711 13.822C12.1811 13.832 12.1986 13.832 12.2081 13.82C12.2196 13.81 12.2196 13.7925 12.2121 13.783L11.7551 13.326C11.7456 13.3185 11.7301 13.3185 11.7181 13.328Z" fill="#FFC804"/>
<path d="M12.0696 11.412V11.492C12.0696 11.5035 12.0811 11.5115 12.0911 11.5115H12.2651C12.2751 11.5115 12.2866 11.5035 12.2866 11.492V11.412H12.2396V11.447H12.2046V11.412H12.1556V11.447H12.1206V11.41L12.0696 11.412Z" fill="#FFC804"/>
<path d="M12.4937 11.412V11.492C12.4937 11.5035 12.5037 11.5115 12.5152 11.5115H12.6872C12.6972 11.5115 12.7087 11.5035 12.7087 11.492V11.412H12.6617V11.447H12.6267V11.412H12.5777V11.447H12.5427V11.41L12.4937 11.412Z" fill="#FFC804"/>
<path d="M12.2612 11.6505L12.2552 11.514H12.1007L12.0947 11.6505H12.2612Z" fill="#FFC804"/>
<path d="M12.6833 11.6505L12.6773 11.514H12.5228L12.5188 11.6505H12.6833Z" fill="#FFC804"/>
<path d="M12.3042 11.6505H12.4762L12.4647 11.3925L12.3142 11.3945L12.3042 11.6505Z" fill="#FFC804"/>
<path d="M12.2786 11.287V11.367C12.2786 11.3785 12.2886 11.3865 12.3001 11.3865H12.4761C12.4876 11.3865 12.4976 11.3785 12.4976 11.367V11.287H12.4486V11.322H12.4136V11.287H12.3626V11.322H12.3276V11.285H12.2786V11.287Z" fill="#FFC804"/>
<path d="M12.0408 11.6795C12.0408 11.695 12.0523 11.707 12.0663 11.707H12.7128C12.7263 11.707 12.7383 11.6955 12.7383 11.6795C12.7383 11.6635 12.7268 11.65 12.7128 11.65H12.0658C12.0523 11.6505 12.0408 11.664 12.0408 11.6795Z" fill="#FFC804"/>
<path d="M12.5502 12.008H12.7162L12.6887 11.764H12.6987C12.7122 11.764 12.7222 11.7525 12.7222 11.7365C12.7222 11.7205 12.7122 11.707 12.6987 11.707H12.0797C12.0682 11.707 12.0562 11.7205 12.0562 11.7365C12.0562 11.7525 12.0677 11.764 12.0797 11.764H12.0897L12.0602 12.008H12.2262C12.2262 11.9945 12.2322 11.9865 12.2342 11.973C12.2322 11.9845 12.2262 11.9945 12.2262 12.008H12.0522C12.0387 12.008 12.0247 12.0235 12.0247 12.0395C12.0247 12.057 12.0362 12.071 12.0522 12.071H12.7262C12.7397 12.071 12.7517 12.0575 12.7517 12.0395C12.7517 12.024 12.7402 12.008 12.7262 12.008H12.5502ZM12.4937 11.84C12.5232 11.875 12.5462 11.924 12.5482 12C12.5427 11.9275 12.5212 11.877 12.4937 11.84Z" fill="#FFC804"/>
<path d="M12.0913 9.67598H12.2653C12.2753 9.67598 12.2868 9.66798 12.2868 9.65648V9.57648H12.2398V9.61148H12.2048V9.57648H12.1558V9.61148H12.1208V9.57648H12.0718V9.65648C12.0698 9.66798 12.0818 9.67598 12.0913 9.67598Z" fill="#FFC804"/>
<path d="M12.2612 9.81448L12.2552 9.67798H12.1007L12.0947 9.81448H12.2612Z" fill="#FFC804"/>
<path d="M12.4937 9.57599V9.65599C12.4937 9.66949 12.5037 9.67749 12.5152 9.67749H12.6872C12.6972 9.67749 12.7087 9.66749 12.7087 9.65599V9.57599H12.6617V9.61099H12.6267V9.57599H12.5777V9.61099H12.5427V9.57599H12.4937Z" fill="#FFC804"/>
<path d="M12.6833 9.81448L12.6773 9.67798H12.5228L12.5188 9.81448H12.6833Z" fill="#FFC804"/>
<path d="M12.3042 9.81452H12.4762L12.4647 9.55652L12.3142 9.55852L12.3042 9.81452Z" fill="#FFC804"/>
<path d="M12.3001 9.55102H12.4761C12.4876 9.55102 12.4976 9.54302 12.4976 9.53152V9.45152H12.4486V9.48652H12.4136V9.45152H12.3626V9.48652H12.3276V9.44952H12.2786V9.52952C12.2786 9.54302 12.2886 9.55102 12.3001 9.55102Z" fill="#FFC804"/>
<path d="M12.7123 9.87103C12.7258 9.87103 12.7378 9.85953 12.7378 9.84353C12.7378 9.82753 12.7263 9.81403 12.7123 9.81403H12.0658C12.0523 9.81403 12.0403 9.82753 12.0403 9.84353C12.0403 9.85953 12.0518 9.87103 12.0658 9.87103H12.7123Z" fill="#FFC804"/>
<path d="M12.7262 10.2345C12.7397 10.2345 12.7517 10.221 12.7517 10.203C12.7517 10.185 12.7402 10.1715 12.7262 10.1715H12.5502H12.7162L12.6887 9.92748H12.6987C12.7122 9.92748 12.7222 9.91398 12.7222 9.89998C12.7222 9.88448 12.7122 9.87048 12.6987 9.87048H12.0797C12.0682 9.87048 12.0562 9.88398 12.0562 9.89998C12.0562 9.91348 12.0677 9.92748 12.0797 9.92748H12.0897L12.0602 10.1715H12.2262C12.2262 10.158 12.2322 10.15 12.2342 10.1365C12.2322 10.148 12.2262 10.158 12.2262 10.1715H12.0522C12.0387 10.1715 12.0247 10.185 12.0247 10.203C12.0247 10.221 12.0362 10.2345 12.0522 10.2345H12.7262ZM12.4937 10.004C12.5232 10.039 12.5462 10.088 12.5482 10.164C12.5427 10.092 12.5212 10.041 12.4937 10.004Z" fill="#FFC804"/>
<path d="M8.96057 13.7775L8.85107 13.6625L8.97407 13.5395L9.09107 13.647L8.96057 13.7775ZM8.87807 13.662L8.96007 13.748L9.06157 13.6485L8.97357 13.5685L8.87807 13.662Z" fill="black"/>
<path d="M9.25716 13.4785L9.14966 13.3635L9.27066 13.2425L9.38766 13.348L9.25716 13.4785ZM9.17716 13.365L9.25716 13.451L9.35866 13.3495L9.27266 13.2695L9.17716 13.365Z" fill="black"/>
<path d="M8.84308 13.6835C8.83508 13.6835 8.82758 13.6815 8.82158 13.6755L8.75708 13.613L8.76508 13.607L8.77308 13.613L8.76508 13.607L8.80608 13.566L8.82958 13.5895L8.84108 13.5795L8.81558 13.554L8.86458 13.505L8.89008 13.5305L8.90008 13.5205L8.87458 13.495L8.92358 13.446L8.98808 13.5105C8.99958 13.522 8.99958 13.542 8.98608 13.5535L8.86508 13.6745C8.86058 13.6815 8.85108 13.6835 8.84308 13.6835ZM8.78658 13.6135L8.83558 13.6625C8.83958 13.6665 8.84708 13.6665 8.85308 13.6605L8.97408 13.5395C8.97808 13.5355 8.97808 13.5295 8.97408 13.524L8.92308 13.475L8.90358 13.4945L8.92908 13.52L8.89008 13.559L8.86458 13.5335L8.84508 13.555L8.87058 13.5805L8.83158 13.6175L8.80608 13.594L8.78658 13.6135Z" fill="black"/>
<path d="M9.1403 13.3865C9.1323 13.3865 9.1248 13.3825 9.1188 13.3785L9.0603 13.32V13.31L9.1033 13.267L9.1288 13.2925L9.1388 13.281L9.1133 13.2575L9.1623 13.2085L9.1878 13.234L9.1978 13.2225L9.1743 13.197L9.2213 13.15L9.2858 13.2125C9.2993 13.224 9.2973 13.244 9.2858 13.2555L9.1648 13.3765C9.1578 13.383 9.1498 13.3865 9.1403 13.3865ZM9.0838 13.3145L9.1328 13.3635C9.1368 13.3675 9.1463 13.3675 9.1503 13.3635L9.2713 13.2405C9.2753 13.2365 9.2773 13.2305 9.2713 13.225L9.2223 13.176L9.2008 13.1975L9.2263 13.223L9.1873 13.262L9.1638 13.2365L9.1423 13.256L9.1678 13.2815L9.1288 13.3205L9.1053 13.295L9.0838 13.3145Z" fill="black"/>
<path d="M9.0307 13.4435C9.0112 13.426 9.0367 13.4005 9.0542 13.42L9.0992 13.463L9.0737 13.4865L9.0307 13.4435Z" fill="black"/>
<path d="M8.94259 13.6565C8.92709 13.639 8.94859 13.6155 8.96609 13.633L8.99909 13.666L8.97759 13.6895L8.94259 13.6565Z" fill="black"/>
<path d="M9.24166 13.3575C9.22616 13.34 9.24766 13.3165 9.26516 13.334L9.29816 13.367L9.27466 13.3905L9.24166 13.3575Z" fill="black"/>
<path d="M8.61079 12.0175H8.42529L8.45479 11.752L8.45679 11.746L9.07029 11.744L9.10329 12.0175H8.91579V12.0075C8.91179 11.818 8.76329 11.775 8.76129 11.775C8.76129 11.775 8.61279 11.8045 8.61079 12.0075V12.0175ZM8.93529 11.998H9.07979L9.05229 11.7635H8.78879C8.80629 11.7735 8.82979 11.787 8.85329 11.8065C8.88829 11.84 8.93129 11.9005 8.93529 11.998ZM8.44679 11.998H8.59129C8.59529 11.8885 8.64229 11.828 8.68129 11.797C8.69879 11.7815 8.71629 11.7715 8.73229 11.7655H8.47229L8.44679 11.998Z" fill="black"/>
<path d="M9.09918 12.08H8.42518C8.40568 12.08 8.38818 12.0605 8.38818 12.039C8.38818 12.0155 8.40368 11.998 8.42518 11.998H9.09918C9.11868 11.998 9.13418 12.0155 9.13418 12.039C9.13418 12.0625 9.11868 12.08 9.09918 12.08ZM8.42518 12.0175C8.41718 12.0175 8.40968 12.0275 8.40968 12.039C8.40968 12.0505 8.41768 12.0605 8.42518 12.0605H9.09918C9.10918 12.0605 9.11468 12.0505 9.11468 12.039C9.11468 12.0275 9.10868 12.0175 9.09918 12.0175H8.42518Z" fill="black"/>
<path d="M8.86468 12.0175H8.66918V12.0075H8.65918C8.66118 11.9215 8.69618 11.8725 8.72568 11.8495C8.72568 11.8495 8.75318 11.828 8.76068 11.828C8.76668 11.828 8.86218 11.873 8.86418 12.0075V12.0175H8.86468ZM8.68118 11.996H8.84318C8.83918 11.8965 8.77668 11.8575 8.76118 11.8495C8.74568 11.8575 8.68518 11.8965 8.68118 11.996Z" fill="black"/>
<path d="M9.0858 11.717H8.4393C8.4198 11.717 8.4043 11.6995 8.4043 11.68C8.4043 11.6585 8.4198 11.641 8.4393 11.641H9.0858C9.1053 11.641 9.1208 11.6585 9.1208 11.68C9.1208 11.699 9.1053 11.717 9.0858 11.717ZM8.4393 11.66C8.4313 11.66 8.4238 11.67 8.4238 11.6795C8.4238 11.689 8.4318 11.697 8.4393 11.697H9.0858C9.0938 11.697 9.1013 11.689 9.1013 11.6795C9.1013 11.67 9.0933 11.66 9.0858 11.66H8.4393Z" fill="black"/>
<path d="M8.85109 11.3985H8.67509C8.65759 11.3985 8.64209 11.383 8.64209 11.367V11.283L8.65009 11.279H8.71259V11.312H8.72809V11.277H8.79659V11.312H8.81409V11.277H8.88259V11.367C8.88209 11.385 8.86859 11.3985 8.85109 11.3985ZM8.66359 11.297V11.3675C8.66359 11.3715 8.66959 11.3775 8.67509 11.3775H8.85109C8.85709 11.3775 8.86259 11.3735 8.86259 11.3675V11.297H8.83309V11.332H8.77659V11.297H8.74709V11.332H8.69259V11.299L8.66359 11.297Z" fill="black"/>
<path d="M9.07168 11.7735H8.45268C8.43518 11.7735 8.41968 11.756 8.41968 11.7345C8.41968 11.715 8.43518 11.6975 8.45268 11.6975H9.07168C9.08918 11.6975 9.10468 11.715 9.10468 11.7345C9.10518 11.756 9.08918 11.7735 9.07168 11.7735ZM8.45268 11.717C8.44468 11.717 8.43918 11.725 8.43918 11.7365C8.43918 11.7465 8.44518 11.754 8.45268 11.754H9.07168C9.07968 11.754 9.08518 11.746 9.08518 11.7365C9.08518 11.725 9.07718 11.717 9.07168 11.717H8.45268Z" fill="black"/>
<path d="M8.85677 11.66H8.66577L8.67727 11.3845H8.84527L8.85677 11.66ZM8.68727 11.6385L8.83777 11.6405L8.82777 11.404H8.69677L8.68727 11.6385Z" fill="black"/>
<path d="M8.45874 11.66L8.46474 11.5035H8.63674L8.64474 11.66H8.45874ZM8.48174 11.5235L8.47774 11.6405H8.62224L8.61824 11.5235H8.48174Z" fill="black"/>
<path d="M8.88013 11.66L8.88613 11.5035H9.06013L9.06613 11.66H8.88013ZM8.90563 11.5235L8.90163 11.6405H9.04413L9.04013 11.5235H8.90563Z" fill="black"/>
<path d="M8.63612 11.5235H8.46412C8.44662 11.5235 8.43262 11.508 8.43262 11.492V11.408L8.44062 11.404H8.50112V11.437H8.51462V11.402H8.58512V11.437H8.59862V11.402H8.66912V11.492C8.66762 11.51 8.65362 11.5235 8.63612 11.5235ZM8.45262 11.424V11.4925C8.45262 11.4985 8.45862 11.504 8.46412 11.504H8.63612C8.64212 11.504 8.64762 11.5 8.64762 11.4925V11.422H8.62062V11.457H8.56412V11.422H8.53662V11.457H8.48012V11.424H8.45262Z" fill="black"/>
<path d="M9.06024 11.5235H8.88624C8.87074 11.5235 8.85474 11.508 8.85474 11.492V11.408L8.86274 11.404H8.92324V11.437H8.93674V11.402H9.00724V11.437H9.02074V11.402H9.09124V11.492C9.08924 11.51 9.07774 11.5235 9.06024 11.5235ZM8.87474 11.424V11.4925C8.87474 11.4985 8.88074 11.504 8.88824 11.504H9.06024C9.06624 11.504 9.07174 11.5 9.07174 11.4925V11.422H9.04224V11.457H8.98774V11.422H8.95824V11.457H8.90374V11.424H8.87474Z" fill="black"/>
<path d="M8.74568 11.4745C8.74368 11.449 8.78068 11.449 8.77868 11.4745V11.535H8.74568V11.4745Z" fill="black"/>
<path d="M8.53271 11.5645C8.53271 11.539 8.56571 11.539 8.56571 11.5645V11.6115H8.53271V11.5645Z" fill="black"/>
<path d="M8.95679 11.5645C8.95679 11.539 8.98979 11.539 8.98979 11.5645V11.6115H8.95679V11.5645Z" fill="black"/>
<path d="M8.96226 13.84C8.95226 13.84 8.94276 13.836 8.93476 13.8285C8.92126 13.815 8.91926 13.7915 8.93276 13.7775L9.38776 13.3205C9.39376 13.3145 9.40326 13.3105 9.41126 13.3105C9.42126 13.3105 9.43276 13.3165 9.44076 13.322C9.45426 13.3375 9.45626 13.359 9.44276 13.373L8.98776 13.83C8.98026 13.836 8.97226 13.84 8.96226 13.84ZM8.94676 13.791C8.94076 13.797 8.94276 13.8065 8.94876 13.8145C8.95676 13.8205 8.96626 13.8225 8.97426 13.8165L9.42926 13.3595C9.43526 13.3535 9.43326 13.342 9.42526 13.336C9.42126 13.332 9.41726 13.33 9.41376 13.33C9.40976 13.328 9.40576 13.33 9.40376 13.334L8.94676 13.791Z" fill="black"/>
<path d="M9.01315 13.869C9.00315 13.869 8.99365 13.865 8.98565 13.8575C8.97015 13.844 8.96815 13.8205 8.98165 13.8065L9.41715 13.369C9.43065 13.3575 9.45415 13.3575 9.46815 13.373C9.47615 13.381 9.47965 13.3905 9.47965 13.4005C9.47965 13.4105 9.47765 13.418 9.47165 13.424L9.03615 13.8615C9.03065 13.867 9.02315 13.869 9.01315 13.869ZM9.44065 13.381C9.43665 13.381 9.43465 13.383 9.43265 13.385L8.99715 13.8205C8.99115 13.8265 8.99315 13.836 8.99915 13.844C9.00715 13.85 9.01665 13.852 9.02265 13.846L9.45815 13.4105C9.46015 13.4065 9.46015 13.4045 9.46015 13.4005C9.46015 13.3965 9.45815 13.3905 9.45415 13.387C9.45015 13.3835 9.44465 13.381 9.44065 13.381Z" fill="black"/>
<path d="M8.90163 13.4475C8.89363 13.4475 8.88613 13.4455 8.88013 13.4395L8.81763 13.377L8.82363 13.369L8.83163 13.377L8.82363 13.369L8.86463 13.328L8.89013 13.3535L8.90163 13.342L8.87613 13.3165L8.92513 13.2675L8.95063 13.293L8.96213 13.2815L8.93663 13.256L8.98563 13.207L9.05013 13.2695C9.05613 13.2755 9.06013 13.283 9.06013 13.291C9.06013 13.299 9.05613 13.3065 9.05013 13.3145L8.92513 13.4375C8.91913 13.4455 8.90963 13.4475 8.90163 13.4475ZM8.84513 13.377L8.89413 13.426C8.89813 13.43 8.90563 13.43 8.91163 13.424L9.03463 13.301C9.03663 13.297 9.03863 13.295 9.03863 13.291C9.03863 13.291 9.03863 13.285 9.03663 13.283L8.98563 13.234L8.96413 13.2555L8.98963 13.281L8.95063 13.32L8.92513 13.2945L8.90363 13.316L8.92913 13.3415L8.89013 13.3805L8.86663 13.357L8.84513 13.377Z" fill="black"/>
<path d="M9.10522 13.629L8.91772 13.426L9.03673 13.309L9.24172 13.4945L9.10522 13.629ZM8.94473 13.4275L9.10472 13.6015L9.21222 13.494L9.03622 13.336L8.94473 13.4275Z" fill="black"/>
<path d="M9.35671 13.8865L9.34871 13.8785C9.29021 13.82 9.28021 13.7635 9.28221 13.726C9.28221 13.7085 9.28821 13.685 9.29221 13.681L9.29621 13.679C9.30021 13.677 9.39571 13.64 9.49371 13.7335L9.49971 13.7415L9.35671 13.8865ZM9.30821 13.6975C9.30221 13.713 9.28671 13.7835 9.35721 13.8575L9.47221 13.7425C9.39821 13.674 9.32571 13.6915 9.30821 13.6975Z" fill="black"/>
<path d="M9.21222 14.1055C9.20072 14.1055 9.18872 14.1015 9.18072 14.094C9.16522 14.0765 9.16322 14.053 9.17672 14.0395L9.65122 13.563C9.65922 13.555 9.66872 13.553 9.67872 13.553C9.68872 13.555 9.69822 13.559 9.70622 13.5665C9.72172 13.582 9.72372 13.6055 9.71022 13.619L9.23572 14.0955C9.23022 14.1035 9.22022 14.1055 9.21222 14.1055ZM9.19072 14.0525C9.18472 14.0585 9.18672 14.07 9.19472 14.078C9.20272 14.086 9.21422 14.088 9.22022 14.082L9.69672 13.6055C9.70272 13.5995 9.70072 13.588 9.69272 13.58C9.68872 13.576 9.68272 13.572 9.67722 13.572C9.67322 13.572 9.66922 13.572 9.66572 13.576L9.19072 14.0525Z" fill="black"/>
<path d="M9.1908 14.0525L9.0228 13.8455L9.0188 13.8375L9.0248 13.8335L9.4508 13.404L9.6693 13.574L9.5383 13.705L9.5303 13.699C9.3918 13.568 9.2568 13.6425 9.2548 13.6445C9.2568 13.6445 9.1708 13.7695 9.3153 13.914L9.3213 13.922L9.1908 14.0525ZM9.0443 13.842L9.1928 14.0235L9.2943 13.922C9.2183 13.842 9.2083 13.7655 9.2123 13.715C9.2143 13.6935 9.2203 13.674 9.2258 13.6585L9.0443 13.842ZM9.3533 13.6015C9.4003 13.6015 9.4683 13.617 9.5368 13.6775L9.6383 13.576L9.4528 13.4315L9.2673 13.617C9.2848 13.611 9.3103 13.6035 9.3413 13.6015C9.3453 13.6015 9.3493 13.6015 9.3533 13.6015Z" fill="black"/>
<path d="M8.74568 9.63851C8.74368 9.61301 8.78068 9.61301 8.77868 9.63851V9.69901H8.74568V9.63851Z" fill="black"/>
<path d="M8.53271 9.72649C8.53271 9.70299 8.56571 9.70299 8.56571 9.72649V9.77549H8.53271V9.72649Z" fill="black"/>
<path d="M8.95679 9.72649C8.95679 9.70299 8.98979 9.70299 8.98979 9.72649V9.77549H8.95679V9.72649Z" fill="black"/>
<path d="M9.06024 9.68548H8.88624C8.87074 9.68548 8.85474 9.67198 8.85474 9.65598V9.57198L8.86274 9.56798H8.92324V9.60098H8.93674V9.56598H9.00724V9.60098H9.02074V9.56598H9.09124V9.65598C9.08924 9.67398 9.07774 9.68548 9.06024 9.68548ZM8.87474 9.58798V9.65648C8.87474 9.66248 8.88074 9.66798 8.88824 9.66798H9.06024C9.06624 9.66798 9.07174 9.66398 9.07174 9.65648V9.58598H9.04224V9.62098H8.98774V9.58598H8.95824V9.62098H8.90374V9.58798H8.87474Z" fill="black"/>
<path d="M8.63612 9.68548H8.46412C8.44662 9.68548 8.43262 9.67198 8.43262 9.65598V9.57198L8.44062 9.56798H8.50112V9.60098H8.51462V9.56598H8.58512V9.60098H8.59862V9.56598H8.66912V9.65598C8.66762 9.67398 8.65362 9.68548 8.63612 9.68548ZM8.45262 9.58798V9.65648C8.45262 9.66248 8.45862 9.66798 8.46412 9.66798H8.63612C8.64212 9.66798 8.64762 9.66398 8.64762 9.65648V9.58598H8.62062V9.62098H8.56412V9.58598H8.53662V9.62098H8.48012V9.58798H8.45262Z" fill="black"/>
<path d="M8.88013 9.82398L8.88613 9.66748H9.06013L9.06613 9.82398H8.88013ZM8.90563 9.68548L8.90163 9.80448H9.04413L9.04013 9.68548H8.90563Z" fill="black"/>
<path d="M8.45874 9.82398L8.46474 9.66748H8.63674L8.64474 9.82398H8.45874ZM8.48174 9.68548L8.47774 9.80448H8.62224L8.61824 9.68548H8.48174Z" fill="black"/>
<path d="M8.85677 9.82402H8.66577L8.67727 9.54852H8.84527L8.85677 9.82402ZM8.68727 9.80252L8.83777 9.80452L8.82777 9.56802H8.69677L8.68727 9.80252Z" fill="black"/>
<path d="M8.85109 9.56048H8.67509C8.65759 9.56048 8.64209 9.54698 8.64209 9.53098V9.44698L8.65009 9.44098H8.71259V9.47598H8.72809V9.44098H8.79659V9.47598H8.81409V9.44098H8.88259V9.52898C8.88209 9.54898 8.86859 9.56048 8.85109 9.56048ZM8.66359 9.46098V9.53148C8.66359 9.53548 8.66959 9.54148 8.67509 9.54148H8.85109C8.85709 9.54148 8.86259 9.53748 8.86259 9.53148V9.46098H8.83309V9.49598H8.77659V9.46098H8.74709V9.49598H8.69259V9.46298L8.66359 9.46098Z" fill="black"/>
<path d="M9.07168 9.93751H8.45268C8.43518 9.93751 8.41968 9.92001 8.41968 9.89851C8.41968 9.87901 8.43518 9.86151 8.45268 9.86151H9.07168C9.08918 9.86151 9.10468 9.87901 9.10468 9.89851C9.10518 9.92001 9.08918 9.93751 9.07168 9.93751ZM8.45268 9.88101C8.44468 9.88101 8.43918 9.88901 8.43918 9.90051C8.43918 9.91051 8.44518 9.91801 8.45268 9.91801H9.07168C9.07968 9.91801 9.08518 9.91001 9.08518 9.90051C9.08518 9.88901 9.07718 9.88101 9.07168 9.88101H8.45268Z" fill="black"/>
<path d="M9.0858 9.88099H8.4393C8.4198 9.88099 8.4043 9.86349 8.4043 9.84399C8.4043 9.82249 8.4198 9.80499 8.4393 9.80499H9.0858C9.1053 9.80499 9.1208 9.82249 9.1208 9.84399C9.1208 9.86349 9.1053 9.88099 9.0858 9.88099ZM8.4393 9.82399C8.4313 9.82399 8.4238 9.83399 8.4238 9.84349C8.4238 9.85149 8.4318 9.86099 8.4393 9.86099H9.0858C9.0938 9.86099 9.1013 9.85299 9.1013 9.84349C9.1013 9.83199 9.0933 9.82399 9.0858 9.82399H8.4393Z" fill="black"/>
<path d="M8.86468 10.1815H8.66918V10.1715H8.65918C8.66118 10.0855 8.69618 10.0365 8.72568 10.0135C8.72568 10.0135 8.75318 9.992 8.76068 9.992C8.76668 9.992 8.86218 10.037 8.86418 10.1715V10.1815H8.86468ZM8.68118 10.16H8.84318C8.83918 10.0605 8.77668 10.0215 8.76118 10.0135C8.74568 10.0215 8.68518 10.0605 8.68118 10.16Z" fill="black"/>
<path d="M9.09918 10.244H8.42518C8.40568 10.244 8.38818 10.2245 8.38818 10.203C8.38818 10.1795 8.40368 10.162 8.42518 10.162H9.09918C9.11868 10.162 9.13418 10.1795 9.13418 10.203C9.13418 10.2265 9.11868 10.244 9.09918 10.244ZM8.42518 10.1815C8.41718 10.1815 8.40968 10.1915 8.40968 10.203C8.40968 10.2145 8.41768 10.2245 8.42518 10.2245H9.09918C9.10918 10.2245 9.11468 10.2145 9.11468 10.203C9.11468 10.1915 9.10868 10.1815 9.09918 10.1815H8.42518Z" fill="black"/>
<path d="M8.61079 10.1815H8.42529L8.45479 9.91602L8.45679 9.91002L9.07029 9.90802L9.10329 10.1815H8.91579V10.1715C8.91179 9.98202 8.76329 9.93902 8.76129 9.93902C8.76129 9.93902 8.61279 9.96852 8.61079 10.1715V10.1815ZM8.93529 10.162H9.07979L9.05229 9.92752H8.78879C8.80629 9.93552 8.82979 9.95102 8.85329 9.97052C8.88829 10.004 8.93129 10.0645 8.93529 10.162ZM8.44679 10.162H8.59129C8.59529 10.0525 8.64229 9.99202 8.68129 9.96102C8.69879 9.94552 8.71629 9.93552 8.73229 9.92952H8.47229L8.44679 10.162Z" fill="black"/>
<path d="M10.5717 14.6935C9.96819 14.6935 9.39769 14.457 8.96419 14.0295C8.53269 13.6 8.29419 13.0335 8.29419 12.4355L8.31369 12.4335V12.4355C8.31369 13.0295 8.55019 13.59 8.97769 14.0135C9.40719 14.4395 9.97369 14.6735 10.5717 14.6735C11.1732 14.6735 11.7377 14.441 12.1657 14.017C12.5897 13.595 12.8237 13.0385 12.8277 12.4445V9.40152H8.31569L8.31369 12.433H8.29419L8.29619 9.38202H12.8472V12.4385C12.8472 13.038 12.6087 13.6045 12.1792 14.0325C11.7497 14.459 11.1792 14.6935 10.5717 14.6935ZM10.5697 13.799C10.2162 13.799 9.87819 13.6565 9.61469 13.3965C9.35869 13.1425 9.21219 12.795 9.21219 12.4395V10.287H9.22219L11.9312 10.293L11.9372 10.299V12.2405L11.9352 12.4455C11.9352 12.502 11.9312 12.5645 11.9252 12.6155C11.8902 12.9125 11.7532 13.184 11.5347 13.4025C11.2767 13.658 10.9352 13.799 10.5697 13.799ZM9.23169 10.3085L9.23369 12.4395C9.23369 12.789 9.37819 13.133 9.62819 13.383C9.88819 13.639 10.2222 13.7795 10.5697 13.7795C10.9272 13.7795 11.2652 13.641 11.5207 13.389C11.7357 13.174 11.8702 12.9065 11.9057 12.6135C11.9117 12.5625 11.9157 12.502 11.9157 12.4475V10.3145L9.23169 10.3085Z" fill="black"/>
<path d="M10.5736 14.795C9.95064 14.795 9.35664 14.545 8.90164 14.094C8.45414 13.6505 8.20614 13.0645 8.20264 12.4435V9.27551L12.9546 9.27951V12.432C12.9546 13.061 12.7066 13.6545 12.2556 14.102C11.8061 14.549 11.2086 14.795 10.5736 14.795ZM8.23014 12.416V12.4295C8.23014 13.0485 8.47414 13.6325 8.91964 14.074C9.37064 14.5215 9.95864 14.7675 10.5741 14.7675C11.2031 14.7675 11.7931 14.5255 12.2381 14.082C12.6816 13.6425 12.9256 13.0605 12.9276 12.4415V9.30651L8.23014 9.30051V12.416Z" fill="black"/>
<path d="M10.6987 9.82398L10.7047 9.66748H10.8787L10.8847 9.82398H10.6987ZM10.7242 9.68548L10.7202 9.80448H10.8627L10.8587 9.68548H10.7242Z" fill="black"/>
<path d="M10.8781 9.68548H10.7061C10.6886 9.68548 10.6731 9.67198 10.6731 9.65598V9.57198L10.6811 9.56798H10.7416V9.60098H10.7571V9.56598H10.8256V9.60098H10.8411V9.56598H10.9096V9.65598C10.9096 9.67398 10.8961 9.68548 10.8781 9.68548ZM10.6946 9.58798V9.65648C10.6946 9.66248 10.7006 9.66798 10.7061 9.66798H10.8781C10.8841 9.66798 10.8896 9.66398 10.8896 9.65648V9.58598H10.8606V9.62098H10.8061V9.58598H10.7766V9.62098H10.7221V9.58798H10.6946Z" fill="black"/>
<path d="M10.4567 9.68548H10.2847C10.2672 9.68548 10.2517 9.67198 10.2517 9.65598V9.57198L10.2597 9.56798H10.3202V9.60098H10.3357V9.56598H10.4042V9.60098H10.4197V9.56598H10.4882V9.65598C10.4877 9.67398 10.4742 9.68548 10.4567 9.68548ZM10.2712 9.58798V9.65648C10.2712 9.66248 10.2772 9.66798 10.2847 9.66798H10.4567C10.4627 9.66798 10.4682 9.66398 10.4682 9.65648V9.58598H10.4387V9.62098H10.3842V9.58598H10.3547V9.62098H10.3002V9.58798H10.2712Z" fill="black"/>
<path d="M10.5642 9.63851C10.5642 9.61301 10.5992 9.61301 10.5992 9.63851V9.69901H10.5642V9.63851Z" fill="black"/>
<path d="M10.3533 9.72649C10.3533 9.70299 10.3863 9.70299 10.3848 9.72649V9.77549H10.3533V9.72649Z" fill="black"/>
<path d="M10.7747 9.72649C10.7747 9.70299 10.8097 9.70299 10.8077 9.72649V9.77549H10.7747V9.72649Z" fill="black"/>
<path d="M10.2766 9.82398L10.2826 9.66748H10.4566L10.4626 9.82398H10.2766ZM10.3021 9.68548L10.2981 9.80448H10.4406L10.4366 9.68548H10.3021Z" fill="black"/>
<path d="M10.6771 9.82402H10.4856L10.4971 9.54852H10.6651L10.6771 9.82402ZM10.5051 9.80252L10.6556 9.80452L10.6456 9.56802H10.5166L10.5051 9.80252Z" fill="black"/>
<path d="M10.6691 9.56048H10.4956C10.4781 9.56048 10.4626 9.54698 10.4626 9.53098V9.44698L10.4686 9.44098H10.5311V9.47598H10.5466V9.44098H10.6171V9.47598H10.6326V9.44098H10.7031V9.52898C10.7026 9.54898 10.6891 9.56048 10.6691 9.56048ZM10.4816 9.46098V9.53148C10.4816 9.53548 10.4876 9.54148 10.4951 9.54148H10.6691C10.6751 9.54148 10.6826 9.53748 10.6826 9.53148V9.46098H10.6511V9.49598H10.5966V9.46098H10.5656V9.49598H10.5111V9.46298L10.4816 9.46098Z" fill="black"/>
<path d="M10.8903 9.93751H10.2713C10.2538 9.93751 10.2383 9.92001 10.2383 9.89851C10.2383 9.87901 10.2538 9.86151 10.2713 9.86151H10.8903C10.9078 9.86151 10.9233 9.87901 10.9233 9.89851C10.9233 9.92001 10.9078 9.93751 10.8903 9.93751ZM10.2713 9.88101C10.2653 9.88101 10.2578 9.88901 10.2578 9.90051C10.2578 9.91051 10.2658 9.91801 10.2713 9.91801H10.8903C10.8983 9.91801 10.9038 9.91001 10.9038 9.90051C10.9038 9.88901 10.8978 9.88101 10.8903 9.88101H10.2713Z" fill="black"/>
<path d="M10.9036 9.88099H10.2571C10.2396 9.88099 10.2241 9.86349 10.2241 9.84399C10.2241 9.82249 10.2396 9.80499 10.2571 9.80499H10.9036C10.9231 9.80499 10.9386 9.82249 10.9386 9.84399C10.9391 9.86349 10.9231 9.88099 10.9036 9.88099ZM10.2571 9.82399C10.2491 9.82399 10.2436 9.83399 10.2436 9.84349C10.2436 9.85149 10.2496 9.86099 10.2571 9.86099H10.9036C10.9136 9.86099 10.9191 9.85299 10.9191 9.84349C10.9191 9.83199 10.9131 9.82399 10.9036 9.82399H10.2571Z" fill="black"/>
<path d="M10.6832 10.1815H10.4897V10.1715H10.4797C10.4797 10.0855 10.5147 10.0365 10.5442 10.0135C10.5462 10.0135 10.5717 9.992 10.5812 9.992C10.5872 9.992 10.6827 10.039 10.6827 10.1715V10.1815H10.6832ZM10.4997 10.16H10.6637C10.6577 10.0605 10.5952 10.0215 10.5797 10.0135C10.5642 10.0215 10.5032 10.0605 10.4997 10.16Z" fill="black"/>
<path d="M10.9177 10.244H10.2437C10.2242 10.244 10.2087 10.2245 10.2087 10.203C10.2087 10.1795 10.2242 10.162 10.2437 10.162H10.9177C10.9372 10.162 10.9547 10.1795 10.9547 10.203C10.9547 10.2265 10.9392 10.244 10.9177 10.244ZM10.2437 10.1815C10.2357 10.1815 10.2282 10.1915 10.2282 10.203C10.2282 10.2145 10.2362 10.2245 10.2437 10.2245H10.9197C10.9277 10.2245 10.9352 10.2145 10.9352 10.203C10.9352 10.1915 10.9272 10.1815 10.9197 10.1815H10.2437Z" fill="black"/>
<path d="M10.4292 10.1815H10.2437L10.2732 9.91002L10.8902 9.90802L10.9217 10.1815H10.7357V10.1715C10.7317 9.98202 10.5812 9.93902 10.5812 9.93902C10.5812 9.93902 10.4307 9.96852 10.4307 10.1715L10.4292 10.1815ZM10.7532 10.162H10.8977L10.8702 9.92752H10.6087C10.6262 9.93552 10.6497 9.95102 10.6712 9.97052C10.7067 10.004 10.7497 10.0645 10.7532 10.162ZM10.2672 10.162H10.4097C10.4137 10.0525 10.4607 9.99202 10.4997 9.96102C10.5172 9.94552 10.5367 9.93552 10.5507 9.92952H10.2907L10.2672 10.162Z" fill="black"/>
<path d="M11.9098 13.3575C11.9253 13.34 11.9038 13.3165 11.8863 13.334L11.8533 13.367L11.8768 13.3905L11.9098 13.3575Z" fill="black"/>
<path d="M12.1207 13.4435C12.1402 13.426 12.1147 13.4005 12.0972 13.42L12.0522 13.463L12.0777 13.4865L12.1207 13.4435Z" fill="black"/>
<path d="M12.2086 13.6565C12.2241 13.639 12.2026 13.6155 12.1851 13.633L12.1521 13.666L12.1736 13.6895L12.2086 13.6565Z" fill="black"/>
<path d="M12.0113 13.3865C12.0013 13.3865 11.9938 13.3825 11.9878 13.3765L11.8668 13.2555C11.8553 13.242 11.8553 13.224 11.8668 13.2125L11.9313 13.148L11.9783 13.197L11.9548 13.2225L11.9648 13.2325L11.9903 13.207L12.0393 13.256L12.0138 13.2815L12.0238 13.293L12.0493 13.2675L12.0923 13.3125L12.0903 13.3205L12.0338 13.377C12.0268 13.383 12.0193 13.3865 12.0113 13.3865ZM11.9293 13.176L11.8803 13.225C11.8743 13.231 11.8763 13.2365 11.8803 13.2405L12.0013 13.3635C12.0053 13.3675 12.0148 13.3675 12.0188 13.3635L12.0678 13.3145L12.0483 13.295L12.0228 13.3205L11.9838 13.2815L12.0093 13.256L11.9898 13.2365L11.9643 13.262L11.9253 13.223L11.9508 13.1975L11.9293 13.176Z" fill="black"/>
<path d="M12.3082 13.6835C12.3002 13.6835 12.2907 13.6815 12.2847 13.6755L12.1637 13.5525C12.1522 13.541 12.1522 13.521 12.1637 13.5095L12.2282 13.447L12.2752 13.496L12.2517 13.5195L12.2617 13.531L12.2872 13.5055L12.3362 13.5545L12.3107 13.58L12.3207 13.59L12.3462 13.5665L12.3892 13.6095V13.6175L12.3307 13.676C12.3237 13.6815 12.3157 13.6835 12.3082 13.6835ZM12.2282 13.4745L12.1772 13.5235C12.1732 13.5295 12.1732 13.535 12.1772 13.539L12.2982 13.66C12.3042 13.666 12.3117 13.666 12.3157 13.662L12.3647 13.613L12.3452 13.5935L12.3197 13.619L12.2827 13.58L12.3082 13.5545L12.2867 13.535L12.2612 13.5585L12.2242 13.5195L12.2477 13.496L12.2282 13.4745Z" fill="black"/>
<path d="M11.8942 13.4785L11.7632 13.3475L11.8802 13.242L12.0012 13.363L11.8942 13.4785ZM11.7927 13.3495L11.8942 13.451L11.9742 13.365L11.8802 13.2695L11.7927 13.3495Z" fill="black"/>
<path d="M12.1908 13.7775L12.0618 13.6465L12.1713 13.547L12.1773 13.553L12.1853 13.547L12.1913 13.553L12.2988 13.6625L12.1908 13.7775ZM12.0893 13.6465L12.1908 13.748L12.2728 13.662L12.1773 13.5665L12.0893 13.6465Z" fill="black"/>
<path d="M12.0462 13.629L11.9097 13.494L12.1147 13.3085L12.2337 13.4275L12.0462 13.629ZM11.9392 13.494L12.0467 13.6015L12.2067 13.4275L12.1147 13.3355L11.9392 13.494Z" fill="black"/>
<path d="M12.2498 13.4475C12.2418 13.4475 12.2323 13.4455 12.2263 13.4375L12.1033 13.3145C12.0973 13.3085 12.0933 13.299 12.0933 13.291C12.0933 13.283 12.0973 13.2755 12.1033 13.2695L12.1658 13.207L12.2168 13.256L12.1913 13.2815L12.2028 13.293L12.2263 13.2675L12.2773 13.3165L12.2518 13.342L12.2618 13.3535L12.2873 13.328L12.3303 13.373L12.3343 13.379L12.2718 13.4395C12.2653 13.4455 12.2573 13.4475 12.2498 13.4475ZM12.1658 13.2345L12.1148 13.2835C12.1128 13.2855 12.1128 13.2895 12.1128 13.2895C12.1128 13.2955 12.1148 13.2975 12.1168 13.301L12.2398 13.424C12.2458 13.428 12.2533 13.43 12.2573 13.426L12.3063 13.377L12.2868 13.3575L12.2613 13.381L12.2223 13.342L12.2478 13.3165L12.2263 13.295L12.2008 13.3205L12.1618 13.2815L12.1873 13.256L12.1658 13.2345Z" fill="black"/>
<path d="M12.1381 13.869C12.1281 13.869 12.1206 13.867 12.1146 13.861L11.6791 13.4235C11.6731 13.4175 11.6711 13.41 11.6711 13.4C11.6711 13.39 11.6751 13.3805 11.6826 13.3725C11.6886 13.3645 11.6981 13.361 11.7081 13.361C11.7181 13.361 11.7256 13.363 11.7336 13.369L12.1691 13.8065C12.1806 13.82 12.1806 13.8415 12.1651 13.8575C12.1576 13.865 12.1481 13.869 12.1381 13.869ZM11.7106 13.381C11.7106 13.381 11.7106 13.381 11.7086 13.381C11.7046 13.381 11.7006 13.383 11.6971 13.387C11.6936 13.391 11.6911 13.397 11.6911 13.4005C11.6911 13.404 11.6911 13.4065 11.6931 13.4105L12.1286 13.846C12.1346 13.852 12.1441 13.85 12.1521 13.844C12.1581 13.836 12.1601 13.8265 12.1541 13.8205L11.7186 13.385C11.7161 13.381 11.7121 13.381 11.7106 13.381Z" fill="black"/>
<path d="M12.1892 13.84C12.1792 13.84 12.1717 13.838 12.1657 13.83L11.7087 13.373C11.6952 13.3595 11.6972 13.338 11.7127 13.322C11.7187 13.314 11.7302 13.3105 11.7402 13.3105C11.7482 13.3105 11.7577 13.3145 11.7637 13.3205L12.2187 13.7775C12.2322 13.791 12.2302 13.8145 12.2167 13.8285C12.2087 13.836 12.1987 13.84 12.1892 13.84ZM11.7397 13.33C11.7337 13.33 11.7297 13.332 11.7262 13.336C11.7182 13.344 11.7182 13.3535 11.7242 13.3595L12.1792 13.8165C12.1852 13.8225 12.1947 13.8205 12.2027 13.8145C12.2087 13.8065 12.2107 13.797 12.2047 13.791L11.7497 13.334C11.7457 13.33 11.7417 13.33 11.7397 13.33Z" fill="black"/>
<path d="M11.7941 13.8865L11.6516 13.742L11.6576 13.734C11.7531 13.64 11.8511 13.6775 11.8551 13.6795L11.8571 13.6815C11.8631 13.6855 11.8686 13.709 11.8686 13.7265C11.8706 13.7635 11.8586 13.8205 11.8021 13.879L11.7941 13.8865ZM11.6791 13.742L11.7941 13.857C11.8646 13.783 11.8486 13.7125 11.8431 13.697C11.8256 13.6915 11.7531 13.674 11.6791 13.742Z" fill="black"/>
<path d="M11.9391 14.1055C11.9311 14.1055 11.9216 14.1035 11.9156 14.0955L11.4411 13.619C11.4276 13.6055 11.4296 13.582 11.4451 13.5665C11.4531 13.5585 11.4626 13.555 11.4726 13.553C11.4826 13.553 11.4921 13.555 11.5001 13.563L11.9746 14.0395C11.9881 14.053 11.9861 14.0765 11.9706 14.094C11.9606 14.1015 11.9506 14.1055 11.9391 14.1055ZM11.4761 13.5725C11.4741 13.5725 11.4741 13.5725 11.4741 13.5725C11.4681 13.5725 11.4626 13.5765 11.4586 13.5805C11.4506 13.5885 11.4486 13.6 11.4546 13.606L11.9291 14.0825C11.9351 14.0885 11.9466 14.0885 11.9566 14.0785C11.9646 14.0705 11.9666 14.059 11.9606 14.053L11.4841 13.5765C11.4816 13.574 11.4801 13.5725 11.4761 13.5725Z" fill="black"/>
<path d="M11.9606 14.0525L11.8296 13.9215L11.8376 13.9135C11.9801 13.769 11.8961 13.644 11.8941 13.642C11.8941 13.642 11.7591 13.568 11.6226 13.6985L11.6146 13.7045L11.4836 13.5735L11.7006 13.4035L12.1341 13.839L12.1281 13.845L11.9606 14.0525ZM11.8566 13.922L11.9581 14.0235L12.1066 13.842L11.9231 13.6585C11.9311 13.674 11.9366 13.6935 11.9386 13.715C11.9426 13.7655 11.9331 13.842 11.8566 13.922ZM11.5131 13.576L11.6146 13.6775C11.6886 13.611 11.7611 13.5995 11.8101 13.6015C11.8396 13.6035 11.8646 13.6095 11.8841 13.617L11.6986 13.4295L11.5131 13.576Z" fill="black"/>
<path d="M12.1946 11.5645C12.1946 11.539 12.1616 11.539 12.1616 11.5645V11.6115H12.1946V11.5645Z" fill="black"/>
<path d="M12.6187 11.5645C12.6187 11.539 12.5857 11.539 12.5857 11.5645V11.6115H12.6187V11.5645Z" fill="black"/>
<path d="M12.4056 11.4745C12.4076 11.449 12.3706 11.449 12.3726 11.4745V11.535H12.4056V11.4745Z" fill="black"/>
<path d="M12.2631 11.5235H12.0911C12.0736 11.5235 12.0596 11.51 12.0596 11.492V11.402H12.1281V11.437H12.1436V11.402H12.2121V11.437H12.2276V11.404H12.2881L12.2961 11.408V11.492C12.2961 11.508 12.2806 11.5235 12.2631 11.5235ZM12.0816 11.422V11.4925C12.0816 11.5005 12.0876 11.5025 12.0916 11.5025H12.2656C12.2716 11.5025 12.2771 11.4985 12.2771 11.4925V11.422H12.2496V11.457H12.1931V11.422H12.1656V11.457H12.1091V11.422H12.0816Z" fill="black"/>
<path d="M12.6872 11.5235H12.5152C12.4977 11.5235 12.4822 11.51 12.4822 11.492V11.402H12.5527V11.437H12.5662V11.402H12.6367V11.437H12.6502V11.404H12.7107L12.7187 11.408V11.492C12.7182 11.508 12.7047 11.5235 12.6872 11.5235ZM12.5032 11.422V11.4925C12.5032 11.5005 12.5092 11.5025 12.5147 11.5025H12.6867C12.6927 11.5025 12.6982 11.4985 12.6982 11.4925V11.422H12.6707V11.457H12.6142V11.422H12.5867V11.457H12.5307V11.422H12.5032Z" fill="black"/>
<path d="M12.2712 11.66H12.0857L12.0917 11.5035H12.2657L12.2712 11.66ZM12.1067 11.6405H12.2492L12.2452 11.5235H12.1102L12.1067 11.6405Z" fill="black"/>
<path d="M12.6926 11.66H12.5071L12.5151 11.5035H12.6871L12.6926 11.66ZM12.5286 11.6405H12.6711L12.6671 11.5235H12.5321L12.5286 11.6405Z" fill="black"/>
<path d="M12.2927 11.66L12.3062 11.3845H12.4742L12.4857 11.66H12.2927ZM12.3237 11.4045L12.3137 11.641L12.4642 11.639L12.4542 11.4045H12.3237Z" fill="black"/>
<path d="M12.4763 11.3985H12.3003C12.2828 11.3985 12.2688 11.385 12.2688 11.367V11.277H12.3373V11.312H12.3548V11.277H12.4233V11.314H12.4388V11.279H12.5013L12.5093 11.283V11.367C12.5093 11.383 12.4938 11.3985 12.4763 11.3985ZM12.2888 11.297V11.3675C12.2888 11.3755 12.2948 11.3775 12.3003 11.3775H12.4763C12.4823 11.3775 12.4878 11.3715 12.4878 11.3675V11.297H12.4608V11.332H12.4043V11.297H12.3748V11.332H12.3183V11.297H12.2888Z" fill="black"/>
<path d="M12.6986 11.7735H12.0796C12.0621 11.7735 12.0466 11.756 12.0466 11.7345C12.0466 11.715 12.0621 11.6975 12.0796 11.6975H12.6986C12.7161 11.6975 12.7316 11.715 12.7316 11.7345C12.7316 11.756 12.7161 11.7735 12.6986 11.7735ZM12.0796 11.717C12.0716 11.717 12.0661 11.725 12.0661 11.7365C12.0661 11.7465 12.0741 11.754 12.0796 11.754H12.6986C12.7066 11.754 12.7121 11.746 12.7121 11.7365C12.7121 11.725 12.7061 11.717 12.6986 11.717H12.0796Z" fill="black"/>
<path d="M12.7123 11.717H12.0658C12.0463 11.717 12.0308 11.6995 12.0308 11.68C12.0308 11.6585 12.0463 11.641 12.0658 11.641H12.7123C12.7318 11.641 12.7473 11.6585 12.7473 11.68C12.7478 11.699 12.7318 11.717 12.7123 11.717ZM12.0658 11.66C12.0578 11.66 12.0503 11.67 12.0503 11.6795C12.0503 11.689 12.0583 11.697 12.0658 11.697H12.7123C12.7203 11.697 12.7278 11.689 12.7278 11.6795C12.7278 11.67 12.7198 11.66 12.7123 11.66H12.0658Z" fill="black"/>
<path d="M12.4916 12.0175H12.2866V12.0075C12.2886 11.8725 12.3821 11.828 12.3901 11.828C12.3981 11.828 12.4251 11.8475 12.4251 11.8495C12.4546 11.873 12.4896 11.922 12.4916 12.0075V12.0175ZM12.3081 11.996H12.4701C12.4661 11.8945 12.4056 11.8575 12.3901 11.8495C12.3781 11.8555 12.3121 11.8925 12.3081 11.996Z" fill="black"/>
<path d="M12.7261 12.08H12.0521C12.0326 12.08 12.0151 12.0605 12.0151 12.039C12.0151 12.0155 12.0306 11.998 12.0521 11.998H12.7261C12.7456 11.998 12.7611 12.0155 12.7611 12.039C12.7611 12.0625 12.7456 12.08 12.7261 12.08ZM12.0521 12.0175C12.0441 12.0175 12.0366 12.0275 12.0366 12.039C12.0366 12.0505 12.0446 12.0605 12.0521 12.0605H12.7261C12.7361 12.0605 12.7436 12.0505 12.7436 12.039C12.7436 12.0275 12.7356 12.0175 12.7261 12.0175H12.0521Z" fill="black"/>
<path d="M12.5408 12.0175V12.0075C12.5388 11.8045 12.3903 11.775 12.3883 11.775C12.3883 11.775 12.2398 11.818 12.2358 12.0075V12.0175H12.0503L12.0818 11.744L12.6988 11.746V11.754L12.7263 12.0155L12.5408 12.0175ZM12.0718 11.998H12.2163C12.2203 11.9005 12.2633 11.84 12.2983 11.8065C12.3218 11.787 12.3453 11.7735 12.3628 11.7635H12.0993L12.0718 11.998ZM12.4193 11.7655C12.4348 11.7715 12.4523 11.781 12.4703 11.797C12.5093 11.8285 12.5563 11.889 12.5603 11.998L12.7048 11.996L12.6793 11.7655H12.4193Z" fill="black"/>
<path d="M12.1946 9.72649C12.1946 9.70299 12.1616 9.70299 12.1616 9.72649V9.77549H12.1946V9.72649Z" fill="black"/>
<path d="M12.4056 9.63851C12.4076 9.61301 12.3706 9.61301 12.3726 9.63851V9.69901H12.4056V9.63851Z" fill="black"/>
<path d="M12.6187 9.72649C12.6187 9.70299 12.5857 9.70299 12.5857 9.72649V9.77549H12.6187V9.72649Z" fill="black"/>
<path d="M12.2631 9.68548H12.0911C12.0736 9.68548 12.0596 9.67398 12.0596 9.65598V9.56598H12.1281V9.60098H12.1436V9.56598H12.2121V9.60098H12.2276V9.56798H12.2881L12.2961 9.57198V9.65598C12.2961 9.67198 12.2806 9.68548 12.2631 9.68548ZM12.0816 9.58598V9.65648C12.0816 9.66448 12.0876 9.66648 12.0916 9.66648H12.2656C12.2716 9.66648 12.2771 9.66248 12.2771 9.65648V9.58598H12.2496V9.62098H12.1931V9.58598H12.1656V9.62098H12.1091V9.58598H12.0816Z" fill="black"/>
<path d="M12.6872 9.68548H12.5152C12.4977 9.68548 12.4822 9.67398 12.4822 9.65598V9.56598H12.5527V9.60098H12.5662V9.56598H12.6367V9.60098H12.6502V9.56798H12.7107L12.7187 9.57198V9.65598C12.7182 9.67198 12.7047 9.68548 12.6872 9.68548ZM12.5032 9.58598V9.65648C12.5032 9.66448 12.5092 9.66648 12.5147 9.66648H12.6867C12.6927 9.66648 12.6982 9.66248 12.6982 9.65648V9.58598H12.6707V9.62098H12.6142V9.58598H12.5867V9.62098H12.5307V9.58598H12.5032Z" fill="black"/>
<path d="M12.2712 9.82398H12.0857L12.0917 9.66748H12.2657L12.2712 9.82398ZM12.1067 9.80448H12.2492L12.2452 9.68548H12.1102L12.1067 9.80448Z" fill="black"/>
<path d="M12.6926 9.82398H12.5071L12.5151 9.66748H12.6871L12.6926 9.82398ZM12.5286 9.80448H12.6711L12.6671 9.68548H12.5321L12.5286 9.80448Z" fill="black"/>
<path d="M12.2927 9.82402L12.3062 9.54852H12.4742L12.4857 9.82402H12.2927ZM12.3237 9.56852L12.3137 9.80502L12.4642 9.80302L12.4542 9.56852H12.3237Z" fill="black"/>
<path d="M12.4763 9.56048H12.3003C12.2828 9.56048 12.2688 9.54898 12.2688 9.53098V9.44098H12.3373V9.47598H12.3548V9.44098H12.4233V9.47598H12.4388V9.44298H12.5013L12.5093 9.44698V9.53098C12.5093 9.54698 12.4938 9.56048 12.4763 9.56048ZM12.2888 9.46098V9.53148C12.2888 9.53948 12.2948 9.54148 12.3003 9.54148H12.4763C12.4823 9.54148 12.4878 9.53548 12.4878 9.53148V9.46098H12.4608V9.49598H12.4043V9.46098H12.3748V9.49598H12.3183V9.46098H12.2888Z" fill="black"/>
<path d="M12.7123 9.88099H12.0658C12.0463 9.88099 12.0308 9.86349 12.0308 9.84399C12.0308 9.82249 12.0463 9.80499 12.0658 9.80499H12.7123C12.7318 9.80499 12.7473 9.82249 12.7473 9.84399C12.7478 9.86349 12.7318 9.88099 12.7123 9.88099ZM12.0658 9.82399C12.0578 9.82399 12.0503 9.83399 12.0503 9.84349C12.0503 9.85149 12.0583 9.86099 12.0658 9.86099H12.7123C12.7203 9.86099 12.7278 9.85299 12.7278 9.84349C12.7278 9.83199 12.7198 9.82399 12.7123 9.82399H12.0658Z" fill="black"/>
<path d="M12.6986 9.93751H12.0796C12.0621 9.93751 12.0466 9.92001 12.0466 9.89851C12.0466 9.87901 12.0621 9.86151 12.0796 9.86151H12.6986C12.7161 9.86151 12.7316 9.87901 12.7316 9.89851C12.7316 9.92001 12.7161 9.93751 12.6986 9.93751ZM12.0796 9.88101C12.0716 9.88101 12.0661 9.88901 12.0661 9.90051C12.0661 9.91051 12.0741 9.91801 12.0796 9.91801H12.6986C12.7066 9.91801 12.7121 9.91001 12.7121 9.90051C12.7121 9.88901 12.7061 9.88101 12.6986 9.88101H12.0796Z" fill="black"/>
<path d="M12.4916 10.1815H12.2866V10.1715C12.2886 10.0365 12.3821 9.992 12.3901 9.992C12.3981 9.992 12.4251 10.0135 12.4251 10.0135C12.4546 10.039 12.4896 10.086 12.4916 10.1715V10.1815ZM12.3081 10.16H12.4701C12.4661 10.0585 12.4056 10.0215 12.3901 10.0135C12.3781 10.0195 12.3121 10.0565 12.3081 10.16Z" fill="black"/>
<path d="M12.7261 10.244H12.0521C12.0326 10.244 12.0151 10.2245 12.0151 10.203C12.0151 10.1795 12.0306 10.162 12.0521 10.162H12.7261C12.7456 10.162 12.7611 10.1795 12.7611 10.203C12.7611 10.2265 12.7456 10.244 12.7261 10.244ZM12.0521 10.1815C12.0441 10.1815 12.0366 10.1915 12.0366 10.203C12.0366 10.2145 12.0446 10.2245 12.0521 10.2245H12.7261C12.7361 10.2245 12.7436 10.2145 12.7436 10.203C12.7436 10.1915 12.7356 10.1815 12.7261 10.1815H12.0521Z" fill="black"/>
<path d="M12.5408 10.1815V10.1715C12.5388 9.96852 12.3903 9.93902 12.3883 9.93902C12.3883 9.93902 12.2398 9.98202 12.2358 10.1715V10.1815H12.0503L12.0818 9.90802L12.6988 9.91002V9.91802L12.7263 10.1795L12.5408 10.1815ZM12.0718 10.162H12.2163C12.2203 10.0645 12.2633 10.004 12.2983 9.97052C12.3218 9.95102 12.3453 9.93552 12.3628 9.92752H12.0993L12.0718 10.162ZM12.4193 9.92952C12.4348 9.93552 12.4523 9.94502 12.4703 9.96102C12.5093 9.99252 12.5563 10.053 12.5603 10.162L12.7048 10.16L12.6793 9.92952H12.4193Z" fill="black"/>
<path d="M10.2886 11.662L10.2866 12.088C10.2866 12.176 10.3196 12.256 10.3746 12.3145C10.4291 12.371 10.5036 12.4085 10.5856 12.4085C10.6676 12.4085 10.7436 12.3715 10.7966 12.3145C10.8511 12.256 10.8846 12.176 10.8846 12.088V11.662H10.2886ZM10.4231 12.207C10.3916 12.207 10.3646 12.1815 10.3646 12.1485C10.3646 12.1155 10.3921 12.09 10.4231 12.09C10.4561 12.09 10.4816 12.1155 10.4816 12.1485C10.4816 12.1815 10.4566 12.207 10.4231 12.207ZM10.4231 11.883C10.3916 11.883 10.3646 11.8575 10.3646 11.8245C10.3646 11.7915 10.3921 11.766 10.4231 11.766C10.4561 11.766 10.4816 11.7915 10.4816 11.8245C10.4816 11.8575 10.4566 11.883 10.4231 11.883ZM10.5891 12.041C10.5561 12.041 10.5286 12.0155 10.5286 11.9825C10.5286 11.9495 10.5561 11.924 10.5891 11.924C10.6206 11.924 10.6476 11.9495 10.6476 11.9825C10.6476 12.0155 10.6206 12.041 10.5891 12.041ZM10.7531 12.207C10.7216 12.207 10.6946 12.1795 10.6946 12.1485C10.6946 12.1155 10.7221 12.09 10.7531 12.09C10.7861 12.09 10.8136 12.1155 10.8136 12.1485C10.8141 12.1795 10.7866 12.207 10.7531 12.207ZM10.7551 11.883C10.7221 11.883 10.6946 11.8575 10.6946 11.8245C10.6946 11.793 10.7221 11.766 10.7551 11.766C10.7866 11.766 10.8136 11.7935 10.8136 11.8245C10.8141 11.8575 10.7866 11.883 10.7551 11.883Z" fill="#003399"/>
<path d="M10.2886 10.631L10.2866 11.057C10.2866 11.145 10.3196 11.225 10.3746 11.2835C10.4296 11.342 10.5036 11.3775 10.5856 11.3775C10.6676 11.3775 10.7436 11.3425 10.7966 11.2835C10.8511 11.225 10.8846 11.147 10.8846 11.059V10.6315L10.2886 10.631ZM10.4231 11.176C10.3916 11.176 10.3646 11.1505 10.3646 11.1175C10.3646 11.0845 10.3921 11.059 10.4231 11.059C10.4561 11.059 10.4816 11.0845 10.4816 11.1175C10.4816 11.1505 10.4566 11.176 10.4231 11.176ZM10.4231 10.8515C10.3916 10.8515 10.3646 10.826 10.3646 10.793C10.3646 10.76 10.3921 10.7345 10.4231 10.7345C10.4561 10.7345 10.4816 10.76 10.4816 10.793C10.4816 10.826 10.4566 10.8515 10.4231 10.8515ZM10.5891 11.01C10.5561 11.01 10.5286 10.9845 10.5286 10.9515C10.5286 10.92 10.5561 10.893 10.5891 10.893C10.6206 10.893 10.6476 10.9205 10.6476 10.9515C10.6481 10.9845 10.6206 11.01 10.5891 11.01ZM10.7531 11.176C10.7216 11.176 10.6946 11.1485 10.6946 11.1175C10.6946 11.0845 10.7221 11.057 10.7531 11.057C10.7861 11.057 10.8136 11.0845 10.8136 11.1175C10.8136 11.1505 10.7866 11.176 10.7531 11.176ZM10.7551 10.8515C10.7221 10.8515 10.6946 10.826 10.6946 10.793C10.6946 10.76 10.7221 10.7345 10.7551 10.7345C10.7866 10.7345 10.8136 10.76 10.8136 10.793C10.8136 10.826 10.7866 10.8515 10.7551 10.8515Z" fill="#003399"/>
<path d="M9.46074 11.662L9.45874 12.088C9.45874 12.176 9.49374 12.256 9.54674 12.3145C9.60124 12.371 9.67574 12.4085 9.75774 12.4085C9.83974 12.4085 9.91574 12.3715 9.96874 12.3145C10.0232 12.256 10.0567 12.176 10.0567 12.088V11.662H9.46074ZM9.59524 12.207C9.56374 12.207 9.53674 12.1815 9.53674 12.1485C9.53674 12.1155 9.56424 12.09 9.59524 12.09C9.62824 12.09 9.65374 12.1155 9.65374 12.1485C9.65374 12.1815 9.62824 12.207 9.59524 12.207ZM9.59524 11.883C9.56374 11.883 9.53674 11.8575 9.53674 11.8245C9.53674 11.7915 9.56424 11.766 9.59524 11.766C9.62824 11.766 9.65374 11.7915 9.65374 11.8245C9.65574 11.8575 9.62824 11.883 9.59524 11.883ZM9.76124 12.041C9.72824 12.041 9.70274 12.0155 9.70274 11.9825C9.70274 11.9495 9.72824 11.924 9.76124 11.924C9.79424 11.924 9.81974 11.9495 9.81974 11.9825C9.81974 12.0155 9.79424 12.041 9.76124 12.041ZM9.92724 12.207C9.89424 12.207 9.86874 12.1795 9.86874 12.1485C9.86874 12.1155 9.89424 12.09 9.92724 12.09C9.95874 12.09 9.98574 12.1155 9.98574 12.1485C9.98574 12.1795 9.95874 12.207 9.92724 12.207ZM9.92724 11.883C9.89424 11.883 9.86874 11.8575 9.86874 11.8245C9.86874 11.793 9.89424 11.766 9.92724 11.766C9.95874 11.766 9.98574 11.7935 9.98574 11.8245C9.98574 11.8575 9.96074 11.883 9.92724 11.883Z" fill="#003399"/>
<path d="M11.1128 11.662V12.088C11.1128 12.176 11.1458 12.256 11.2008 12.3145C11.2553 12.371 11.3298 12.4085 11.4118 12.4085C11.4938 12.4085 11.5683 12.3715 11.6228 12.3145C11.6753 12.256 11.7108 12.176 11.7108 12.088V11.662H11.1128ZM11.2498 12.207C11.2168 12.207 11.1913 12.1815 11.1913 12.1485C11.1913 12.1155 11.2168 12.09 11.2498 12.09C11.2813 12.09 11.3083 12.1155 11.3083 12.1485C11.3083 12.1815 11.2808 12.207 11.2498 12.207ZM11.2498 11.883C11.2168 11.883 11.1913 11.8575 11.1913 11.8245C11.1913 11.7915 11.2168 11.766 11.2498 11.766C11.2813 11.766 11.3083 11.7915 11.3083 11.8245C11.3083 11.8575 11.2808 11.883 11.2498 11.883ZM11.4138 12.041C11.3823 12.041 11.3553 12.0155 11.3553 11.9825C11.3553 11.9495 11.3828 11.924 11.4138 11.924C11.4468 11.924 11.4743 11.9495 11.4743 11.9825C11.4743 12.0155 11.4468 12.041 11.4138 12.041ZM11.5798 12.207C11.5468 12.207 11.5213 12.1795 11.5213 12.1485C11.5213 12.1155 11.5468 12.09 11.5798 12.09C11.6128 12.09 11.6383 12.1155 11.6383 12.1485C11.6383 12.1795 11.6128 12.207 11.5798 12.207ZM11.5798 11.883C11.5483 11.883 11.5213 11.8575 11.5213 11.8245C11.5213 11.793 11.5488 11.766 11.5798 11.766C11.6128 11.766 11.6403 11.7935 11.6403 11.8245C11.6403 11.8575 11.6128 11.883 11.5798 11.883Z" fill="#003399"/>
<path d="M10.2886 12.6835L10.2866 13.111C10.2866 13.199 10.3196 13.279 10.3746 13.3355C10.4291 13.394 10.5036 13.431 10.5856 13.431C10.6676 13.431 10.7436 13.394 10.7966 13.337C10.8511 13.2785 10.8846 13.1985 10.8846 13.1105V12.683L10.2886 12.6835ZM10.4231 13.2305C10.3916 13.2305 10.3646 13.203 10.3646 13.17C10.3646 13.1385 10.3921 13.1115 10.4231 13.1115C10.4561 13.1115 10.4816 13.139 10.4816 13.17C10.4816 13.203 10.4566 13.2305 10.4231 13.2305ZM10.4231 12.9045C10.3916 12.9045 10.3646 12.879 10.3646 12.846C10.3646 12.8145 10.3921 12.7875 10.4231 12.7875C10.4561 12.7875 10.4816 12.815 10.4816 12.846C10.4816 12.879 10.4566 12.9045 10.4231 12.9045ZM10.5891 13.0645C10.5561 13.0645 10.5286 13.037 10.5286 13.004C10.5286 12.9725 10.5561 12.9455 10.5891 12.9455C10.6206 12.9455 10.6476 12.973 10.6476 13.004C10.6481 13.037 10.6206 13.0645 10.5891 13.0645ZM10.7531 13.2285C10.7216 13.2285 10.6946 13.203 10.6946 13.17C10.6946 13.137 10.7221 13.1115 10.7531 13.1115C10.7861 13.1115 10.8136 13.137 10.8136 13.17C10.8136 13.203 10.7866 13.2285 10.7531 13.2285ZM10.7551 12.9065C10.7221 12.9065 10.6946 12.879 10.6946 12.846C10.6946 12.8145 10.7221 12.7875 10.7551 12.7875C10.7866 12.7875 10.8136 12.815 10.8136 12.846C10.8141 12.879 10.7866 12.9065 10.7551 12.9065Z" fill="#003399"/>
<defs>
<linearGradient id="paint0_linear_1_9205" x1="10.7642" y1="7.5885" x2="18.0402" y2="17.131" gradientUnits="userSpaceOnUse">
<stop offset="0.008" stop-color="#F44F5A"/>
<stop offset="0.447" stop-color="#EE3D4A"/>
<stop offset="1" stop-color="#E52030"/>
</linearGradient>
<linearGradient id="paint1_linear_1_9205" x1="5.94068" y1="5.98199" x2="10.3297" y2="19.2955" gradientUnits="userSpaceOnUse">
<stop stop-color="#21AD64"/>
<stop offset="1" stop-color="#088242"/>
</linearGradient>
</defs>
</svg>
