<svg width="25" height="24" viewBox="0 0 25 24" fill="none" xmlns="http://www.w3.org/2000/svg">
<path d="M22.5757 12C22.5757 6.4775 18.0982 2 12.5757 2C7.05318 2 2.57568 6.4775 2.57568 12C2.57568 17.5225 7.05318 22 12.5757 22C18.0982 22 22.5757 17.5225 22.5757 12Z" fill="url(#paint0_linear_1_9476)"/>
<path d="M6.53076 10.548L8.70826 7.1925L9.00326 7.384L6.82576 10.7375L6.53076 10.548Z" fill="#263238"/>
<path d="M4.97217 14.464L5.30817 14.247L7.48217 17.6045L7.14817 17.8215L4.97217 14.464Z" fill="#263238"/>
<path d="M16.9077 6.87002L17.2417 6.65302L19.4547 10.0435L19.1187 10.2625L16.9077 6.87002Z" fill="#263238"/>
<path d="M5.7478 10.0635L7.9253 6.70801L8.2183 6.89751L6.0408 10.253L5.7478 10.0635Z" fill="#263238"/>
<path d="M17.2981 9.19998L17.5911 9.00848L18.5991 10.561L18.3041 10.7525L17.2981 9.19998Z" fill="#263238"/>
<path d="M18.8022 15.8215L19.8102 14.269L20.1032 14.4605L19.0952 16.0115L18.8022 15.8215Z" fill="#263238"/>
<path d="M6.89429 15.755L7.18729 15.5655L8.19529 17.1165L7.90229 17.308L6.89429 15.755Z" fill="#263238"/>
<path d="M18.8552 8.20798L19.1482 8.01648L20.1617 9.56348L19.8687 9.75498L18.8552 8.20798Z" fill="#263238"/>
<path d="M17.2612 14.8095L18.2692 13.257L18.5622 13.4485L17.5542 14.9995L17.2612 14.8095Z" fill="#263238"/>
<path d="M18.0442 15.294L19.0557 13.743L19.3897 13.962L18.3797 15.513L18.0442 15.294Z" fill="#263238"/>
<path d="M16.1497 7.384L16.4427 7.1925L17.4562 8.7395L17.1632 8.931L16.1497 7.384Z" fill="#263238"/>
<path d="M17.6282 17.6105L18.6262 16.052L18.9212 16.2415L17.9212 17.798L17.6282 17.6105Z" fill="#263238"/>
<path d="M5.75171 13.9325L6.08771 13.7155L7.08771 15.272L6.75171 15.489L5.75171 13.9325Z" fill="#263238"/>
<path d="M17.7087 6.38552L18.0017 6.19202L19.0172 7.73902L18.7242 7.93052L17.7087 6.38552Z" fill="#263238"/>
<path d="M16.0796 16.585L17.0896 15.036L17.4256 15.255L16.4141 16.804L16.0796 16.585Z" fill="#263238"/>
<path d="M16.8433 17.12L17.8453 15.5655L18.1813 15.7825L17.1793 17.337L16.8433 17.12Z" fill="#263238"/>
<path d="M4.95459 9.56952L7.16959 6.17902L7.50559 6.39802L5.29059 9.78852L4.95459 9.56952Z" fill="#263238"/>
<path d="M6.50317 13.425L6.79817 13.2335L8.97217 16.591L8.67917 16.7825L6.50317 13.425Z" fill="#263238"/>
<path d="M10.8257 13.741C11.7877 13.741 12.5757 12.953 12.5757 11.991C12.5757 11.029 13.3637 10.241 14.3257 10.241C15.2877 10.241 16.0757 11.029 16.0757 11.991C16.0757 10.0665 14.5002 8.49103 12.5757 8.49103C10.6512 8.49103 9.07568 10.0665 9.07568 11.991C9.07568 12.9535 9.86368 13.741 10.8257 13.741Z" fill="url(#paint1_linear_1_9476)"/>
<path d="M14.3257 10.241C13.3637 10.241 12.5757 11.029 12.5757 11.991C12.5757 12.953 11.7877 13.741 10.8257 13.741C9.86368 13.741 9.07568 12.953 9.07568 11.991C9.07568 13.9155 10.6512 15.491 12.5757 15.491C14.5002 15.491 16.0757 13.9155 16.0757 11.991C16.0757 11.029 15.2877 10.241 14.3257 10.241Z" fill="url(#paint2_linear_1_9476)"/>
<defs>
<linearGradient id="paint0_linear_1_9476" x1="7.22668" y1="6.651" x2="27.2647" y2="26.689" gradientUnits="userSpaceOnUse">
<stop stop-color="#DFE9F2"/>
<stop offset="0.998" stop-color="#9EA7B0"/>
</linearGradient>
<linearGradient id="paint1_linear_1_9476" x1="10.6917" y1="9.61753" x2="15.4512" y2="14.7505" gradientUnits="userSpaceOnUse">
<stop offset="0.008" stop-color="#F44F5A"/>
<stop offset="0.447" stop-color="#EE3D4A"/>
<stop offset="1" stop-color="#E52030"/>
</linearGradient>
<linearGradient id="paint2_linear_1_9476" x1="11.5832" y1="10.9705" x2="15.8047" y2="16.5545" gradientUnits="userSpaceOnUse">
<stop stop-color="#0D61A9"/>
<stop offset="1" stop-color="#16528C"/>
</linearGradient>
</defs>
</svg>
