<svg width="25" height="24" viewBox="0 0 25 24" fill="none" xmlns="http://www.w3.org/2000/svg">
<path d="M21.2266 7H3.92407C5.65407 4.014 8.87657 2 12.5756 2C16.2746 2 19.4971 4.014 21.2266 7ZM12.5756 22C16.2746 22 19.4971 19.986 21.2266 17H3.92457C5.65457 19.986 8.87657 22 12.5756 22Z" fill="url(#paint0_linear_1_9199)"/>
<path d="M22.5757 12C22.5757 10.1765 22.0797 8.472 21.2272 7H3.92418C3.07168 8.472 2.57568 10.1765 2.57568 12C2.57568 13.8235 3.07168 15.528 3.92468 17H21.2272C22.0797 15.528 22.5757 13.8235 22.5757 12Z" fill="url(#paint1_linear_1_9199)"/>
<defs>
<linearGradient id="paint0_linear_1_9199" x1="5.45257" y1="4.877" x2="19.5466" y2="18.971" gradientUnits="userSpaceOnUse">
<stop stop-color="#F44F5A"/>
<stop offset="0.443" stop-color="#EE3D4A"/>
<stop offset="1" stop-color="#E52030"/>
</linearGradient>
<linearGradient id="paint1_linear_1_9199" x1="5.60918" y1="5.0335" x2="19.4532" y2="18.877" gradientUnits="userSpaceOnUse">
<stop stop-color="#FEDE00"/>
<stop offset="1" stop-color="#FFD000"/>
</linearGradient>
</defs>
</svg>
