<svg width="25" height="24" viewBox="0 0 25 24" fill="none" xmlns="http://www.w3.org/2000/svg">
<path d="M8.5757 2.8375V10.5H2.7002C3.2197 7.0565 5.48519 4.189 8.5757 2.8375ZM11.5757 21.9495C11.9047 21.982 12.2382 22 12.5757 22C17.5872 22 21.7257 18.3095 22.4512 13.5H11.5757V21.9495ZM8.5757 21.1625V13.5H2.7002C3.2197 16.9435 5.48519 19.811 8.5757 21.1625ZM12.5757 2C12.2382 2 11.9047 2.018 11.5757 2.0505V10.5H22.4512C21.7257 5.6905 17.5872 2 12.5757 2Z" fill="url(#paint0_linear_1_9413)"/>
<path d="M22.4512 13.5C22.5252 13.0095 22.5757 12.511 22.5757 12C22.5757 11.489 22.5252 10.9905 22.4512 10.5H11.5757V2.05048C10.5177 2.15548 9.51068 2.42898 8.57568 2.83748V10.5H2.70018C2.62618 10.9905 2.57568 11.489 2.57568 12C2.57568 12.511 2.62618 13.0095 2.70018 13.5H8.57568V21.1625C9.51068 21.5715 10.5177 21.8445 11.5757 21.9495V13.5H22.4512Z" fill="url(#paint1_linear_1_9413)"/>
<defs>
<linearGradient id="paint0_linear_1_9413" x1="8.7622" y1="6.285" x2="19.7247" y2="22.7145" gradientUnits="userSpaceOnUse">
<stop stop-color="#0D61A9"/>
<stop offset="1" stop-color="#16528C"/>
</linearGradient>
<linearGradient id="paint1_linear_1_9413" x1="9.16968" y1="6.03348" x2="16.4362" y2="18.7625" gradientUnits="userSpaceOnUse">
<stop stop-color="#FFD000"/>
<stop offset="1" stop-color="#FFC107"/>
</linearGradient>
</defs>
</svg>
