<svg width="25" height="24" viewBox="0 0 25 24" fill="none" xmlns="http://www.w3.org/2000/svg">
<path d="M12.5757 22C18.0985 22 22.5757 17.5228 22.5757 12C22.5757 6.47715 18.0985 2 12.5757 2C7.05284 2 2.57568 6.47715 2.57568 12C2.57568 17.5228 7.05284 22 12.5757 22Z" fill="url(#paint0_linear_1_9507)"/>
<path d="M11.4703 11.594L11.4663 10.229L12.2708 11.3285L13.5678 10.9045L12.7688 12.01L13.5758 13.1115L12.2768 12.6935L11.4798 13.801L11.4738 12.436L10.1748 12.02L11.4703 11.594Z" fill="#F0F4F7"/>
<path d="M9.81228 15.543C7.86328 15.543 6.28078 13.963 6.28078 12.0135C6.28078 10.064 7.86078 8.48397 9.81228 8.48397C10.1288 8.48397 10.4333 8.52897 10.7263 8.60697C10.1168 8.23197 9.40228 8.01147 8.63428 8.01147C6.42528 8.01147 4.63428 9.80247 4.63428 12.0115C4.63428 14.2205 6.42528 16.0115 8.63428 16.0115C9.40178 16.0115 10.1168 15.7925 10.7263 15.4175C10.4333 15.498 10.1283 15.543 9.81228 15.543Z" fill="#F0F4F7"/>
<defs>
<linearGradient id="paint0_linear_1_9507" x1="6.52368" y1="4.4435" x2="19.0262" y2="20.0545" gradientUnits="userSpaceOnUse">
<stop offset="0.008" stop-color="#F44F5A"/>
<stop offset="0.447" stop-color="#EE3D4A"/>
<stop offset="1" stop-color="#E52030"/>
</linearGradient>
</defs>
</svg>
