<svg width="23" height="25" viewBox="0 0 23 25" fill="none" xmlns="http://www.w3.org/2000/svg">
<path d="M14.4565 22.6873V16.8748C14.4565 16.6179 14.3545 16.3715 14.1728 16.1898C13.9911 16.0081 13.7447 15.9061 13.4878 15.9061H9.61279C9.35586 15.9061 9.10946 16.0081 8.92778 16.1898C8.74611 16.3715 8.64404 16.6179 8.64404 16.8748V22.6873C8.64404 22.9442 8.54198 23.1906 8.3603 23.3723C8.17863 23.554 7.93222 23.6561 7.67529 23.6561H1.86279C1.60586 23.6561 1.35946 23.554 1.17778 23.3723C0.996108 23.1906 0.894043 22.9442 0.894043 22.6873V11.4861C0.896212 11.3521 0.925185 11.2198 0.979256 11.0971C1.03333 10.9744 1.1114 10.8637 1.20889 10.7717L10.8964 1.96816C11.075 1.80478 11.3082 1.71417 11.5503 1.71417C11.7923 1.71417 12.0256 1.80478 12.2042 1.96816L21.8917 10.7717C21.9892 10.8637 22.0673 10.9744 22.1213 11.0971C22.1754 11.2198 22.2044 11.3521 22.2065 11.4861V22.6873C22.2065 22.9442 22.1045 23.1906 21.9228 23.3723C21.7411 23.554 21.4947 23.6561 21.2378 23.6561H15.4253C15.1684 23.6561 14.922 23.554 14.7403 23.3723C14.5586 23.1906 14.4565 22.9442 14.4565 22.6873Z" stroke="url(#paint0_linear_1_20209)" stroke-width="1.58" stroke-linecap="round" stroke-linejoin="round"/>
<defs>
<linearGradient id="paint0_linear_1_20209" x1="0.107339" y1="-24.1459" x2="38.5458" y2="-15.4954" gradientUnits="userSpaceOnUse">
<stop stop-color="#FFE986" stop-opacity="0.88"/>
<stop offset="0.670219" stop-color="#BC7E20"/>
<stop offset="1" stop-color="#A74D01"/>
</linearGradient>
</defs>
</svg>
