<svg width="32" height="32" viewBox="0 0 32 32" fill="none" xmlns="http://www.w3.org/2000/svg">
<path d="M15.5503 27.625C21.9706 27.625 27.1753 22.4203 27.1753 16C27.1753 9.57969 21.9706 4.375 15.5503 4.375C9.12998 4.375 3.92529 9.57969 3.92529 16C3.92529 22.4203 9.12998 27.625 15.5503 27.625Z" stroke="url(#paint0_linear_1_20257)" stroke-width="1.58" stroke-miterlimit="10"/>
<path d="M4.59131 12.125H26.5093" stroke="url(#paint1_linear_1_20257)" stroke-width="1.58" stroke-linecap="round" stroke-linejoin="round"/>
<path d="M4.59131 19.875H26.5093" stroke="url(#paint2_linear_1_20257)" stroke-width="1.58" stroke-linecap="round" stroke-linejoin="round"/>
<path d="M15.5503 27.3103C18.2254 27.3103 20.394 22.2466 20.394 16.0002C20.394 9.75376 18.2254 4.69003 15.5503 4.69003C12.8752 4.69003 10.7065 9.75376 10.7065 16.0002C10.7065 22.2466 12.8752 27.3103 15.5503 27.3103Z" stroke="url(#paint3_linear_1_20257)" stroke-width="1.58" stroke-miterlimit="10"/>
<defs>
<linearGradient id="paint0_linear_1_20257" x1="3.06707" y1="-23.0268" x2="44.8791" y2="-13.3392" gradientUnits="userSpaceOnUse">
<stop stop-color="#FFE986" stop-opacity="0.88"/>
<stop offset="0.670219" stop-color="#BC7E20"/>
<stop offset="1" stop-color="#A74D01"/>
</linearGradient>
<linearGradient id="paint1_linear_1_20257" x1="3.78225" y1="10.9464" x2="5.33264" y2="18.8197" gradientUnits="userSpaceOnUse">
<stop stop-color="#FFE986" stop-opacity="0.88"/>
<stop offset="0.670219" stop-color="#BC7E20"/>
<stop offset="1" stop-color="#A74D01"/>
</linearGradient>
<linearGradient id="paint2_linear_1_20257" x1="3.78225" y1="18.6964" x2="5.33264" y2="26.5697" gradientUnits="userSpaceOnUse">
<stop stop-color="#FFE986" stop-opacity="0.88"/>
<stop offset="0.670219" stop-color="#BC7E20"/>
<stop offset="1" stop-color="#A74D01"/>
</linearGradient>
<linearGradient id="paint3_linear_1_20257" x1="10.349" y1="-21.9696" x2="28.5269" y2="-20.1659" gradientUnits="userSpaceOnUse">
<stop stop-color="#FFE986" stop-opacity="0.88"/>
<stop offset="0.670219" stop-color="#BC7E20"/>
<stop offset="1" stop-color="#A74D01"/>
</linearGradient>
</defs>
</svg>
