<svg width="26" height="26" viewBox="0 0 26 26" fill="none" xmlns="http://www.w3.org/2000/svg">
<path d="M2.48392 14.4851C4.40022 11.7264 5.52744 9.94911 6.34928 8.63568C3.19092 8.91504 0.163574 12.8454 0.163574 12.8454L2.24826 14.9302C2.30875 14.776 2.38598 14.6263 2.48392 14.4851Z" fill="url(#paint0_linear_1_20220)"/>
<path d="M10.6226 23.3068L12.7059 25.3902C12.7059 25.3902 16.6357 22.3629 16.9151 19.2043C15.6022 20.0259 13.8256 21.1528 11.0663 23.0698C10.9267 23.1666 10.7779 23.2457 10.6226 23.3068Z" fill="url(#paint1_linear_1_20220)"/>
<path d="M7.45414 22.2296C7.09651 22.3742 6.74504 22.5278 6.3786 22.6502C5.39986 22.9774 4.39186 23.1984 3.36985 23.3395C2.94147 23.3986 2.50912 23.4488 2.07604 23.4816C2.08016 23.4281 2.08412 23.3746 2.08865 23.3212C2.17802 22.2798 2.33645 21.2438 2.59242 20.2297C2.71575 19.7403 2.87313 19.2645 3.04207 18.7894C3.14713 18.4941 3.27822 18.2114 3.41045 17.9287L3.18126 17.6996C2.67151 18.0421 2.22816 18.4748 1.85194 18.9644C1.29496 19.6893 0.87749 20.5106 0.585616 21.376C0.272069 22.3053 0.0850892 23.2894 0.0559747 24.2705C0.0518501 24.4083 0.0423879 24.5491 0.0637386 24.6859C0.0912356 24.8626 0.168793 25.0297 0.285332 25.1652C0.400658 25.2992 0.552458 25.4004 0.720675 25.4547C0.861881 25.5002 1.0039 25.501 1.15036 25.4999C2.04094 25.4925 2.94535 25.3377 3.79784 25.0844C5.357 24.6211 6.93105 23.7495 7.85365 22.3723L7.6306 22.1494C7.57213 22.1769 7.5135 22.2038 7.45414 22.2296Z" fill="url(#paint2_linear_1_20220)"/>
<path d="M24.7972 0.753177C24.7972 0.753177 24.7971 0.753097 24.7969 0.752935C24.6347 0.590768 24.4148 0.499939 24.1859 0.499939C24.1803 0.499939 24.1745 0.50002 24.1688 0.500101C21.386 0.554695 14.5201 1.07525 10.8738 4.72201C9.21854 6.3774 8.68057 7.23911 7.50143 9.12752C6.65226 10.4871 5.4897 12.3494 3.36498 15.4079C3.12632 15.7516 3.16781 16.2169 3.46373 16.5127L9.03819 22.0877C9.20544 22.2551 9.42695 22.3411 9.64992 22.3411C9.82129 22.3411 9.99347 22.2903 10.1429 22.1866C13.2022 20.0612 15.0636 18.8988 16.4226 18.0498C18.3107 16.8707 19.1725 16.3325 20.828 14.6769C24.4808 11.0237 24.9976 4.16167 25.05 1.3809C25.0547 1.1461 24.9633 0.919469 24.7972 0.753177ZM18.3421 11.2723C17.2199 12.3946 15.4005 12.3946 14.2782 11.2723C13.1558 10.1499 13.156 8.33052 14.2784 7.20821C15.4005 6.08583 17.2199 6.08566 18.3421 7.20797C19.4641 8.33028 19.4643 10.1501 18.3421 11.2723Z" fill="url(#paint3_linear_1_20220)"/>
<defs>
<linearGradient id="paint0_linear_1_20220" x1="-0.0647575" y1="1.21718" x2="11.0789" y2="3.75446" gradientUnits="userSpaceOnUse">
<stop stop-color="#FFE986" stop-opacity="0.88"/>
<stop offset="0.670219" stop-color="#BC7E20"/>
<stop offset="1" stop-color="#A74D01"/>
</linearGradient>
<linearGradient id="paint1_linear_1_20220" x1="10.3903" y1="11.9137" x2="21.6866" y2="14.5761" gradientUnits="userSpaceOnUse">
<stop stop-color="#FFE986" stop-opacity="0.88"/>
<stop offset="0.670219" stop-color="#BC7E20"/>
<stop offset="1" stop-color="#A74D01"/>
</linearGradient>
<linearGradient id="paint2_linear_1_20220" x1="-0.237751" y1="8.5062" x2="13.795" y2="11.7587" gradientUnits="userSpaceOnUse">
<stop stop-color="#FFE986" stop-opacity="0.88"/>
<stop offset="0.670219" stop-color="#BC7E20"/>
<stop offset="1" stop-color="#A74D01"/>
</linearGradient>
<linearGradient id="paint3_linear_1_20220" x1="2.40428" y1="-25.2415" x2="41.6805" y2="-16.142" gradientUnits="userSpaceOnUse">
<stop stop-color="#FFE986" stop-opacity="0.88"/>
<stop offset="0.670219" stop-color="#BC7E20"/>
<stop offset="1" stop-color="#A74D01"/>
</linearGradient>
</defs>
</svg>
