<svg width="29" height="28" viewBox="0 0 29 28" fill="none" xmlns="http://www.w3.org/2000/svg">
<path d="M1.3208 1.37195H6.13149L9.35465 17.4757C9.46462 18.0294 9.76585 18.5268 10.2056 18.8808C10.6453 19.2348 11.1956 19.4228 11.76 19.412H23.45C24.0144 19.4228 24.5646 19.2348 25.0044 18.8808C25.4441 18.5268 25.7453 18.0294 25.8553 17.4757L27.7796 7.38531H7.33416M12.1448 25.4254C12.1448 26.0896 11.6064 26.628 10.9422 26.628C10.278 26.628 9.7395 26.0896 9.7395 25.4254C9.7395 24.7612 10.278 24.2227 10.9422 24.2227C11.6064 24.2227 12.1448 24.7612 12.1448 25.4254ZM25.3742 25.4254C25.3742 26.0896 24.8358 26.628 24.1716 26.628C23.5073 26.628 22.9689 26.0896 22.9689 25.4254C22.9689 24.7612 23.5073 24.2227 24.1716 24.2227C24.8358 24.2227 25.3742 24.7612 25.3742 25.4254Z" stroke="url(#paint0_linear_350_15)" stroke-width="2" stroke-linecap="round" stroke-linejoin="round"/>
<defs>
<linearGradient id="paint0_linear_350_15" x1="0.344133" y1="-28.3942" x2="47.6915" y2="-16.9017" gradientUnits="userSpaceOnUse">
<stop stop-color="#FFE986" stop-opacity="0.88"/>
<stop offset="0.670219" stop-color="#BC7E20"/>
<stop offset="1" stop-color="#A74D01"/>
</linearGradient>
</defs>
</svg>
