<svg width="32" height="32" viewBox="0 0 32 32" fill="none" xmlns="http://www.w3.org/2000/svg">
<path d="M15.5503 27.625C21.9706 27.625 27.1753 22.4203 27.1753 16C27.1753 9.57969 21.9706 4.375 15.5503 4.375C9.12998 4.375 3.92529 9.57969 3.92529 16C3.92529 22.4203 9.12998 27.625 15.5503 27.625Z" stroke="url(#paint0_linear_1_20250)" stroke-width="1.58" stroke-linecap="round" stroke-linejoin="round"/>
<path d="M14.5815 15.0312H15.5503V21.8125H16.519" stroke="url(#paint1_linear_1_20250)" stroke-width="1.58" stroke-linecap="round" stroke-linejoin="round"/>
<path d="M15.3081 12.125C16.1106 12.125 16.7612 11.4744 16.7612 10.6719C16.7612 9.86934 16.1106 9.21875 15.3081 9.21875C14.5056 9.21875 13.855 9.86934 13.855 10.6719C13.855 11.4744 14.5056 12.125 15.3081 12.125Z" fill="url(#paint2_linear_1_20250)"/>
<defs>
<linearGradient id="paint0_linear_1_20250" x1="3.06707" y1="-23.0268" x2="44.8791" y2="-13.3392" gradientUnits="userSpaceOnUse">
<stop stop-color="#FFE986" stop-opacity="0.88"/>
<stop offset="0.670219" stop-color="#BC7E20"/>
<stop offset="1" stop-color="#A74D01"/>
</linearGradient>
<linearGradient id="paint1_linear_1_20250" x1="14.51" y1="7.03906" x2="18.1654" y2="7.28104" gradientUnits="userSpaceOnUse">
<stop stop-color="#FFE986" stop-opacity="0.88"/>
<stop offset="0.670219" stop-color="#BC7E20"/>
<stop offset="1" stop-color="#A74D01"/>
</linearGradient>
<linearGradient id="paint2_linear_1_20250" x1="13.7477" y1="5.79353" x2="18.9742" y2="7.00447" gradientUnits="userSpaceOnUse">
<stop stop-color="#FFE986" stop-opacity="0.88"/>
<stop offset="0.670219" stop-color="#BC7E20"/>
<stop offset="1" stop-color="#A74D01"/>
</linearGradient>
</defs>
</svg>
